<svg xmlns="http://www.w3.org/2000/svg" viewBox="0 0 2040.11 1285.75"><defs><style>.cls-1{isolation:isolate;}.cls-2{fill:#6498d1;}.cls-3{fill:#b7d9d8;}.cls-10,.cls-13,.cls-35,.cls-4{mix-blend-mode:multiply;}.cls-5{fill:#e2f0fe;}.cls-6{opacity:0.8;}.cls-7{fill:#fff;}.cls-10,.cls-8{opacity:0.5;}.cls-9{fill:#ff424d;}.cls-11{fill:#febac7;}.cls-12{fill:#77b890;}.cls-13,.cls-29,.cls-38{opacity:0.3;}.cls-14{fill:#f9b870;}.cls-15{fill:#f3fffe;}.cls-16{fill:#5caa7b;}.cls-17{fill:#3aaec9;}.cls-18{fill:#41afc9;}.cls-19{fill:#027396;}.cls-20{fill:#fcaf5b;}.cls-21{fill:#4d81ce;}.cls-22{fill:#6d492d;}.cls-23{fill:#f47f91;}.cls-24{fill:#ef5e7a;}.cls-25{fill:#ffca5d;}.cls-26{fill:#79c09e;}.cls-27{fill:#7fc6a6;}.cls-28{fill:#6aa2e5;}.cls-30{fill:#b5d6fb;}.cls-31{fill:#4f91d3;}.cls-32{fill:#ffdeb5;}.cls-33{fill:#f7c9a1;}.cls-34{fill:#223749;}.cls-35{opacity:0.1;}.cls-36{fill:#fd7583;}.cls-37{fill:#fbfdfc;}.cls-38{mix-blend-mode:color-burn;}.cls-39{fill:#f99247;}.cls-40{fill:#6cb793;}.cls-41{fill:#9ad6b9;}.cls-42{fill:#5ba580;}.cls-43{fill:#ed7163;}.cls-44{fill:#f9b74b;}.cls-45{fill:#133671;}</style></defs><g class="cls-1"><g id="Layer_2" data-name="Layer 2"><g id="Layer_1-2" data-name="Layer 1"><path class="cls-2" d="M2030.51,1142.34a1417.25,1417.25,0,0,1-20.36,140.53c-99.83-.7-202.19-1.24-306.28-1.66-125.77-.5-254.07-.83-383.49-1h-7.09l-71.59-.1-33.17,0h-6.71c-193.31-.24-388.12-.27-579.81-.34l-34.07,0H586q-86.28,0-171.48-.09h-1.94c-132.08-.1-261.79-.24-387.55-.54,0-.08-28.28-51.65-24.72-136.68,1.28-30.66,6.7-65.67,19.1-104.19,31.51-97.22,73.45-117.49,87.85-238.21,3-23.64,5.21-51.25,6.36-84.13,0-5.48.06-10.93.16-16.32q.06-3.29.13-6.56c2.73-117.15-10.09-233.77,23.49-313.6,63.93-156.27,226.5-239,362.28-239.55,29.05-3.53,55.83,2.56,82.54,11.5l4.62,1.58C644.26,172.75,701.9,204,781.53,179.35c20-8.25,39.91-17,59.8-26.17l4.61-2.11c80.32-37,161.4-78.74,256.52-109.25l5.76-1.83c13.6-4.26,27.49-8.31,41.7-12.06l7.24-1.88Q1180,20.23,1204,15.42c16.91-3.84,34.47-7.1,52.46-9.62l5.77-.79a584.89,584.89,0,0,1,75.84-5q3.6,0,7.22.06c39.21.56,78.73,5.47,116.58,16.16q2.88.81,5.76,1.68A349.92,349.92,0,0,1,1519.54,38q3.63,1.74,7.22,3.59a303,303,0,0,1,102.67,85.13q2.92,3.78,5.76,7.7c18.4,25.38,34.16,55,46.55,89.44,18.47,51.59,37.06,128.09,70.85,155.16C1947.13,519.12,2063.16,791.14,2030.51,1142.34Z"/><rect class="cls-3" x="246.25" y="369.26" width="469.78" height="773.09"/><g class="cls-4"><rect class="cls-5" x="264.05" y="389.31" width="208.53" height="723.61"/></g><g class="cls-4"><rect class="cls-5" x="489.69" y="389.31" width="208.53" height="723.61"/></g><g class="cls-6"><path class="cls-7" d="M1523.16,326.32a14.09,14.09,0,0,1-14.09-14.09h28.18A14.09,14.09,0,0,1,1523.16,326.32Z"/></g><path class="cls-3" d="M1571.09,312.23h-95.86a4.25,4.25,0,0,1-3-7.25l40.6-40.6V243.75a8.05,8.05,0,0,1,6.72-7.94V38q3.63,1.74,7.22,3.59V235.81a8.08,8.08,0,0,1,6.76,7.94v20.63l40.59,40.6A4.25,4.25,0,0,1,1571.09,312.23Z"/><g class="cls-6"><path class="cls-7" d="M1153.54,274.56a14.09,14.09,0,0,1-14.09-14.09h28.19A14.09,14.09,0,0,1,1153.54,274.56Z"/></g><path class="cls-3" d="M1201.49,260.47h-95.88a4.25,4.25,0,0,1-3-7.25l40.58-40.59V192a8.05,8.05,0,0,1,6.73-7.93V27.93l7.24-1.88v158a8.07,8.07,0,0,1,6.74,7.93v20.64l40.59,40.59A4.25,4.25,0,0,1,1201.49,260.47Z"/><g class="cls-6"><path class="cls-7" d="M1341.7,442.81a14.1,14.1,0,0,1-14.1-14.1h28.19A14.09,14.09,0,0,1,1341.7,442.81Z"/></g><path class="cls-3" d="M1389.63,428.72h-95.87a4.25,4.25,0,0,1-3-7.25l40.59-40.61V360.24a8,8,0,0,1,6.73-7.94V0q3.6,0,7.22.06V352.3a8.06,8.06,0,0,1,6.75,7.94v20.62l40.59,40.61A4.24,4.24,0,0,1,1389.63,428.72Z"/><g class="cls-8"><path class="cls-9" d="M1037,579.52H897.56c-2.81,0-5.08-4.85-5.08-10.85s2.27-10.85,5.08-10.85H1037c2.81,0,5.08,4.86,5.08,10.85S1039.85,579.52,1037,579.52Z"/><g class="cls-10"><g class="cls-4"><path class="cls-9" d="M917.64,579.52H897.56c-2.81,0-5.08-4.85-5.08-10.85s2.27-10.85,5.08-10.85h20.08c2.8,0,5.08,4.86,5.08,10.85S920.44,579.52,917.64,579.52Z"/></g></g><g class="cls-4"><path class="cls-9" d="M914.14,570.12H899.49c-.37,0-.68-.65-.68-1.45s.31-1.44.68-1.44h14.65c.38,0,.68.64.68,1.44S914.52,570.12,914.14,570.12Z"/></g><path class="cls-11" d="M1041.75,557.82H902.27c-2.81,0-5.08-4.85-5.08-10.85s2.27-10.85,5.08-10.85h139.48c2.81,0,5.08,4.86,5.08,10.85S1044.56,557.82,1041.75,557.82Z"/><g class="cls-4"><g class="cls-4"><path class="cls-11" d="M922.35,557.82H902.27c-2.81,0-5.08-4.85-5.08-10.85s2.27-10.85,5.08-10.85h20.08c2.8,0,5.08,4.86,5.08,10.85S925.15,557.82,922.35,557.82Z"/></g></g><g class="cls-4"><path class="cls-11" d="M918.85,548.42H904.2c-.37,0-.68-.65-.68-1.45s.31-1.44.68-1.44h14.65c.38,0,.68.64.68,1.44S919.23,548.42,918.85,548.42Z"/></g><path class="cls-12" d="M1037,536.12H897.56c-2.81,0-5.08-4.86-5.08-10.85s2.27-10.85,5.08-10.85H1037c2.81,0,5.08,4.86,5.08,10.85S1039.85,536.12,1037,536.12Z"/><g class="cls-4"><g class="cls-4"><path class="cls-11" d="M917.64,536.12H897.56c-2.81,0-5.08-4.86-5.08-10.85s2.27-10.85,5.08-10.85h20.08c2.8,0,5.08,4.86,5.08,10.85S920.44,536.12,917.64,536.12Z"/></g></g><g class="cls-4"><path class="cls-11" d="M914.14,526.72H899.49c-.37,0-.68-.65-.68-1.45s.31-1.45.68-1.45h14.65c.38,0,.68.65.68,1.45S914.52,526.72,914.14,526.72Z"/></g></g><rect class="cls-12" x="1073.94" y="510.8" width="129.54" height="68.79"/><g class="cls-13"><rect class="cls-12" x="1162.03" y="510.8" width="41.45" height="68.79"/></g><rect class="cls-14" x="1067.35" y="510.8" width="142.72" height="12.02"/><g class="cls-10"><rect class="cls-14" x="1162.03" y="510.8" width="48.04" height="12.02"/></g><g class="cls-8"><rect class="cls-15" x="1088.64" y="528.17" width="56.15" height="13.11"/></g><rect class="cls-16" x="1093.71" y="457.87" width="99.68" height="52.94"/><g class="cls-10"><rect class="cls-16" x="1093.71" y="457.87" width="31.9" height="52.94"/></g><rect class="cls-17" x="1088.64" y="457.87" width="109.83" height="9.25"/><g class="cls-10"><rect class="cls-18" x="1088.64" y="457.87" width="36.97" height="9.25"/></g><g class="cls-8"><rect class="cls-15" x="1138.88" y="471.23" width="43.21" height="10.09" transform="translate(2320.96 952.55) rotate(180)"/></g><rect class="cls-19" x="870.71" y="579.52" width="369.35" height="7.15"/><g class="cls-8"><path class="cls-9" d="M1807.81,576.52H1668.53c-2.79,0-5.06-5.69-5.06-12.72s2.27-12.73,5.06-12.73h139.28c2.8,0,5.07,5.7,5.07,12.73S1810.61,576.52,1807.81,576.52Z"/><g class="cls-10"><g class="cls-4"><path class="cls-9" d="M1688.59,576.52h-20.06c-2.79,0-5.06-5.69-5.06-12.72s2.27-12.73,5.06-12.73h20.06c2.8,0,5.07,5.7,5.07,12.73S1691.39,576.52,1688.59,576.52Z"/></g></g><g class="cls-4"><path class="cls-9" d="M1685.09,565.49h-14.62c-.38,0-.68-.76-.68-1.69s.3-1.7.68-1.7h14.62c.38,0,.68.76.68,1.7S1685.47,565.49,1685.09,565.49Z"/></g><path class="cls-11" d="M1812.52,551.07H1673.24c-2.8,0-5.07-5.7-5.07-12.73s2.27-12.72,5.07-12.72h139.28c2.79,0,5.06,5.69,5.06,12.72S1815.31,551.07,1812.52,551.07Z"/><g class="cls-4"><g class="cls-4"><path class="cls-11" d="M1693.29,551.07h-20c-2.8,0-5.07-5.7-5.07-12.73s2.27-12.72,5.07-12.72h20c2.8,0,5.07,5.69,5.07,12.72S1696.09,551.07,1693.29,551.07Z"/></g></g><g class="cls-4"><path class="cls-11" d="M1689.8,540h-14.63c-.38,0-.68-.76-.68-1.7s.3-1.69.68-1.69h14.63c.37,0,.67.76.67,1.69S1690.17,540,1689.8,540Z"/></g><path class="cls-12" d="M1807.81,525.62H1668.53c-2.79,0-5.06-5.7-5.06-12.73s2.27-12.73,5.06-12.73h139.28c2.8,0,5.07,5.7,5.07,12.73S1810.61,525.62,1807.81,525.62Z"/><g class="cls-4"><g class="cls-4"><path class="cls-11" d="M1688.59,525.62h-20.06c-2.79,0-5.06-5.7-5.06-12.73s2.27-12.73,5.06-12.73h20.06c2.8,0,5.07,5.7,5.07,12.73S1691.39,525.62,1688.59,525.62Z"/></g></g><g class="cls-4"><path class="cls-11" d="M1685.09,514.59h-14.62c-.38,0-.68-.76-.68-1.7s.3-1.7.68-1.7h14.62c.38,0,.68.76.68,1.7S1685.47,514.59,1685.09,514.59Z"/></g></g><rect class="cls-12" x="1527.35" y="493.95" width="119.59" height="83.1"/><rect class="cls-20" x="1524.66" y="493.95" width="124.96" height="22.78"/><g class="cls-4"><rect class="cls-12" x="1563.57" y="526.53" width="45.87" height="5.06" rx="1.6"/></g><rect class="cls-19" x="1507.18" y="576.52" width="369.35" height="7.15"/><path class="cls-21" d="M2030.51,1142.34a1417.25,1417.25,0,0,1-20.36,140.53c-99.83-.7-202.19-1.24-306.28-1.66-125.77-.51-254.07-.83-383.49-1h-7.08l-71.6-.1-33.17,0h-6.71c-193.31-.23-388.13-.26-579.81-.33l-34.08,0H586q-86.28,0-171.48-.09h-1.94c-132.08-.09-261.79-.24-387.55-.54,0-.08-28.28-51.65-24.72-136.68Z"/><path class="cls-22" d="M1338.83,1156.13V753A58.92,58.92,0,0,0,1280,694.18H869.81A58.91,58.91,0,0,0,811,753v403.1H780.61v15h6.54v-8.49h36.31v8.49H830v-15H817.5V753a52.37,52.37,0,0,1,52.31-52.31H1280A52.37,52.37,0,0,1,1332.29,753v403.1h-33.35v15h6.54v-8.49h60.16v8.49h6.53v-15Z"/><path class="cls-7" d="M985.64,763.17c-7.63-8-25.78-21.76-62.49-25.45V715.79H920a10.8,10.8,0,1,1,10.79-11.56l0,0h4.59a15.44,15.44,0,1,0-18.56,15.88v17.64c-36.72,3.69-54.87,17.44-62.49,25.45A6.84,6.84,0,0,0,853,770.7a7,7,0,0,0,6.42,4.24H980.56A7,7,0,0,0,987,770.7,6.87,6.87,0,0,0,985.64,763.17Zm-4.32,5.1a.78.78,0,0,1-.76.5H859.42a.75.75,0,0,1-.75-.5.71.71,0,0,1,.14-.84c7.21-7.57,24.73-20.7,61.18-23.8,36.46,3.1,54,16.23,61.18,23.8A.73.73,0,0,1,981.32,768.27Z"/><path class="cls-16" d="M958.86,1009.83c10.63-1.1,28.45-3.83,37.09-5.74,0,0-5.94-82.73-35.18-149.52,0,0-5.27-9.11,6-104.88,0,0-6.26-6.53-19.66-8.14h0c-11.7,25.28-42.72,25.28-54.43,0h0c-13.39,1.61-19.66,8.14-19.66,8.14,11.26,95.77,6.21,104.88,6.21,104.88C850,921.36,844,1004.09,844,1004.09c27.78,6.13,68.61,8.12,104.85,6Z"/><polygon class="cls-22" points="920.98 700.72 935.1 700.72 935.1 694.18 920.1 694.18 920.98 700.72"/><path class="cls-7" d="M1060.64,763.17c-7.63-8-25.78-21.76-62.49-25.45V715.79H995a10.8,10.8,0,1,1,10.79-11.56l0,0h4.58a15.43,15.43,0,1,0-18.56,15.88v17.64c-36.72,3.69-54.86,17.44-62.49,25.45A6.85,6.85,0,0,0,928,770.7a7,7,0,0,0,6.42,4.24h121.14a7,7,0,0,0,6.43-4.24A6.85,6.85,0,0,0,1060.64,763.17Zm-4.32,5.1a.78.78,0,0,1-.76.5H934.42a.77.77,0,0,1-.75-.5.7.7,0,0,1,.15-.84c7.2-7.57,24.72-20.7,61.17-23.8,36.46,3.1,54,16.23,61.18,23.8A.73.73,0,0,1,1056.32,768.27Z"/><path class="cls-23" d="M1033.86,983.77c10.63-1,28.45-3.46,37.09-5.19,0,0-5.94-74.69-35.18-135,0,0-5.26-8.22,6-94.69,0,0-6.27-5.9-19.67-7.35h0c-11.7,22.82-42.72,22.82-54.43,0h0C954.28,743,948,748.9,948,748.9c11.26,86.47,6.21,94.69,6.21,94.69-29.24,60.3-35.18,135-35.18,135,27.79,5.54,68.61,7.34,104.85,5.39Z"/><polygon class="cls-22" points="995.98 700.72 1010.1 700.72 1010.1 694.18 995.1 694.18 995.98 700.72"/><path class="cls-7" d="M1137.55,763.17c-7.63-8-25.78-21.76-62.49-25.45V715.79h-3.16a10.8,10.8,0,1,1,10.79-11.56l0,0h4.59a15.44,15.44,0,1,0-18.56,15.88v17.64c-36.72,3.69-54.87,17.44-62.49,25.45a6.84,6.84,0,0,0-1.35,7.53,7,7,0,0,0,6.42,4.24h121.14a7,7,0,0,0,6.43-4.24A6.87,6.87,0,0,0,1137.55,763.17Zm-4.32,5.1a.78.78,0,0,1-.76.5H1011.33a.78.78,0,0,1-.76-.5.73.73,0,0,1,.15-.84c7.21-7.57,24.73-20.7,61.18-23.8,36.45,3.1,54,16.23,61.18,23.8A.73.73,0,0,1,1133.23,768.27Z"/><path class="cls-12" d="M1110.77,971c10.63-.94,28.44-3.28,37.09-4.91,0,0-5.94-70.74-35.18-127.85,0,0-5.27-7.79,6-89.68,0,0-6.26-5.58-19.66-7h0c-11.71,21.61-42.72,21.61-54.43,0h0c-13.39,1.38-19.66,7-19.66,7,11.26,81.89,6.21,89.68,6.21,89.68C1001.89,895.3,996,966,996,966c27.78,5.25,68.61,7,104.85,5.1Z"/><polygon class="cls-22" points="1072.89 700.72 1087.01 700.72 1087.01 694.18 1072.01 694.18 1072.89 700.72"/><path class="cls-7" d="M1214.45,763.17c-7.63-8-25.77-21.76-62.49-25.45V715.79h-3.15a10.8,10.8,0,1,1,10.78-11.56l0,0h4.59a15.44,15.44,0,1,0-18.57,15.88v17.64c-36.71,3.69-54.86,17.44-62.49,25.45a6.87,6.87,0,0,0-1.35,7.53,7,7,0,0,0,6.43,4.24h121.14a7,7,0,0,0,6.42-4.24A6.84,6.84,0,0,0,1214.45,763.17Zm-4.32,5.1a.75.75,0,0,1-.75.5H1088.24a.78.78,0,0,1-.76-.5.73.73,0,0,1,.15-.84c7.2-7.57,24.72-20.7,61.18-23.8,36.45,3.1,54,16.23,61.18,23.8A.71.71,0,0,1,1210.13,768.27Z"/><path class="cls-24" d="M1187.67,1063.31a362.15,362.15,0,0,0,37.09-6.89s-5.94-99.22-35.18-179.32c0,0-5.26-10.93,6-125.79,0,0-6.27-7.83-19.66-9.76h0c-11.71,30.31-42.73,30.31-54.43,0h0c-13.4,1.93-19.66,9.76-19.66,9.76,11.26,114.86,6.2,125.79,6.2,125.79-29.24,80.1-35.18,179.32-35.18,179.32,27.79,7.36,68.61,9.75,104.86,7.16Z"/><polygon class="cls-22" points="1149.8 700.72 1163.92 700.72 1163.92 694.18 1148.92 694.18 1149.8 700.72"/><path class="cls-7" d="M1291.36,763.17c-7.63-8-25.77-21.76-62.49-25.45V715.79h-3.15a10.8,10.8,0,1,1,10.78-11.56l0,0h4.59a15.44,15.44,0,1,0-18.57,15.88v17.64c-36.72,3.69-54.86,17.44-62.49,25.45a6.85,6.85,0,0,0-1.35,7.53,7,7,0,0,0,6.43,4.24h121.14a7,7,0,0,0,6.42-4.24A6.85,6.85,0,0,0,1291.36,763.17Zm-4.32,5.1a.77.77,0,0,1-.75.5H1165.15a.78.78,0,0,1-.76-.5.73.73,0,0,1,.15-.84c7.2-7.57,24.72-20.7,61.18-23.8,36.45,3.1,54,16.23,61.17,23.8A.7.7,0,0,1,1287,768.27Z"/><path class="cls-25" d="M1264.58,971c10.63-.94,28.45-3.28,37.09-4.91,0,0-5.94-70.74-35.18-127.85,0,0-5.26-7.79,6-89.68,0,0-6.27-5.58-19.66-7h0c-11.71,21.61-42.73,21.61-54.44,0h0c-13.39,1.38-19.66,7-19.66,7,11.26,81.89,6.21,89.68,6.21,89.68C1155.7,895.3,1149.76,966,1149.76,966c27.79,5.25,68.61,7,104.85,5.1Z"/><polygon class="cls-22" points="1226.7 700.72 1240.82 700.72 1240.82 694.18 1225.83 694.18 1226.7 700.72"/><path class="cls-22" d="M1948.55,1156.13V753a58.91,58.91,0,0,0-58.84-58.85H1479.54A58.92,58.92,0,0,0,1420.69,753v403.1h-30.35v15h6.53v-8.49H1457v8.49h6.54v-15h-36.34V753a52.36,52.36,0,0,1,52.31-52.31h410.17A52.37,52.37,0,0,1,1942,753v403.1h-33.35v15h6.54v-8.49h60.16v8.49h6.53v-15Z"/><path class="cls-7" d="M1603.3,763.17c-7.63-8-25.78-21.76-62.49-25.45V715.79h-3.16a10.8,10.8,0,1,1,10.79-11.56l0,0h4.58a15.43,15.43,0,1,0-18.56,15.88v17.64c-36.72,3.69-54.86,17.44-62.49,25.45a6.84,6.84,0,0,0-1.35,7.53,7,7,0,0,0,6.42,4.24h121.14a7,7,0,0,0,6.43-4.24A6.87,6.87,0,0,0,1603.3,763.17Zm-4.32,5.1a.78.78,0,0,1-.76.5H1477.08a.76.76,0,0,1-.75-.5.71.71,0,0,1,.14-.84c7.21-7.57,24.73-20.7,61.18-23.8,36.46,3.1,54,16.23,61.18,23.8A.73.73,0,0,1,1599,768.27Z"/><polygon class="cls-22" points="1538.64 700.72 1552.76 700.72 1552.76 694.18 1537.76 694.18 1538.64 700.72"/><path class="cls-25" d="M1579.32,745.41a44.66,44.66,0,0,0-14.56-3.86l0,.05-.54-.05,0,.82c-7.53,10-48.19,9.7-53.89-.82,0,0-.53,0-1.49.17a46.53,46.53,0,0,0-9.58,2.26,70.62,70.62,0,0,0-25.14,14.14s17.63,21.48,18.1,21.48a18.71,18.71,0,0,0,1.84-.62c2.79,31.15,3.92,88.68,4.09,98h79.23c.13-9.33.89-66.75,3.65-97.82a10.72,10.72,0,0,0,1.26.41c.47,0,18.11-21.48,18.11-21.48A70.6,70.6,0,0,0,1579.32,745.41Z"/><path class="cls-7" d="M1676.6,763.17c-7.63-8-25.78-21.76-62.49-25.45V715.79H1611a10.8,10.8,0,1,1,10.79-11.56l0,0h4.59a15.44,15.44,0,1,0-18.56,15.88v17.64c-36.72,3.69-54.87,17.44-62.49,25.45a6.84,6.84,0,0,0-1.35,7.53,7,7,0,0,0,6.42,4.24h121.14a7,7,0,0,0,6.43-4.24A6.87,6.87,0,0,0,1676.6,763.17Zm-4.32,5.1a.78.78,0,0,1-.76.5H1550.38a.78.78,0,0,1-.76-.5.73.73,0,0,1,.15-.84c7.21-7.57,24.73-20.7,61.18-23.8,36.45,3.1,54,16.23,61.18,23.8A.73.73,0,0,1,1672.28,768.27Z"/><polygon class="cls-22" points="1611.94 700.72 1626.06 700.72 1626.06 694.18 1611.06 694.18 1611.94 700.72"/><path class="cls-26" d="M1652.62,745.41a44.74,44.74,0,0,0-14.56-3.86l0,.05-.55-.05,0,.82c-7.53,10-48.19,9.7-53.89-.82,0,0-.54,0-1.49.17a46.8,46.8,0,0,0-9.59,2.26,70.79,70.79,0,0,0-25.14,14.14s17.64,21.48,18.11,21.48c.09,0,.79-.24,1.84-.62,2.79,31.15,3.91,77.41,4.08,86.76h79.24c.13-9.33.88-55.48,3.64-86.55a11.2,11.2,0,0,0,1.27.41c.47,0,18.11-21.48,18.11-21.48A70.72,70.72,0,0,0,1652.62,745.41Z"/><path class="cls-7" d="M1749.89,763.17c-7.62-8-25.77-21.76-62.49-25.45V715.79h-3.15A10.8,10.8,0,1,1,1695,704.22l0,0h4.59a15.44,15.44,0,1,0-18.57,15.88v17.64c-36.71,3.69-54.86,17.44-62.49,25.45a6.87,6.87,0,0,0-1.35,7.53,7,7,0,0,0,6.43,4.24h121.14a7,7,0,0,0,6.42-4.24A6.84,6.84,0,0,0,1749.89,763.17Zm-4.32,5.1a.75.75,0,0,1-.75.5H1623.68a.78.78,0,0,1-.76-.5.73.73,0,0,1,.15-.84c7.2-7.57,24.73-20.7,61.18-23.8,36.45,3.1,54,16.23,61.18,23.8A.71.71,0,0,1,1745.57,768.27Z"/><polygon class="cls-22" points="1685.24 700.72 1699.36 700.72 1699.36 694.18 1684.36 694.18 1685.24 700.72"/><path class="cls-24" d="M1725.92,745.41a44.74,44.74,0,0,0-14.56-3.86l0,.05-.55-.05,0,.82c-7.53,10-48.19,9.7-53.89-.82,0,0-.54,0-1.49.17a46.8,46.8,0,0,0-9.59,2.26,70.79,70.79,0,0,0-25.14,14.14s17.64,21.48,18.11,21.48c.09,0,.78-.24,1.83-.62,2.8,31.15,3.76,85.14,3.93,94.49h79.23c.13-9.33,1-63.21,3.81-94.28a10.53,10.53,0,0,0,1.27.41c.47,0,18.1-21.48,18.1-21.48A70.69,70.69,0,0,0,1725.92,745.41Z"/><path class="cls-7" d="M1823.19,763.17c-7.63-8-25.77-21.76-62.49-25.45V715.79h-3.15a10.8,10.8,0,1,1,10.78-11.56l0,0H1773a15.44,15.44,0,1,0-18.57,15.88v17.64c-36.71,3.69-54.86,17.44-62.49,25.45a6.87,6.87,0,0,0-1.35,7.53,7,7,0,0,0,6.43,4.24h121.14a7,7,0,0,0,6.42-4.24A6.85,6.85,0,0,0,1823.19,763.17Zm-4.32,5.1a.77.77,0,0,1-.75.5H1697a.78.78,0,0,1-.76-.5.73.73,0,0,1,.15-.84c7.2-7.57,24.72-20.7,61.18-23.8,36.45,3.1,54,16.23,61.17,23.8A.7.7,0,0,1,1818.87,768.27Z"/><polygon class="cls-22" points="1758.54 700.72 1772.65 700.72 1772.65 694.18 1757.66 694.18 1758.54 700.72"/><path class="cls-21" d="M1799.22,745.41a44.74,44.74,0,0,0-14.56-3.86l0,.05-.54-.05,0,.82c-7.53,10-48.19,9.7-53.9-.82,0,0-.53,0-1.49.17a46.69,46.69,0,0,0-9.58,2.26A70.79,70.79,0,0,0,1694,758.12s17.64,21.48,18.11,21.48c.09,0,.78-.24,1.83-.62,2.79,31.15,3.76,77.41,3.93,86.76h79.23c.13-9.33,1.05-55.48,3.81-86.55a10.53,10.53,0,0,0,1.27.41c.47,0,18.1-21.48,18.1-21.48A70.69,70.69,0,0,0,1799.22,745.41Z"/><path class="cls-7" d="M1896.49,763.17c-7.63-8-25.78-21.76-62.49-25.45V715.79h-3.16a10.8,10.8,0,1,1,10.79-11.56l0,0h4.58a15.43,15.43,0,1,0-18.56,15.88v17.64c-36.72,3.69-54.86,17.44-62.49,25.45a6.85,6.85,0,0,0-1.35,7.53,7,7,0,0,0,6.42,4.24h121.14a7,7,0,0,0,6.43-4.24A6.85,6.85,0,0,0,1896.49,763.17Zm-4.32,5.1a.78.78,0,0,1-.76.5H1770.27a.77.77,0,0,1-.75-.5.7.7,0,0,1,.15-.84c7.2-7.57,24.72-20.7,61.17-23.8,36.46,3.1,54,16.23,61.18,23.8A.73.73,0,0,1,1892.17,768.27Z"/><polygon class="cls-22" points="1831.83 700.72 1845.95 700.72 1845.95 694.18 1830.95 694.18 1831.83 700.72"/><path class="cls-23" d="M1872.51,745.41a44.66,44.66,0,0,0-14.56-3.86l0,.05-.54-.05,0,.82c-7.54,10-48.2,9.7-53.9-.82,0,0-.53,0-1.49.17a46.53,46.53,0,0,0-9.58,2.26,70.62,70.62,0,0,0-25.14,14.14s17.64,21.48,18.11,21.48c.09,0,.78-.24,1.83-.62,2.79,31.15,3.92,88.68,4.09,98h79.23c.13-9.33.89-66.75,3.65-97.82a11.43,11.43,0,0,0,1.26.41c.47,0,18.11-21.48,18.11-21.48A70.6,70.6,0,0,0,1872.51,745.41Z"/><path class="cls-27" d="M1667.13,1123.2h-90.81a9.17,9.17,0,0,0,0,18.33h90.81a9.17,9.17,0,0,0,0-18.33Z"/><path class="cls-28" d="M1667.13,1123.2h-90.81a9.17,9.17,0,0,0,0,18.33h90.81a9.17,9.17,0,0,0,0-18.33Z"/><g class="cls-29"><g class="cls-4"><path class="cls-28" d="M1612.56,1123.2h-36.24a9.17,9.17,0,0,0,0,18.33h36.24a9.17,9.17,0,0,0,0-18.33Z"/></g></g><g class="cls-4"><g class="cls-8"><path class="cls-28" d="M1606.25,1131.14h-26.44a1.23,1.23,0,0,0,0,2.45h26.44a1.23,1.23,0,0,0,0-2.45Z"/></g></g><path class="cls-27" d="M1667.13,1104.88h-90.81a9.16,9.16,0,1,0,0,18.32h90.81a9.16,9.16,0,0,0,0-18.32Z"/><path class="cls-30" d="M1667.13,1104.88h-90.81a9.16,9.16,0,1,0,0,18.32h90.81a9.16,9.16,0,0,0,0-18.32Z"/><g class="cls-4"><path class="cls-30" d="M1612.56,1104.88h-36.24a9.16,9.16,0,1,0,0,18.32h36.24a9.16,9.16,0,1,0,0-18.32Z"/></g><g class="cls-8"><g class="cls-10"><path class="cls-28" d="M1606.25,1112.82h-26.44a1.22,1.22,0,0,0,0,2.44h26.44a1.22,1.22,0,0,0,0-2.44Z"/></g></g><path class="cls-27" d="M1667.13,1086.56h-90.81a9.16,9.16,0,1,0,0,18.32h90.81a9.16,9.16,0,0,0,0-18.32Z"/><path class="cls-28" d="M1667.13,1086.56h-90.81a9.16,9.16,0,1,0,0,18.32h90.81a9.16,9.16,0,0,0,0-18.32Z"/><g class="cls-29"><g class="cls-4"><path class="cls-28" d="M1612.56,1086.56h-36.24a9.16,9.16,0,1,0,0,18.32h36.24a9.16,9.16,0,0,0,0-18.32Z"/></g></g><path class="cls-28" d="M1606.25,1094.5h-26.44a1.22,1.22,0,1,0,0,2.44h26.44a1.22,1.22,0,1,0,0-2.44Z"/><path class="cls-27" d="M1786.09,1123.2h-90.81a9.17,9.17,0,0,0,0,18.33h90.81a9.17,9.17,0,0,0,0-18.33Z"/><path class="cls-28" d="M1786.09,1123.2h-90.81a9.17,9.17,0,0,0,0,18.33h90.81a9.17,9.17,0,0,0,0-18.33Z"/><g class="cls-29"><g class="cls-4"><path class="cls-28" d="M1731.52,1123.2h-36.24a9.17,9.17,0,0,0,0,18.33h36.24a9.17,9.17,0,1,0,0-18.33Z"/></g></g><g class="cls-4"><g class="cls-8"><path class="cls-28" d="M1725.21,1131.14h-26.44a1.23,1.23,0,0,0,0,2.45h26.44a1.23,1.23,0,0,0,0-2.45Z"/></g></g><path class="cls-27" d="M1786.09,1104.88h-90.81a9.16,9.16,0,0,0,0,18.32h90.81a9.16,9.16,0,1,0,0-18.32Z"/><path class="cls-30" d="M1786.09,1104.88h-90.81a9.16,9.16,0,0,0,0,18.32h90.81a9.16,9.16,0,1,0,0-18.32Z"/><g class="cls-4"><path class="cls-30" d="M1731.52,1104.88h-36.24a9.16,9.16,0,0,0,0,18.32h36.24a9.16,9.16,0,1,0,0-18.32Z"/></g><g class="cls-8"><g class="cls-10"><path class="cls-28" d="M1725.21,1112.82h-26.44a1.22,1.22,0,0,0,0,2.44h26.44a1.22,1.22,0,0,0,0-2.44Z"/></g></g><path class="cls-27" d="M1786.09,1086.56h-90.81a9.16,9.16,0,0,0,0,18.32h90.81a9.16,9.16,0,0,0,0-18.32Z"/><path class="cls-28" d="M1786.09,1086.56h-90.81a9.16,9.16,0,0,0,0,18.32h90.81a9.16,9.16,0,0,0,0-18.32Z"/><g class="cls-29"><g class="cls-4"><path class="cls-28" d="M1731.52,1086.56h-36.24a9.16,9.16,0,0,0,0,18.32h36.24a9.16,9.16,0,1,0,0-18.32Z"/></g></g><path class="cls-28" d="M1725.21,1094.5h-26.44a1.22,1.22,0,1,0,0,2.44h26.44a1.22,1.22,0,1,0,0-2.44Z"/><path class="cls-22" d="M1814.46,1160.7v-65.84a41.07,41.07,0,0,0-41-41H1592.19a41.07,41.07,0,0,0-41,41v65.84H1530v10.48h4.56v-5.92h41.94v5.92h4.55V1160.7h-25.33v-65.84a36.51,36.51,0,0,1,36.47-36.47h181.24a36.51,36.51,0,0,1,36.47,36.47v65.84h-23.25v10.48h4.56v-5.92h41.94v5.92h4.55V1160.7Z"/><rect class="cls-22" x="1551.16" y="1141.53" width="260.64" height="4.16"/><rect class="cls-11" x="1678.18" y="995.4" width="84.09" height="58.43"/><rect class="cls-23" x="1676.29" y="995.4" width="87.87" height="16.02"/><rect class="cls-23" x="1703.65" y="1018.32" width="32.26" height="3.56" rx="1.6"/><rect class="cls-12" x="1595.79" y="986.12" width="97.45" height="67.71"/><rect class="cls-20" x="1593.6" y="986.12" width="101.83" height="18.56"/><g class="cls-4"><rect class="cls-12" x="1625.31" y="1012.68" width="37.38" height="4.12" rx="1.6"/></g><path class="cls-16" d="M96.37,1063.4s36,21.82,50,36.29c0,0-12.26-35.8-18.15-45.61,0,0,16.43,20.84,21.82,29.91,0,0,15-31.13,24.52-39,0,0-17.41,40.45-16.91,48.3,0,0,13.73-25.5,25-31.63,0,0-18.63,36.29-19.37,45.61,0,0,24.28-32.37,40-42.67l-21.82,42.67-17.9,13.24-25.25-5.89S106.67,1071.49,96.37,1063.4Z"/><path class="cls-12" d="M138.54,1122s-20.6-14-27.71-35.8c0,0,20.85,12,32.37,27.46,0,0,4.9-35.06,2.94-49,0,0,17.41,27,21.09,46.83,0,0,22.31-26.23,43.64-34.08L176.05,1122Z"/><path class="cls-24" d="M116.1,1112.34h82.45a0,0,0,0,1,0,0v44.4a11.72,11.72,0,0,1-11.72,11.72h-59a11.72,11.72,0,0,1-11.72-11.72v-44.4A0,0,0,0,1,116.1,1112.34Z"/><rect class="cls-28" x="1023.75" y="608.09" width="111.51" height="41.1"/><path class="cls-7" d="M1057.55,633.87a7,7,0,0,0,3.52,1c2,0,3.19-1.06,3.19-2.6s-.82-2.23-2.87-3c-2.48-.88-4-2.17-4-4.31,0-2.37,2-4.13,4.92-4.13a6.92,6.92,0,0,1,3.36.74l-.54,1.61a6,6,0,0,0-2.89-.73c-2.07,0-2.86,1.25-2.86,2.28,0,1.43.92,2.12,3,2.94,2.58,1,3.88,2.23,3.88,4.47s-1.73,4.37-5.32,4.37a7.85,7.85,0,0,1-3.88-1Z"/><path class="cls-7" d="M1071.41,631.47l-1.58,4.79h-2l5.17-15.21h2.37l5.19,15.21h-2.1l-1.63-4.79Zm5-1.53-1.49-4.38c-.34-1-.57-1.89-.79-2.78h0c-.22.91-.47,1.83-.77,2.76l-1.49,4.4Z"/><path class="cls-7" d="M1082.76,621.05h2v13.56h6.5v1.65h-8.46Z"/><path class="cls-7" d="M1101.29,629.13h-5.92v5.48H1102v1.65h-8.55V621.05h8.21v1.64h-6.25v4.81h5.92Z"/><rect class="cls-31" x="1033.16" y="649.19" width="2.32" height="44.99"/><rect class="cls-31" x="1123.29" y="649.19" width="2.32" height="44.99"/><rect class="cls-28" x="1630.01" y="608.09" width="111.51" height="41.1"/><path class="cls-7" d="M1663.81,633.87a7,7,0,0,0,3.52,1c2,0,3.19-1.06,3.19-2.6s-.82-2.23-2.87-3c-2.48-.88-4-2.17-4-4.31,0-2.37,2-4.13,4.92-4.13a7,7,0,0,1,3.37.74l-.55,1.61a6,6,0,0,0-2.88-.73c-2.08,0-2.87,1.25-2.87,2.28,0,1.43.92,2.12,3,2.94,2.58,1,3.89,2.23,3.89,4.47s-1.74,4.37-5.33,4.37a7.85,7.85,0,0,1-3.88-1Z"/><path class="cls-7" d="M1677.67,631.47l-1.58,4.79h-2l5.17-15.21h2.37l5.19,15.21h-2.1l-1.63-4.79Zm5-1.53-1.49-4.38c-.34-1-.57-1.89-.79-2.78h-.05c-.22.91-.47,1.83-.76,2.76l-1.49,4.4Z"/><path class="cls-7" d="M1689,621.05h2v13.56h6.5v1.65H1689Z"/><path class="cls-7" d="M1707.55,629.13h-5.92v5.48h6.59v1.65h-8.55V621.05h8.21v1.64h-6.25v4.81h5.92Z"/><rect class="cls-31" x="1639.42" y="649.19" width="2.32" height="44.99"/><rect class="cls-31" x="1729.55" y="649.19" width="2.32" height="44.99"/><path class="cls-7" d="M756.59,975.94a9.26,9.26,0,0,0-9,7,9.26,9.26,0,0,0-16.44,2.92,9.26,9.26,0,0,0-16.72,2.23,9.26,9.26,0,0,0-17.26,2.72,9.27,9.27,0,0,0-17.54.71,9.26,9.26,0,0,0-17.16-1A9.26,9.26,0,0,0,645,988.75a9.27,9.27,0,1,0,0,7.51,9.27,9.27,0,0,0,16.85.2,9.27,9.27,0,0,0,17.94.63,9.26,9.26,0,0,0,17.89-1.26,9.26,9.26,0,0,0,17.51-.64,9.26,9.26,0,0,0,17.08-1.91,9.26,9.26,0,0,0,16.83-2.67,9.26,9.26,0,1,0,7.52-14.67Z"/><path class="cls-22" d="M605.41,839.46l.21-.9c-7.88-1.83-21.47-19.83-21.61-20l-.74.56C583.84,819.86,597.2,837.56,605.41,839.46Z"/><path class="cls-32" d="M563.44,740.08s7.21,2.82,13.65,13.36,31.34,46,31.34,46l39.9-27.5a40.77,40.77,0,0,1,18.24-6.9l13.4-1.62.51-.49c1.5,0,4.52-.21,8-.25.21,3,.46,5.26.82,5.29l0,.65a.59.59,0,0,0,.16.44c-.14,3-.4,6.88-.41,10.12,0,2.3.74,4.25-1.07,5.53-1,.74-6.74,1-8.77,1l-13.65,1.79v-.08c-9.93,11-48.86,53.14-59.07,51.79-11.74-1.56-41.3-45.05-41.3-45.05s3.94-11.75,4.14-19C569.34,775.15,567,770.69,563.44,740.08Z"/><path class="cls-33" d="M532.42,1220.64l-.35-22.79c-.64-7-23.23-256-23.92-276.47.61-10.91,17.06-32.39,25.9-36,20.15-6.83,37.39,14.52,36.9,49.76-1.86,135.58-6.49,255.26-7,260.25l.43,24.84Z"/><polygon class="cls-32" points="407.81 1153.53 435.98 1168.86 416.82 1196.56 390.61 1178.28 407.81 1153.53"/><path class="cls-7" d="M436.87,1223.28l-52.64-37.79a.85.85,0,0,1-.2-1.2l2.46-3.43a1.27,1.27,0,0,1,1.76-.29l22.64,16.25,16.36-3.41,9.61,22,3.62,2.6a3.24,3.24,0,0,1,1.13,4A3.17,3.17,0,0,1,436.87,1223.28Z"/><path class="cls-34" d="M395.1,1171.45s7.5-2.39,11.42,4.39c0,0,4.31,12.53,17.46,10.55l13.11,22.33s4,5.54,3.4,9.39l-52.06-37.37Z"/><path d="M440.42,1218.34,388.37,1181a1.36,1.36,0,0,0-1.89.32l-1.85,2.56-.38-.27,1.84-2.57a1.83,1.83,0,0,1,2.55-.42L440.7,1218a3.41,3.41,0,0,1-1.72,6.17l0-.47a2.94,2.94,0,0,0,1.47-5.31Z"/><path d="M423.78,1186.51l.41-.24c.11.2,11.71,20,14.39,24.38s2.23,7.42,2.21,7.54l-.47-.09s.48-2.88-2.15-7.21S423.9,1186.71,423.78,1186.51Z"/><path class="cls-7" d="M531.44,1230.23a.87.87,0,0,1-.86-.87v-4.22a1.26,1.26,0,0,1,1.26-1.26h27.87l11.3-12.31,20.66,12.31h4.46a3.24,3.24,0,0,1,3.22,2.55,3.18,3.18,0,0,1-3.11,3.8Z"/><path class="cls-34" d="M543.93,1209.39s10.8,7.66,20.33-1.62l23.66,10.5s6.49,2.17,8.25,5.65H532.09v-11.44S536.78,1206.16,543.93,1209.39Z"/><rect x="531.85" y="1212.48" width="0.47" height="11.38"/><path d="M544.06,1209.19a16.8,16.8,0,0,0,11,2.86l.07.47a9.86,9.86,0,0,1-1.47.08,17.5,17.5,0,0,1-9.82-3Z"/><rect x="536.23" y="1218.74" width="0.47" height="3.65" transform="translate(-775.47 983.05) rotate(-56.01)"/><rect x="538.4" y="1218.17" width="0.47" height="3.65" transform="translate(-773.99 984.39) rotate(-56)"/><path d="M530.34,1228.66v-3.17a1.83,1.83,0,0,1,1.83-1.82h64.07a3.41,3.41,0,0,1,2.21,6l-.31-.37a2.93,2.93,0,0,0-1.9-5.17H532.17a1.35,1.35,0,0,0-1.35,1.35v3.17Z"/><path d="M590.08,1219.4c-4.77-2-25.7-11.32-25.91-11.41l.19-.43c.21.09,21.14,9.38,25.9,11.41s6.14,4.72,6.2,4.83l-.43.21S594.74,1221.39,590.08,1219.4Z"/><path class="cls-32" d="M486.82,900c101.06,26.4,87.27-13,70.65,86.85-18.15,88.2-6.54,43.81-128.35,191.91l-26-18.51s77.36-129.79,77.59-130.15C480.58,1034.5,486.77,900.11,486.82,900Z"/><path class="cls-22" d="M447.34,1016.39c40.15,14.41,137.3,5.52,137.3,5.52,1.43-28.13,4.05-72,6.43-100.52,2.71-32.53-7.07-68.83-11-81.8a15.57,15.57,0,0,1,.18-9.64c5.25-15.15,9.65-35.38,6.53-51.06-2.51-12.63-13.79-28.24-19.68-35.74a11.62,11.62,0,0,0-9.11-4.43c-12.89,0-42-.07-60.78.66-8.12.32-14.31,7.08-14.62,7.71-1.23,2.45,21.45,71.33,24.51,79,1.35,3.39-1.36,13.07-6,25.76-6,16.32-15.38,37.92-22.86,55.85C462.27,945.87,447.34,1016.39,447.34,1016.39Z"/><path class="cls-32" d="M555.21,738.72s8.28,20.56,2.76,26.38-16.55,4.45-21.19,2.62c-7.92-3.13-27.53-28.64-27.53-28.64l24.62-1.15Z"/><path class="cls-32" d="M500.09,739.28s11.07,26.17,12,33.83-1.51,27.41-13.66,28.09l-7.86-23-7.18-30.7,7.85-1.07Z"/><path class="cls-32" d="M500.09,739.28c-4.56,0-17.23-.06-21.46,7.13-4.73,8-30.65,69.87-30.65,69.87L387.3,833.13l-3.95,18.35s74.44-.88,83-10.07,34.3-61.81,34.3-61.81Z"/><path class="cls-22" d="M591.71,919c.65-41.21-7.81-68.54-10.59-77.52-.26-.82-.46-1.47-.6-2-1.41-4.86-.37-8.12,1.92-15.26.49-1.54,1-3.27,1.65-5.24,3.37-11.07,6-27.44,3.14-40.17-1.82-8.18-5.84-16.58-11.94-25l-8.76-12-.75.55s2.21,3,8.76,12c6,8.27,10,16.55,11.79,24.61,2.79,12.56.21,28.74-3.13,39.7-.6,2-1.15,3.69-1.65,5.22-2.34,7.33-3.41,10.67-1.92,15.81.14.51.35,1.16.6,2,2.77,8.94,11.2,36.16,10.55,77.22Z"/><path class="cls-22" d="M473.54,831.84c3-4.76,25.43-47.84,26.39-49.67l-.83-.43c-.23.45-23.37,44.88-26.35,49.6Z"/><g class="cls-35"><path class="cls-36" d="M541.52,813.28c7.43-.33,22.12-3.8,22.94,11.88s-15.43,15.68,1.7,39.62,23.66,71.11,23.73,71.62c.39-5.19.78-10.23,1.18-15,2.71-32.53-7.07-68.83-11-81.8a15.57,15.57,0,0,1,.18-9.64c2.62-7.55,7.28-23.05,7.56-38.16-.6,2.73-3.49,10.33-16.85,9.41-16.24-1.13-28.45-4.43-42,2.83S534.09,813.61,541.52,813.28Z"/></g><path class="cls-22" d="M447.8,1016.49c14.44-68.57,29.65-105.73,29.81-106.1,2.06-5.52,6.4-16,11-27.09,5.25-12.7,11.21-27.09,14.7-36.33,6.12-16.24,4.51-20.5,4.22-21.07l-12.21-35.22-.88.31,12.24,35.3,0,.05s2,3.74-4.27,20.3c-3.48,9.23-9.44,23.61-14.69,36.3-4.6,11.1-8.94,21.59-11,27.11-.14.36-15.39,37.58-29.85,106.25Z"/><path class="cls-7" d="M616,822.25a7.18,7.18,0,0,0,6.85,3.93l55.78-3.48,3.53-.22,5.47-.34,6.09-.38L747,818.44a7.16,7.16,0,0,0,6.31-4.76,7,7,0,0,0-1.86-7.62c-8.33-7.72-27.79-20.64-65.64-22.07l-1.13-18.08a15.85,15.85,0,1,0-20-15.08l4.7-.29,0,0a11.1,11.1,0,1,1,11.79,11.15l-3.23.22.14,2.28.13,2.1,1.13,18.08c-37.37,6.12-55.08,21.37-62.39,30.06A7.05,7.05,0,0,0,616,822.25Zm5.75-3.73c6.9-8.21,24-22.77,61.15-28.29,37.54.86,56.32,13.19,64.19,20.47a.75.75,0,0,1,.2.86.79.79,0,0,1-.74.56l-53.23,3.32h0l-15.09.94h0l-55.77,3.48a.8.8,0,0,1-.81-.47A.76.76,0,0,1,621.77,818.52Z"/><path class="cls-25" d="M661.36,995.65c-9.76-.26-26.15-1.38-34.13-2.37,0,0,1.6-65.94,25-119.72,0,0,3.11-3.39-11.83-77.48,0,0,5.4-5.45,17.55-7.47,0,0,2.17,17.88,20.76,18.92l6.88-.43,6.88-.43c18.31-3.34,15.15-21.16,15.15-21.16C720,786,726,790.74,726,790.74c-5.61,75.38.69,78.18.69,78.18,29.93,50.45,39.18,115.71,39.18,115.71-25.06,6.37-62.21,10.24-95.39,10.62Z"/><path class="cls-32" d="M691.62,770.37a2.59,2.59,0,0,1-1.18,2.63l-8.6.89c-1.05.11-2-.87-2.21-2.3s.62-3,1.74-3.06l8.56-.89A4,4,0,0,1,691.62,770.37Z"/><path class="cls-32" d="M692,775.17c.14,1.68-.57,3.07-.84,3.11l-9.26,1.2c-1,.14-2-.82-2.23-2.24s.57-3,1.69-3.11l9.49-1.24A3,3,0,0,1,692,775.17Z"/><path class="cls-22" d="M691.21,773.37a.51.51,0,0,0,.26-.52c0-.28-.21-.49-.41-.47l-9.26,1c-.87.09-1.67-.73-1.8-1.87a2.72,2.72,0,0,1,.3-1.68,1.49,1.49,0,0,1,1.11-.81l8.47-.88a.47.47,0,0,0,.34-.54c0-.28-.21-.49-.41-.47l-8.48.88a2.19,2.19,0,0,0-1.62,1.19,4,4,0,0,0-.44,2.46c.2,1.66,1.34,2.86,2.6,2.73l9.27-1Z"/><path class="cls-32" d="M690.6,764.6c.17,1.67-.58,3.06-.86,3.1l-9.25,1.11c-1,.12-2-.79-2.22-2.18-.25-1.58.55-3,1.7-3.18l8.63-1C689.56,762.29,690.5,763.63,690.6,764.6Z"/><path class="cls-22" d="M689.85,768.13a.52.52,0,0,0,.25-.53c0-.27-.21-.48-.41-.45l-9.25,1.16c-.87.1-1.67-.7-1.82-1.84a2.72,2.72,0,0,1,.29-1.68A1.44,1.44,0,0,1,680,764l8.46-1c.21,0,.35-.27.33-.55s-.21-.48-.41-.46l-8.47,1a2.22,2.22,0,0,0-1.61,1.21,4.08,4.08,0,0,0-.42,2.47c.22,1.66,1.37,2.84,2.63,2.69l9.25-1.16Z"/><path class="cls-22" d="M691,778.52a.52.52,0,0,0,.25-.54c0-.28-.21-.48-.42-.45l-9,1.35c-.87.11-1.6-.59-1.75-1.72a2.81,2.81,0,0,1,.28-1.69,1.52,1.52,0,0,1,1.1-.84l9.49-1.24c.2,0,.34-.27.32-.55s-.21-.48-.41-.45l-9.49,1.23a2.2,2.2,0,0,0-1.6,1.23,4,4,0,0,0-.42,2.47c.23,1.65,1.31,2.73,2.58,2.57l9-1.35Z"/><path class="cls-32" d="M669.51,767.91c-.36,1.71.13,4.79.41,4.86l9.58.65a2.36,2.36,0,0,0,2.55-2c.43-1.61-.23-3.21-1.4-3.48l-8.82-2.06C670.85,765.64,669.73,766.91,669.51,767.91Z"/><path class="cls-22" d="M669.66,773.25a.54.54,0,0,1-.2-.58c.06-.28.27-.47.48-.42l9.68.65c.88.21,1.8-.54,2.09-1.69a2.89,2.89,0,0,0-.11-1.78,1.56,1.56,0,0,0-1.05-1l-8.65-2a.5.5,0,0,1-.27-.61c0-.29.26-.48.47-.43l8.65,2a2.27,2.27,0,0,1,1.53,1.44,4.16,4.16,0,0,1,.16,2.6c-.41,1.69-1.74,2.79-3,2.49l-9.68-.66Z"/><path class="cls-32" d="M691.61,780.58c.15,1.56-.5,2.87-.76,2.91l-8.6,1.26c-1,.14-1.91-.74-2.1-2.06s.51-2.77,1.55-2.93l8.82-1.29A2.71,2.71,0,0,1,691.61,780.58Z"/><path class="cls-22" d="M690.86,783.63a.5.5,0,0,0,.25-.54c0-.28-.21-.48-.41-.45l-8.61,1.26c-.8.12-1.54-.6-1.69-1.63a2.56,2.56,0,0,1,.25-1.56,1.38,1.38,0,0,1,1-.78l8.83-1.3c.2,0,.34-.27.32-.55s-.22-.48-.42-.45l-8.82,1.29a2.1,2.1,0,0,0-1.5,1.18,3.85,3.85,0,0,0-.37,2.34c.22,1.56,1.33,2.65,2.51,2.47l8.61-1.26Z"/><path class="cls-32" d="M365.65,842.8c0,2.3-.75,4.25,1.07,5.53,1,.74,6.73,1,8.77,1l12.23,1.6,16-22.36c-8.48.66-12.71.46-15.63.1L374.74,827l-.52-.49c-1.5,0-4.51-.21-8-.25-.22,3-.46,5.26-.82,5.28l0,.66a.61.61,0,0,1-.15.44C365.37,835.71,365.63,839.56,365.65,842.8Z"/><path class="cls-7" d="M437.78,878c-7.3-8.69-25-23.94-62.38-30.06l1.13-18.08.13-2.1.14-2.28-3.23-.22a11.11,11.11,0,1,1,11.78-11.15l0,0,4.7.29a15.84,15.84,0,1,0-20,15.08l-1.13,18.08c-37.84,1.43-57.31,14.35-65.63,22.07a7,7,0,0,0-1.87,7.62,7.19,7.19,0,0,0,6.31,4.76L361,885.35l6.08.38,5.47.34,3.54.22,55.77,3.48a7.17,7.17,0,0,0,6.85-3.93A7,7,0,0,0,437.78,878ZM433,883a.79.79,0,0,1-.8.47L376.46,880h0l-15.1-.94h0l-53.22-3.32a.79.79,0,0,1-.74-.56.75.75,0,0,1,.2-.86c7.86-7.29,26.65-19.61,64.19-20.47,37.14,5.52,54.25,20.08,61.15,28.29A.74.74,0,0,1,433,883Z"/><path class="cls-12" d="M393.35,1059.24c9.75-.26,26.15-1.38,34.12-2.37,0,0-1.59-65.94-25-119.72,0,0-3.11-3.39,11.82-77.48,0,0-5.4-5.45-17.54-7.47,0,0-2.18,17.88-20.76,18.92l-6.88-.43-6.88-.43c-18.31-3.34-15.16-21.16-15.16-21.16-12.3.49-18.33,5.23-18.33,5.23,5.61,75.37-.69,78.18-.69,78.18-29.94,50.45-39.19,115.71-39.19,115.71,25.06,6.37,62.22,10.24,95.4,10.62Z"/><path class="cls-12" d="M336.74,850.7s-16.13,5-29.4,15.55c0,0,5.15,14.26,7.73,23.53l20.49-3.47Z"/><path class="cls-12" d="M407.82,855.53S423.4,862,435.61,873.8c0,0-6.48,13.71-9.93,22.69l-20.07-5.4Z"/><path class="cls-7" d="M317.48,1032.32a4.31,4.31,0,1,1-4.3-4.3A4.3,4.3,0,0,1,317.48,1032.32Z"/><path class="cls-7" d="M383,1028a4.31,4.31,0,1,1-4.3-4.31A4.3,4.3,0,0,1,383,1028Z"/><path class="cls-7" d="M345.35,976.36a4.31,4.31,0,1,1-4.3-4.3A4.31,4.31,0,0,1,345.35,976.36Z"/><path class="cls-7" d="M396.09,985a4.31,4.31,0,1,1-4.31-4.3A4.31,4.31,0,0,1,396.09,985Z"/><circle class="cls-7" cx="384.5" cy="944.51" r="4.3"/><path class="cls-7" d="M351.75,914.64a4.31,4.31,0,1,1-4.31-4.3A4.31,4.31,0,0,1,351.75,914.64Z"/><circle class="cls-7" cx="372.13" cy="888.39" r="4.3"/><path class="cls-7" d="M412.38,874.55a4.31,4.31,0,1,1-4.31-4.31A4.31,4.31,0,0,1,412.38,874.55Z"/><path class="cls-7" d="M338.83,865.94a4.31,4.31,0,1,1-4.3-4.31A4.3,4.3,0,0,1,338.83,865.94Z"/><path class="cls-32" d="M363.08,834a2.6,2.6,0,0,0,1.19,2.64l8.6.89c1,.11,2-.87,2.21-2.3s-.62-2.95-1.74-3.06l-8.57-.89A4.08,4.08,0,0,0,363.08,834Z"/><path class="cls-32" d="M362.67,838.76c-.15,1.68.56,3.07.84,3.11l9.25,1.2c1,.14,2.05-.82,2.24-2.24s-.58-3-1.7-3.11l-9.49-1.24A2.93,2.93,0,0,0,362.67,838.76Z"/><path class="cls-22" d="M363.49,837a.5.5,0,0,1-.25-.52c0-.28.2-.49.41-.47l9.26,1c.87.09,1.66-.73,1.8-1.87a2.78,2.78,0,0,0-.3-1.68,1.49,1.49,0,0,0-1.11-.81l-8.48-.88c-.2,0-.35-.26-.33-.54s.2-.49.41-.47l8.47.88A2.19,2.19,0,0,1,375,832.8a4,4,0,0,1,.45,2.45c-.2,1.67-1.35,2.87-2.61,2.74l-9.26-1Z"/><path class="cls-32" d="M364.11,828.19c-.17,1.67.58,3.06.86,3.09l9.24,1.12c1,.12,2-.79,2.23-2.18.24-1.58-.56-3-1.7-3.18l-8.63-1C365.15,825.88,364.21,827.22,364.11,828.19Z"/><path class="cls-22" d="M364.86,831.72a.52.52,0,0,1-.25-.53c0-.27.21-.48.41-.45l9.25,1.16c.87.1,1.67-.7,1.82-1.84a2.84,2.84,0,0,0-.29-1.69,1.48,1.48,0,0,0-1.1-.82l-8.47-1c-.2,0-.35-.27-.32-.55s.2-.48.41-.46l8.46,1a2.19,2.19,0,0,1,1.61,1.21,4.08,4.08,0,0,1,.43,2.47c-.22,1.66-1.38,2.84-2.64,2.69l-9.25-1.16Z"/><path class="cls-22" d="M363.72,842.11a.5.5,0,0,1-.25-.54c0-.28.21-.48.41-.45l9,1.35c.88.11,1.6-.59,1.75-1.72a2.67,2.67,0,0,0-.28-1.69,1.5,1.5,0,0,0-1.09-.84L363.77,837c-.2,0-.35-.27-.32-.55s.21-.48.41-.46l9.49,1.24a2.2,2.2,0,0,1,1.6,1.23,4,4,0,0,1,.41,2.47c-.22,1.65-1.3,2.73-2.57,2.57l-9-1.35Z"/><path class="cls-32" d="M385.19,831.5c.37,1.71-.12,4.79-.4,4.85l-9.58.66a2.36,2.36,0,0,1-2.56-2c-.43-1.61.24-3.21,1.4-3.48l8.82-2.06C383.85,829.23,385,830.5,385.19,831.5Z"/><path class="cls-22" d="M385.05,836.84a.56.56,0,0,0,.2-.58c-.06-.28-.27-.47-.48-.43l-9.68.66c-.89.21-1.81-.54-2.09-1.69a2.89,2.89,0,0,1,.11-1.78,1.57,1.57,0,0,1,1-1l8.66-2a.51.51,0,0,0,.27-.61c-.06-.29-.27-.48-.48-.43L374,831a2.29,2.29,0,0,0-1.53,1.44,4.23,4.23,0,0,0-.16,2.6c.42,1.69,1.75,2.79,3,2.49l9.68-.66Z"/><path class="cls-32" d="M363.09,844.17a3.68,3.68,0,0,0,.76,2.91l8.61,1.26c1,.14,1.91-.74,2.1-2.06s-.51-2.77-1.55-2.93l-8.83-1.29A2.71,2.71,0,0,0,363.09,844.17Z"/><path class="cls-22" d="M363.84,847.22a.53.53,0,0,1-.25-.54c0-.28.22-.48.42-.45l8.6,1.26c.8.12,1.54-.6,1.69-1.63a2.55,2.55,0,0,0-.24-1.56,1.4,1.4,0,0,0-1-.78l-8.82-1.3c-.2,0-.35-.28-.32-.55s.21-.48.42-.45l8.82,1.29a2.12,2.12,0,0,1,1.5,1.18A3.83,3.83,0,0,1,375,846c-.23,1.56-1.33,2.65-2.51,2.47l-8.61-1.26Z"/><path class="cls-25" d="M562.08,683.43c6.22,11.74.15,52.07.15,52.07l-3.94-.45c0-1.35-.5-5.25-.5-5.25l-1.78,5L540.67,733l-1.41-62.42S555.86,671.69,562.08,683.43Z"/><path class="cls-32" d="M553.92,689.55s8.62,31-8.09,35.39l-.26,21.75-23.14-5.38.44-70s6.88.9,6.88,1.46S553.92,689.55,553.92,689.55Z"/><path class="cls-22" d="M546.17,710.22a.21.21,0,0,1-.2-.17.21.21,0,0,1,.16-.25c1.37-.28,2.24-2,2.5-2.51a6.38,6.38,0,0,1-3.5-4,6.94,6.94,0,0,1,1.14-5.14.21.21,0,0,1,.29,0,.2.2,0,0,1,.05.29,6.65,6.65,0,0,0-1.07,4.79A6.09,6.09,0,0,0,549,707l.17.08-.07.18c0,.11-1,2.56-2.88,3Z"/><path class="cls-33" d="M545.79,731.58l0-6.64s-11.22-.73-18.08-5.11C527.75,719.83,537,728.88,545.79,731.58Z"/><path d="M540.88,701a1.18,1.18,0,0,1-1.19,1.18,1.19,1.19,0,1,1,1.19-1.18Z"/><path d="M552.84,701.44a1.19,1.19,0,1,1-1.18-1.19A1.18,1.18,0,0,1,552.84,701.44Z"/><path class="cls-37" d="M537,709.61c.13,0,7.7,3.36,7.7,3.36s-2.39,2.66-5.21,1.43S537,709.61,537,709.61Z"/><path class="cls-25" d="M546.13,678.05s-3.2,14.39-16.81,19.94-5.88,23.79-5.88,23.79l-12.83-19.43s.59-26,12.26-31.05C531.36,667.64,547.55,669.87,546.13,678.05Z"/><path class="cls-25" d="M536.05,696.69a.41.41,0,0,0,.39,0,8.11,8.11,0,0,1,6.11-.71.42.42,0,0,0,.54-.25.43.43,0,0,0-.26-.54A8.81,8.81,0,0,0,536,696a.42.42,0,0,0-.15.58A.4.4,0,0,0,536.05,696.69Z"/><path class="cls-25" d="M554.17,698.44a.42.42,0,0,0,.34-.73,8.79,8.79,0,0,0-6.51-2.15.42.42,0,1,0,.11.83,8.12,8.12,0,0,1,5.83,1.94A.41.41,0,0,0,554.17,698.44Z"/><polygon class="cls-32" points="545.11 683.6 539.41 678.15 543.63 684.47 545.11 683.6"/><path class="cls-25" d="M507.08,687.34c3.36-14.67,19.63-17.2,19.63-17.2l-.91,28.73s-3.19,12.49-1.94,31.14l.37,3.52a102.92,102.92,0,0,1-12.54-1.82c-.46-2.75-1.22-7.22-1.22-7.22L508.62,731c-1.47-.38-3-.8-4.39-1.28C504.23,729.73,504.36,699.26,507.08,687.34Z"/><path class="cls-32" d="M527.85,704a6.63,6.63,0,1,1-6.59-6.67A6.64,6.64,0,0,1,527.85,704Z"/><path class="cls-22" d="M520.7,708.06a2.79,2.79,0,0,1-2.61-2.11,2.62,2.62,0,0,1,1.08-3.06,3.12,3.12,0,0,1,3.43.1,3,3,0,0,0-1.28-1.55,4.09,4.09,0,0,0-2.92-.2.22.22,0,0,1-.27-.14.21.21,0,0,1,.14-.26,4.43,4.43,0,0,1,3.25.23,3.61,3.61,0,0,1,1.69,2.45l.18.74-.53-.54a2.85,2.85,0,0,0-3.47-.46,2.21,2.21,0,0,0-.89,2.57,2.33,2.33,0,0,0,2.24,1.8.21.21,0,0,1,.21.21.21.21,0,0,1-.21.21Z"/><path class="cls-7" d="M652.26,873.56s38.87,12,73.83-5.49l-1.7-8.32s-44.18,8-72.29,4.35Z"/><polygon class="cls-32" points="1392.38 985.1 1381.74 1182.71 1409.91 1183.73 1449.28 977.49 1392.38 985.1"/><polygon class="cls-32" points="1493.07 980.05 1437.59 987.57 1463.03 1180.98 1492.41 1183.89 1493.07 980.05"/><path class="cls-24" d="M1512.89,1185.59l-20.48-9.76c-9.86,8.63-18.87,1.49-18.87,1.49-6.18-3-11.25,2.88-11.25,2.88l-1.56,12.24H1520C1520.53,1188.28,1512.89,1185.59,1512.89,1185.59Z"/><path class="cls-7" d="M1519.12,1196.73c.7,0,2.77-.87,2.86-1.58l.37-1.9c.09-.72-.6-2.16-1.3-2.16l-60.86-.26a.75.75,0,0,0-.72.65l-.59,4.6a.55.55,0,0,0,.56.65Z"/><path d="M1521,1195.86l.24.34a3.73,3.73,0,0,0,1.42-2.42,2.72,2.72,0,0,0-2.73-3.17H1461a2,2,0,0,0-1.9,1.7l-.38,2.94h.44l.38-2.94a1.46,1.46,0,0,1,1.4-1.26h58.85a2.34,2.34,0,0,1,2.35,2.73A3.18,3.18,0,0,1,1521,1195.86Z"/><path d="M1519.65,1190.92l.42-.18c0-.11-.91-2.58-5.11-4.5s-22.25-10.53-22.43-10.62l-.23.41c.18.08,18.3,8.72,22.44,10.61S1519.65,1190.9,1519.65,1190.92Z"/><polygon points="1462.08 1180.2 1460.74 1190.6 1461.18 1190.6 1462.51 1180.2 1462.08 1180.2"/><path d="M1483.4,1179.81a14.21,14.21,0,0,1-9.72-2.67l-.29.37a14.42,14.42,0,0,0,8.66,2.81,8.5,8.5,0,0,0,1.36-.08Z"/><polygon points="1464.23 1186.59 1463.94 1186.96 1466.47 1188.86 1466.77 1188.49 1464.23 1186.59"/><polygon points="1466.29 1186.06 1466 1186.42 1468.54 1188.32 1468.83 1187.95 1466.29 1186.06"/><path class="cls-24" d="M1431.88,1185.59l-20.48-9.76c-9.86,8.63-18.87,1.49-18.87,1.49-6.18-3-11.25,2.88-11.25,2.88l-1.57,12.24H1439C1439.52,1188.28,1431.88,1185.59,1431.88,1185.59Z"/><path class="cls-7" d="M1438.11,1196.73c.7,0,2.77-.87,2.86-1.58l.37-1.9c.09-.72-.6-2.16-1.3-2.16l-60.86-.26a.77.77,0,0,0-.73.65l-.58,4.6a.55.55,0,0,0,.55.65Z"/><path d="M1440,1195.86l.24.34a3.73,3.73,0,0,0,1.42-2.42,2.72,2.72,0,0,0-2.73-3.17H1380a2,2,0,0,0-1.9,1.7l-.38,2.94h.44l.38-2.94a1.46,1.46,0,0,1,1.4-1.26h58.85a2.34,2.34,0,0,1,2.35,2.73A3.18,3.18,0,0,1,1440,1195.86Z"/><path d="M1438.64,1190.92l.42-.18c0-.11-.91-2.58-5.11-4.5s-22.25-10.53-22.44-10.62l-.22.41c.18.08,18.3,8.72,22.44,10.61S1438.64,1190.9,1438.64,1190.92Z"/><path d="M1402.39,1179.81a14.21,14.21,0,0,1-9.72-2.67l-.29.37a14.42,14.42,0,0,0,8.66,2.81,8.64,8.64,0,0,0,1.36-.08Z"/><polygon points="1383.22 1186.59 1382.93 1186.96 1385.46 1188.86 1385.76 1188.49 1383.22 1186.59"/><polygon points="1385.28 1186.06 1384.99 1186.42 1387.52 1188.32 1387.81 1187.95 1385.28 1186.06"/><path class="cls-32" d="M1399.8,902.12c15.33,10.9,3.75-109,3.75-110.37S1392,779.83,1392,779.83s-11.58,3.56-14.81,21.53,2.21,73.85,2.21,73.85A58.47,58.47,0,0,0,1399.8,902.12Z"/><path class="cls-7" d="M1377.15,1052.18s69,4.6,92.48,0l6.14-37.3,9.19,39.35h22.49s8.13-116.1-29.34-175.51c0,0,10.94-37.88,5.83-71.1s-92-27.79-92-27.79l-2.55,42.92,7.9,55.08s-19.15,46.61-21.19,104.35S1377.15,1052.18,1377.15,1052.18Z"/><path class="cls-32" d="M1533.27,934.8l10.36-19.75c-11.56-12.23-44.55-68.37-46.65-74.32-2-5.75-8.46-20.85-12.88-33.08-6.45,4-22.14,11.58-36.27,14.29,6,13.55,20.87,43.88,24.28,49.78C1479.82,885.09,1504.92,916.75,1533.27,934.8Z"/><path class="cls-32" d="M1487.66,817.11s-7.29-31.48-19.94-34.41-22.59,3.14-23.86,12.47,4,26.77,4,26.77l32.82,8.63Z"/><path class="cls-32" d="M1424.09,782.32c.69,3.11,5.18,9.32,13.47,9.32a22.67,22.67,0,0,0,6.85-1,8.64,8.64,0,0,0,5.91-9.3L1449,770.23c7.26-1,6.91-9.33,6.91-9.33V736.38l-29.71-7.6-.94,28.28.25,7.3S1423.4,779.21,1424.09,782.32Z"/><path class="cls-22" d="M1454.67,739.13c9.83-5,7-15.29,7-15.29-2.63-20.75-30.15-10.71-41.29-8.3s-16.6,16.16-16.82,28.39-23.85,30-28.13,54.29c-1.9,10.76-11.37,60,45.53,65.07,26.88,2.38,46.83-15,52.76-34.78,13-43.23-28.22-72.78-29.53-76.81S1444.84,744.15,1454.67,739.13Z"/><path class="cls-32" d="M1449.75,751.34a6.09,6.09,0,1,0-6.09,6.22A6.15,6.15,0,0,0,1449.75,751.34Z"/><path class="cls-22" d="M1441.78,750.37a2.46,2.46,0,0,0-1,2.84,2.55,2.55,0,0,0,2.39,1.94h0a.17.17,0,0,0,0-.34h0a2.2,2.2,0,0,1-2.07-1.7,2.15,2.15,0,0,1,.82-2.45,2.62,2.62,0,0,1,3.22.42l.43.44-.15-.6a3.33,3.33,0,0,0-1.55-2.27,4,4,0,0,0-3-.2.18.18,0,0,0-.11.22.17.17,0,0,0,.21.11,3.74,3.74,0,0,1,2.71.17,2.88,2.88,0,0,1,1.23,1.54A2.81,2.81,0,0,0,1441.78,750.37Z"/><path class="cls-32" d="M1577.67,927.09c-2.76-3.1-12.6-7.91-15.67-8.32l-14.31-2c-.06-.1-4.2-1.81-4.26-1.92l-10.16,20,6.65,2.13a276.2,276.2,0,0,1,27.91,6.9h0c3.05,1.73,6,3.34,7.32,4.06a2.63,2.63,0,0,0,2.35.11c1-.48,1.78-1.7-.44-4.81,0,0,5.62-.07.94-5.38,0,0,5.77,1,1.11-5.3C1579.11,932.51,1582.68,932.71,1577.67,927.09Z"/><path class="cls-22" d="M1576.82,943.47a.37.37,0,0,0,.52,0,.36.36,0,0,0,0-.52,45.32,45.32,0,0,0-6.06-4.57l-.11,0a.37.37,0,0,0-.26.69A47.08,47.08,0,0,1,1576.82,943.47Z"/><path class="cls-22" d="M1577.76,938.09a.37.37,0,0,0,.49-.56,23.72,23.72,0,0,0-6.09-3.81l-.06,0a.37.37,0,0,0-.22.7A23.09,23.09,0,0,1,1577.76,938.09Z"/><path class="cls-22" d="M1578.85,932.78a.37.37,0,0,0,.52-.53,20.33,20.33,0,0,0-5.29-3.63l-.08,0a.37.37,0,0,0-.41.21.38.38,0,0,0,.18.5A20,20,0,0,1,1578.85,932.78Z"/><path class="cls-16" d="M997.55,1280H990.3l0-.33-.08-1.76.22.06,5.93,1.7Z"/><path class="cls-24" d="M1007.84,1162.44s105.11-3.2,110.76-5.16,35.84-58.75,35.84-58.75,22.77-5.3,31.54,12.53c0,0-4.37,56.1-22,77.19s-61.92,29.6-61.92,29.6S995.72,1198.43,1007.84,1162.44Z"/><path class="cls-22" d="M1127.45,1220.14c-8.45-5.9-59.62-52-61.29-54.53-1.49-2.23-7.44-19.54-7.69-20.27a307.49,307.49,0,0,0-26.49-66.07l1.2-.7a307.66,307.66,0,0,1,26.62,66.36c1.69,4.92,6.37,18.18,7.52,19.91s51.26,47.4,60.92,54.15Z"/><path class="cls-23" d="M1133.82,1280.17c-3.77,0-143.4-.17-144-.17-1.1-16.5-5.3-91-5.74-120.57-.37-26.07-.7-66.47-.85-90.76,0,0,2.42-6.05,13.1-11.16,9.87-4.69,21.92-6.41,32.79-6.85,4.13-.17,6.58-.12,8.1-.12,17.52.14,44.28,1,60.38,5.93,4.18,1.25,9,3.33,12.41,6.26a17.68,17.68,0,0,1,3.52,4c8,12.56,14.3,51.19,16.12,66.1,2.15,17.8,3.86,128.81,4.14,146.81C1133.81,1279.84,1133.81,1280,1133.82,1280.17Z"/><path class="cls-32" d="M1024.69,1051.07s13.8,20,37.81,19.07,23.43-16.36,23.43-16.36S1063.69,1047.13,1024.69,1051.07Z"/><path class="cls-7" d="M1137.74,1280.17l-147.8-.17c0-.79-3.89-68.79-3.9-68.92s26.72,5.18,42.37-11.07a36,36,0,0,0,7.65-12.25c10.27-26.52-5.25-109-11.37-136.69,7.23-.58,6.66-.56,6.67-.48,5,19.47,14.06,58.7,15,78.84,8.31-.42,33.35-1.7,54.92-2.78-1.76-15.47-5.91-50.32-8.62-66.14-1.06-6.06-1.2-5.64-1-5.61s5.16,1.27,6.69,1.8c2.83,16.76,5.35,32.47,7,42.9,5.63,36.8,3.89,29.42,4.75,52.18,0,.47.63,17.5,1.47,35.18,28.45,6.25,18.72,4.13,20.81,4.58C1132.34,1191.62,1137.36,1273.7,1137.74,1280.17Z"/><path class="cls-27" d="M1207.73,1108.23c-1.48-.23-3-.51-4.4-.85-.82-.19-1.65-.41-2.46-.64l2.8-1,5.43-2.11,2.7-1.06,2.66-1.15,5.33-2.32-5.45,2-2.72,1-2.77.89-5.51,1.77-2.72.77,1.11-1.26q1.5-1.66,3.14-3.21c1.09-1,2.24-2,3.43-2.91a32.72,32.72,0,0,1,3.78-2.47,33.57,33.57,0,0,0-4.06,2c-1.3.79-2.58,1.63-3.8,2.55s-2.41,1.88-3.56,2.9-2.25,2.06-3.34,3.2l-.07.09,0,0-2.24.63-2.81.7c-1.87.46-3.73,1-5.61,1.39l-5.23,1.15c.43-.69.88-1.39,1.33-2.07,1.14-1.69,2.37-3.33,3.66-4.92a50.84,50.84,0,0,1,4.2-4.49,36.55,36.55,0,0,1,4.85-3.82,37.57,37.57,0,0,0-5.26,3.33,51.37,51.37,0,0,0-4.72,4.12c-1.49,1.48-2.91,3-4.25,4.64-1.05,1.26-2,2.53-3,3.88h0l-.05,0-2.84.55q-5.94,1.14-11.9,2.08h0l.15-.33c.4-.8.83-1.6,1.28-2.38a31.51,31.51,0,0,1,3.11-4.43,22.12,22.12,0,0,1,4-3.71,17.28,17.28,0,0,1,2.35-1.39,15.49,15.49,0,0,1,2.6-.94,15.16,15.16,0,0,0-2.72.65,17.8,17.8,0,0,0-2.57,1.14,23,23,0,0,0-4.54,3.37,33.8,33.8,0,0,0-3.77,4.25c-.57.76-1.12,1.54-1.63,2.35-.39.61-.76,1.21-1.12,1.86h0c-2.66.4-5.33.75-8,1.08l-5.73.64c-1.92.19-3.83.38-5.74.54s-3.82.32-5.73.44-3.84.22-5.69.28h0a.42.42,0,0,0-.16,0,2.79,2.79,0,1,0,.52,5.56c2-.18,3.93-.4,5.87-.65s3.88-.51,5.81-.78,3.85-.6,5.78-.9l5.75-1c2.78-.5,5.55-1,8.32-1.63h0c1.89.94,3.79,1.79,5.72,2.6q3.55,1.47,7.22,2.65c2.44.8,4.93,1.44,7.42,2a57.3,57.3,0,0,0,7.58,1,55.24,55.24,0,0,1-7.42-1.66,74.88,74.88,0,0,1-7.14-2.56q-3.49-1.47-6.86-3.19c-1-.53-2-1.07-3-1.63q5.5-1.21,10.95-2.62l1.19-.31h0a1.48,1.48,0,0,0,.33.18c2.49.84,4.95,1.51,7.45,2.12s5,1.1,7.55,1.51,5.08.65,7.64.8a55.63,55.63,0,0,0,7.64-.14,56.57,56.57,0,0,1-7.59-.49,75.06,75.06,0,0,1-7.44-1.42c-2.46-.6-4.88-1.3-7.28-2.09-1.43-.48-2.87-1-4.28-1.54l.41-.11,5.6-1.6c1.87-.55,3.71-1.16,5.56-1.74l2.78-.87,1.89-.66,1.16.17c1.55.32,3,.55,4.57.73s3,.3,4.58.36,3,0,4.57-.06a33.76,33.76,0,0,0,4.51-.63,32.4,32.4,0,0,1-4.51.12A44.4,44.4,0,0,1,1207.73,1108.23Z"/><path d="M1181.41,1135.41a23.64,23.64,0,0,1-6.08-2.38c-5-2.83-11.14-5.89-19.61-6.46l0-.5c8.58.57,14.74,3.66,19.83,6.52a22.51,22.51,0,0,0,21.91.18l.24.45A22.92,22.92,0,0,1,1181.41,1135.41Z"/><path d="M1132.76,1117.23l0-.51c.18,0,17.87-1.24,27.7-2.84l.08.5C1150.65,1116,1132.93,1117.22,1132.76,1117.23Z"/><path d="M1170.51,1115.93l-.12-.49,6.69-1.68.08,0a81,81,0,0,0,30.51,4.45l0,.51a81.81,81.81,0,0,1-30.65-4.46Z"/><path d="M1230.44,1101.89l-.41-.3a10.32,10.32,0,0,0,1.86-5.58l.51,0A10.72,10.72,0,0,1,1230.44,1101.89Z"/><path d="M1227.87,1102.63l-.41-.29a10.34,10.34,0,0,0,1.86-5.59h.51A10.63,10.63,0,0,1,1227.87,1102.63Z"/><path class="cls-27" d="M1118.63,1099.19c1.34-.2,2.66-.46,4-.76.74-.18,1.48-.37,2.21-.58l-2.52-.89-4.88-1.89-2.44-1-2.4-1-4.79-2.09,4.91,1.79,2.45.89,2.48.81,5,1.59,2.44.69c-.32-.39-.66-.76-1-1.14q-1.35-1.5-2.82-2.88c-1-.93-2-1.79-3.09-2.62a29.7,29.7,0,0,0-3.4-2.23,29.2,29.2,0,0,1,3.66,1.85c1.17.71,2.32,1.47,3.41,2.29s2.17,1.7,3.21,2.62,2,1.85,3,2.88l.06.08,0,0c.67.19,1.34.39,2,.57l2.52.63c1.69.42,3.37.87,5.06,1.25l4.7,1q-.59-.94-1.2-1.86a54.6,54.6,0,0,0-3.29-4.43,45.18,45.18,0,0,0-3.78-4,32.43,32.43,0,0,0-4.37-3.44,33.17,33.17,0,0,1,4.74,3,46.64,46.64,0,0,1,4.25,3.71q2,2,3.82,4.18c.94,1.13,1.84,2.28,2.7,3.49h0l0,0,2.56.49q5.34,1,10.71,1.88h0c0-.1-.09-.2-.14-.3-.35-.72-.74-1.44-1.15-2.14a28.32,28.32,0,0,0-2.8-4,19.43,19.43,0,0,0-3.56-3.34,15.52,15.52,0,0,0-2.12-1.25,14.51,14.51,0,0,0-2.34-.85,13.85,13.85,0,0,1,2.45.58,17,17,0,0,1,2.31,1,20.88,20.88,0,0,1,4.09,3,30.22,30.22,0,0,1,3.4,3.83c.51.68,1,1.38,1.46,2.1.36.56.69,1.1,1,1.68h0q3.6.54,7.2,1l5.16.59c1.72.16,3.44.33,5.16.48s3.44.29,5.17.39,3.45.2,5.11.26h.2a2.52,2.52,0,0,1-.47,5c-1.81-.16-3.54-.36-5.29-.58s-3.49-.47-5.22-.71-3.47-.54-5.2-.81l-5.18-.91q-3.76-.67-7.5-1.46h0c-1.71.85-3.41,1.62-5.15,2.34q-3.21,1.32-6.51,2.39a67.12,67.12,0,0,1-6.68,1.79,50.83,50.83,0,0,1-6.82.94,48.55,48.55,0,0,0,6.68-1.5,66.45,66.45,0,0,0,6.43-2.3q3.15-1.32,6.17-2.88c.92-.47,1.83-1,2.72-1.46q-5-1.1-9.86-2.36l-1.06-.28h0a1.08,1.08,0,0,1-.3.16c-2.24.76-4.45,1.37-6.71,1.91s-4.51,1-6.79,1.36a69.17,69.17,0,0,1-6.88.73,50.92,50.92,0,0,1-6.88-.14,50.21,50.21,0,0,0,6.83-.43c2.26-.33,4.5-.74,6.7-1.28s4.4-1.17,6.55-1.89c1.29-.43,2.59-.89,3.86-1.38l-.38-.1-5-1.44c-1.68-.49-3.34-1.05-5-1.56l-2.5-.79-1.71-.6-1,.16c-1.39.29-2.74.49-4.12.66s-2.74.27-4.11.32a37.72,37.72,0,0,1-4.12-.06,28.94,28.94,0,0,1-4.06-.56,30.68,30.68,0,0,0,4.06.11A38.45,38.45,0,0,0,1118.63,1099.19Z"/><path d="M1142.33,1123.66a21.36,21.36,0,0,0,5.47-2.14c4.54-2.55,10-5.31,17.66-5.81l0-.46c-7.73.51-13.27,3.3-17.85,5.87a20.24,20.24,0,0,1-19.72.16l-.22.4A20.55,20.55,0,0,0,1142.33,1123.66Z"/><path d="M1186.13,1107.29l0-.45c-.16,0-16.09-1.12-24.93-2.56l-.07.45C1170,1106.17,1186,1107.28,1186.13,1107.29Z"/><path d="M1152.14,1106.12l.11-.44-6-1.51-.07,0a73.08,73.08,0,0,1-27.47,4l0,.46a73.72,73.72,0,0,0,27.6-4Z"/><path d="M1098.19,1093.48l.37-.27a9.25,9.25,0,0,1-1.67-5h-.46A9.63,9.63,0,0,0,1098.19,1093.48Z"/><path d="M1100.5,1094.15l.37-.26a9.29,9.29,0,0,1-1.67-5h-.46A9.63,9.63,0,0,0,1100.5,1094.15Z"/><g class="cls-38"><path class="cls-39" d="M1187.69,1109.84c-1,.13-2,.24-3,.34a36.15,36.15,0,0,0-6.31-9.42,1.46,1.46,0,1,1,2.07-2.06A38.09,38.09,0,0,1,1187.69,1109.84Z"/></g><path d="M1184.66,1110.36l0-.36c1-.1,2-.21,3.05-.34a176.29,176.29,0,0,0,29.57-6.25c1-.33,2-.63,2.8-.91,8.08-2.79,12.82-5.62,13.7-8.18l.35.11c-1.17,3.38-8.22,6.44-13.93,8.41-.84.29-1.76.59-2.81.92a177.13,177.13,0,0,1-29.64,6.26C1186.69,1110.15,1185.66,1110.26,1184.66,1110.36Z"/><rect class="cls-27" x="1095.36" y="1086.82" width="137.64" height="73.09"/><rect class="cls-40" x="1188.96" y="1086.82" width="44.04" height="73.09"/><rect class="cls-41" x="1088.36" y="1086.82" width="151.65" height="12.78"/><rect class="cls-42" x="1188.96" y="1086.82" width="51.04" height="12.78"/><path class="cls-22" d="M986.79,1212l1.61,29.33,2,36.67.09,1.7,0,.33h-1.39l0-.33-3.82-69.53.72.2.22.06a47.58,47.58,0,0,0,41.72-10.92l.46.53.47.52A49.18,49.18,0,0,1,986.79,1212Z"/><path class="cls-22" d="M1137.82,1281.38l-.08-1.21h-1.35c0-.17,0-.34,0-.5-.38-13.33-.95-26.47-1.57-38.37-.66-12.82-1.37-24.21-2-32.84-.19-2.94-.38-5.56-.54-7.81-.29-4.22-.52-7.13-.61-8.38,0-.1,0-.2,0-.28,0-.23,0-.37,0-.39l.45,0,.25,0h0l.46,0,.22,0c0,.24.51,6.42,1.19,16.42,1.11,16.62,2.73,43.79,3.55,71.77,0,.17,0,.33,0,.5C1137.79,1280.57,1137.8,1281,1137.82,1281.38Z"/><path class="cls-22" d="M1076.17,1032.89c25.49-3.73,29.12-34.21,28.64-44.55-1.25-14.58-3.34-23.48-7.33-30.75-10.82-19.7-33.74-19.91-33.74-19.91l3.63,96.86C1069.93,1033.93,1072.84,1033.38,1076.17,1032.89Z"/><path class="cls-22" d="M1041.69,985.83l.81-48.62s-27.45,4.7-32.75,29.58a132.68,132.68,0,0,0-2.06,15.44c1.3,37.76,33.28,45.4,33.28,45.4Z"/><path class="cls-32" d="M1089,969.36s-41.28-26.83-41.29-27.78-11.66-2.3-11.66-2.3l1,118.37,39.27,8.53-.11-36.78C1104.35,1021.55,1089,969.36,1089,969.36Z"/><path class="cls-43" d="M1077.17,984.79l-.56.1c-.14.19-3.29,4.77-2,9.79.77,3.08,3.05,5.62,6.75,7.56-.46,1-2.07,4.27-4.66,4.84a.4.4,0,0,0,.09.8h.08c3.52-.78,5.31-5.47,5.39-5.67l.13-.34-.33-.17c-3.68-1.84-5.93-4.27-6.67-7.2-1.18-4.66,1.87-9.1,1.9-9.14Z"/><path class="cls-33" d="M1076.18,1029.39s-19-1.16-30.62-8.52c0,0,15.78,15.23,30.6,19.75Z"/><path d="M1067.56,991a2,2,0,1,0-2,2A2,2,0,0,0,1067.56,991Z"/><path d="M1086.79,991a2,2,0,1,0-2,2A2,2,0,0,0,1086.79,991Z"/><path class="cls-37" d="M1079.43,1011.12s-10.93-2.18-11.11-2.19c0,0,.6,4.78,4.67,5.58S1079.43,1011.12,1079.43,1011.12Z"/><path class="cls-22" d="M1047.61,984.25c22.87-9.73,27.93-34.14,27.93-34.14,2.2-13.87-25.24-17.23-39.5-10.83-19.6,8.81-19.94,52.8-19.94,52.8l18.52,27.17S1024.75,994,1047.61,984.25Z"/><path class="cls-22" d="M1059.86,982.45c.05,0,5.13-3.05,10.21-1.33a.71.71,0,1,0,.45-1.34c-5.71-1.94-11.17,1.32-11.4,1.46a.71.71,0,0,0-.23,1l.31.28A.73.73,0,0,0,1059.86,982.45Z"/><path class="cls-22" d="M1089.22,984.79l.38.17a.7.7,0,0,0,.62-.23.71.71,0,0,0-.06-1c-.2-.18-5-4.35-11-3.45a.71.71,0,0,0,.21,1.4C1084.73,980.88,1089.18,984.75,1089.22,984.79Z"/><polygon class="cls-32" points="1073.95 959.52 1064.18 950.44 1071.48 961.03 1073.95 959.52"/><path class="cls-32" d="M1045.28,994.46a11.21,11.21,0,1,0-11.12,11.3A11.22,11.22,0,0,0,1045.28,994.46Z"/><path class="cls-43" d="M1030.57,992.79a4.43,4.43,0,0,0-1.74,5.19,4.71,4.71,0,0,0,4.47,3.5h.06a.37.37,0,0,0,.36-.37.36.36,0,0,0-.37-.35,4,4,0,0,1-3.84-3,3.76,3.76,0,0,1,1.44-4.37,4.83,4.83,0,0,1,5.88.69l.92.9-.32-1.25a6.1,6.1,0,0,0-2.92-4.09,7.63,7.63,0,0,0-5.51-.32.36.36,0,0,0-.22.46.35.35,0,0,0,.46.22,6.94,6.94,0,0,1,4.93.28,5,5,0,0,1,2.22,2.58A5.29,5.29,0,0,0,1030.57,992.79Z"/><path class="cls-22" d="M1036.78,1026.19l-11.58-8.78s-36,16.59-25.61,43.63,41.16,50,31.11,83.79c0,0,32.66-32.06,16.13-59.73,0,0,5.75.33,8,7.3,0,0,3-23.07-9-35.09s-8.89-14.89-8.89-14.89Z"/><path class="cls-32" d="M1178.78,1124.56c1.64-7.79-3.91-4.76-3.91-4.76.45-4.27-1-5-2.24-5a3,3,0,0,0-2.24,1.4c-1.56,2.5-6.31,10.14-9,15.1-3.08,2-5.81-3.64-6.39-7.14-.29-1.8-1.84-4-3.4.54-1.27,3.7-.82,12.41-.82,12.41l-17.43,10.56,19.13,20.6s18.37-14.1,21.15-16.21,9.77-12.27,10.76-16.84c1.8-8.3-1.6-6.12-1.6-6.12C1183.86,1120.36,1178.78,1124.56,1178.78,1124.56Z"/><path class="cls-22" d="M1171.78,1127.57a.4.4,0,0,0,.45-.19,51.3,51.3,0,0,0,3-7.9.4.4,0,0,0-.27-.49.38.38,0,0,0-.49.27,52.31,52.31,0,0,1-3,7.74.41.41,0,0,0,.16.54Z"/><path class="cls-22" d="M1175.76,1132.07a.38.38,0,0,0,.44-.17,26.89,26.89,0,0,0,3-7.34.39.39,0,0,0-.3-.48.4.4,0,0,0-.48.3,25.47,25.47,0,0,1-2.93,7.1.39.39,0,0,0,.12.54A.27.27,0,0,0,1175.76,1132.07Z"/><path class="cls-22" d="M1179.82,1136.15a.39.39,0,0,0,.44-.16,23.34,23.34,0,0,0,3-6.74.4.4,0,0,0-.28-.48h0a.39.39,0,0,0-.48.29,22.6,22.6,0,0,1-2.85,6.48.4.4,0,0,0,.11.56Z"/><path class="cls-24" d="M1147.89,1134.29s-54,27.46-62.49,24.15c-3.14-1.22-46.94-65.83-50-72-5.27-10.73-16.91-22.86-25.28-26.27-16.64-6.78-26.06.42-31.24,9.06a40.34,40.34,0,0,0-5.54,22.42c1.34,31.16,19.84,59.86,53.2,87.29,5.18,4.69,34.55,30.32,59.47,32.1,27.44,2,79.17-45.41,79.17-45.41A73.31,73.31,0,0,0,1147.89,1134.29Z"/><path class="cls-22" d="M1091.64,1211.55h-.4c-20.88-.59-37.37-6.77-74.64-40.33l.93-1c37,33.27,53.22,39.4,73.75,40,19.09.53,68.85-41.16,73.18-44.82-2-11.71-14.52-27.43-16.76-30.18-5.65,2.71-52.21,24.88-65.7,26.66l-.18-1.39c13.84-1.82,65.25-26.51,65.76-26.76l.49-.24.35.42c.63.74,15.48,18.44,17.48,31.67l.06.38-.29.25C1163.48,1168,1112.31,1211.55,1091.64,1211.55Z"/><rect class="cls-25" x="1113.54" y="1027.4" width="113.25" height="60.14"/><rect class="cls-44" x="1113.54" y="1027.4" width="36.24" height="60.14"/><rect class="cls-44" x="1107.78" y="1027.4" width="124.77" height="10.51"/><g class="cls-10"><rect class="cls-44" x="1107.78" y="1027.4" width="42" height="10.51"/></g><g class="cls-8"><rect class="cls-15" x="1164.85" y="1042.58" width="49.09" height="11.46" transform="translate(2378.79 2096.62) rotate(180)"/></g><path class="cls-7" d="M1618.56,1281.21c-157.67-.51-318.53-.83-480.78-1,0,.4,0,.8,0,1.21l-.08-1.21h-8.84l-89.76-.1-41.59,0h-8.41c-242.35-.23-486.59-.26-726.91-.33H1618.56Z"/><rect class="cls-45" x="0.8" y="1279.02" width="2039.31" height="6.73"/></g></g></g></svg>