<svg xmlns="http://www.w3.org/2000/svg" xmlns:xlink="http://www.w3.org/1999/xlink" viewBox="0 0 398.82 340.21"><defs><style>.cls-1{fill:none;}.cls-2{fill:#89bbee;}.cls-3{fill:#4d7fb3;}.cls-4{fill:#a3a01a;}.cls-5{fill:#ad6262;}.cls-6{fill:#73a7de;}.cls-7{fill:#ed9351;}.cls-8{fill:#ffa7a6;}.cls-9{fill:#bd4257;}.cls-10{fill:#732835;}.cls-11{fill:#284975;}.cls-12{fill:#448cd4;}.cls-13{fill:#3d2b1b;}.cls-14,.cls-40{fill:#fff;}.cls-15{fill:#755338;}.cls-16{fill:#edb88e;}.cls-17{fill:#cf8a53;}.cls-18{fill:#8c2f41;}.cls-19{fill:#73411c;}.cls-20{fill:#ffe1a3;}.cls-21{fill:#c4884e;}.cls-22{fill:#f0f8ff;}.cls-23{fill:#752736;}.cls-24{fill:#591f29;}.cls-25{fill:#d46f24;}.cls-26{clip-path:url(#clip-path);}.cls-27{fill:#fcbba4;}.cls-28{fill:#46342b;}.cls-29{fill:#865549;}.cls-30{fill:#382424;}.cls-31{fill:#cb816f;}.cls-32{fill:#d7979f;}.cls-33{fill:#4e3030;}.cls-34{fill:#554544;}.cls-35{fill:#533e35;}.cls-36{fill:#e0edfb;}.cls-37{fill:#886c61;}.cls-38{fill:#74732c;}.cls-39{fill:#ddda54;}.cls-40{opacity:0.44;}.cls-41{fill:#d19f4f;}.cls-42{fill:#ffdb9e;}.cls-43{fill:#452821;}.cls-44{fill:#634030;}.cls-45{fill:#bf704b;}.cls-46{fill:#78b4f0;}.cls-47{fill:#ff915b;}.cls-48{fill:#f0be40;}.cls-49{fill:#ba615b;}.cls-50{fill:#b3495a;}.cls-51{fill:#963645;}.cls-52{fill:#c25b6c;}.cls-53{fill:#638db9;}.cls-54{fill:#795637;}.cls-55{fill:#533b25;}.cls-56{fill:#ac7a4d;}.cls-57{fill:#fca283;}.cls-58{fill:#382014;}.cls-59{fill:#783322;}.cls-60{fill:#240d0d;}.cls-61{fill:#cc4a29;}.cls-62{fill:#c95867;}.cls-63{fill:#401717;}.cls-64{fill:#472826;}.cls-65{fill:#45271a;}.cls-66{fill:#66650c;}.cls-67{fill:#cfcc18;}.cls-68{fill:#c2bf1f;}</style><clipPath id="clip-path"><rect class="cls-1" x="107.68" y="14.9" width="98.49" height="254.42"/></clipPath></defs><g id="Layer_2" data-name="Layer 2"><g id="_1" data-name="1"><ellipse class="cls-2" cx="270.05" cy="55.09" rx="16.5" ry="20.11"/><path class="cls-3" d="M48.09,192.46a.59.59,0,0,1-.09.2h0s0,0,0,0a.1.1,0,0,1-.05.06c-1,1.1-7.66,1.94-15.63,1.94-7.77,0-14.3-.81-15.56-1.85l-.13-.16a.42.42,0,0,1-.08-.2c-.11-1.25,7-2.27,15.77-2.27S48.18,191.21,48.09,192.46Z"/><path class="cls-4" d="M34.19,217.8l-.59,0c0-.49,1.8-49.19-27.48-61.39l.23-.55C36,168.19,34.22,217.31,34.19,217.8Z"/><path class="cls-4" d="M32.1,224.78l-.59,0c.76-24.24,6.16-50.43,15.63-75.73l.55.2C38.25,174.48,32.86,200.6,32.1,224.78Z"/><path class="cls-4" d="M34.23,204.73l-.6,0c1.36-55.2-6.3-100.42-12.17-107.29l.45-.39C28.78,105.07,35.51,152.84,34.23,204.73Z"/><path class="cls-4" d="M34.36,205.44l-.6,0c1.25-40-20.68-74.77-20.9-75.12l.5-.32C13.59,130.33,35.61,165.28,34.36,205.44Z"/><path class="cls-4" d="M33.87,217.8C32,163,47,117.28,47.15,116.83l.56.19c-.15.45-15.08,46.09-13.25,100.76Z"/><path class="cls-5" d="M378.1,125.21c-.48,9.15-11.9,18.51-11.9,18.51-5-4.63-7.55-12.71-7.85-18.4a7.8,7.8,0,0,1,6.27-8.35q.83-.15,1.68-.24a3.55,3.55,0,0,1,.56-.06c.32,0,.64,0,1-.06h.76C372.38,116.66,378.51,117.19,378.1,125.21Z"/><path class="cls-6" d="M383.3,126.05H353.85a.59.59,0,0,1-.56-.4.58.58,0,0,1,.21-.66c5.44-4.09,10.27-6.08,14.75-6.08h.66c4.48,0,9.3,2,14.75,6.08a.58.58,0,0,1,.21.66A.6.6,0,0,1,383.3,126.05Zm-27.61-1.18h25.78c-4.63-3.21-8.75-4.77-12.56-4.77h-.66C364.44,120.1,360.32,121.66,355.69,124.87Z"/><path class="cls-7" d="M383.71,165.56c-.11,1.53-.21,3.06-.31,4.6v0h0c-.13,1.31-7.37,1.92-16.21,1.36s-16-2.07-15.91-3.38a.06.06,0,0,1,0,0h0c-.08-1.13-.16-2.25-.25-3.38,2.22,1.27,8.54,2.34,16,2.6C375.17,167.63,382,166.85,383.71,165.56Z"/><path class="cls-8" d="M386.27,127q-1.25,18.67-2.48,37.35c0,.42-.06.83-.08,1.25-1.69,1.29-8.54,2.07-16.66,1.79-7.48-.26-13.8-1.33-16-2.6,0-.6-.08-1.21-.13-1.82q-1.27-17.35-2.55-34.74a6.32,6.32,0,0,1,2.6-5.56,31.08,31.08,0,0,1,15.35-5.9q-.85.09-1.68.24a7.8,7.8,0,0,0-6.27,8.35c.3,5.69,2.86,13.77,7.85,18.4,0,0,11.42-9.36,11.9-18.51.41-8-5.72-8.55-9.51-8.61a28,28,0,0,1,13.56,3A7.66,7.66,0,0,1,386.27,127Z"/><path class="cls-8" d="M398.82,150.27a70,70,0,0,1-7,27.57l-9.3-1.92a100.17,100.17,0,0,1,.2-13.78c.22-3.12.76-8.51.82-11.53a16.59,16.59,0,0,0-.63-3c-.2-.71-.41-1.42-.6-2.06s-.3-1-.45-1.39q-.33-1-.63-1.89c-.4-1.11-.75-2.12-1.11-3.1a83,83,0,0,1-2.83-9s3.64-10.74,6.05-9.29c3,1.78,6.75,7.57,9.83,13.67.56,1.1,1.09,2.21,1.59,3.31.25.54.47,1.07.7,1.59.51,1.17,1,2.31,1.38,3.4A29.67,29.67,0,0,1,398.82,150.27Z"/><path class="cls-8" d="M358.31,127.12c-.45,8-2.65,16.07-2.93,23.8.16,8.46.71,17.12-.49,25.67l-9.42,1.26a78.79,78.79,0,0,1-5.42-26.79c.34-10.12,4.94-21.64,9.61-27.16l8.65,3.22Z"/><path class="cls-9" d="M358.39,146.89v-.66c1,0,1.58-7.38,2-12.77.81-10.31-.09-12.62-1-12.74l.09-.66c1.8.25,2.27,4.28,1.55,13.45C360.31,143,359.86,146.89,358.39,146.89Z"/><path class="cls-10" d="M360.35,137.49s-5.38,2.61-23.92.91L343,153.09l16.5-3.12S360.14,139.31,360.35,137.49Z"/><path class="cls-9" d="M340.28,146.88l0-.66c1-.06,1.16-7.46,1.28-12.86.16-7.49-.31-11.71-1.39-12.55a.58.58,0,0,0-.56-.09l-.18-.64a1.23,1.23,0,0,1,1.14.21c1.32,1,1.83,5,1.65,13.08C342,142.91,341.74,146.8,340.28,146.88Z"/><path class="cls-11" d="M332.55,118.72l-7.93,16.06-6.21-15.65h0s3.24-2.83,6.55-3C328.9,116,332.55,118.72,332.55,118.72Z"/><path class="cls-6" d="M364.42,126.05H335a.59.59,0,0,1-.56-.4.58.58,0,0,1,.21-.66c5.44-4.09,10.27-6.08,14.75-6.08H350c4.48,0,9.3,2,14.75,6.08a.59.59,0,0,1-.36,1.06Zm-27.61-1.18h25.77c-4.62-3.21-8.74-4.77-12.55-4.77h-.66C345.55,120.1,341.43,121.66,336.81,124.87Z"/><path class="cls-6" d="M339.68,126.05H310.23a.59.59,0,0,1-.56-.4.58.58,0,0,1,.21-.66c5.44-4.09,10.27-6.08,14.75-6.08h.66c4.48,0,9.3,2,14.75,6.08a.59.59,0,0,1-.36,1.06Zm-27.61-1.18h25.78c-4.63-3.21-8.75-4.77-12.56-4.77h-.66C320.82,120.1,316.7,121.66,312.07,124.87Z"/><path class="cls-10" d="M334.24,229.67s2.7-2.7,18.27-2.76,12.91,1.66,12.91,1.66l-2.12-30.66-19.89,3Z"/><path class="cls-9" d="M365.54,228.14v0c0,.71-1.08,1.43-3,2-1.17-7.44-1.87-20.42-2.17-26.67.39,14-1.85,24.33-2.9,27.83a73.26,73.26,0,0,1-7.52.73c-8.66.42-16.35-.61-16.07-2.42,2.53-10.35,4.07-16.25,4.07-27.56,0-5.43-.35-12.1-1.13-21.11-1.33-15.69,3.15-20.68,1.16-32.16-1.95-11.19-2.64-15.85-.36-24.14,1.24,3.27,5,12,9.67,12.48,4.05.39,7.95-7.74,9.91-12.62-.26,3.53-.63,9.54-.55,13.07.12,5.2.75,7.07,1.62,7,.71,0,1.56-3.85,2.06-6.47-1.19,8.19.36,17.07,3.56,33.83C368.2,194.53,365.9,211.49,365.54,228.14Z"/><path class="cls-9" d="M358.39,146.89c-1.95,0-2.66-8-2.66-13.41,0-7.23,1.73-13,3.28-13.4a1.63,1.63,0,0,1,.49,0l-.09.66a.71.71,0,0,0-.25,0c-1,.22-2.76,5.35-2.76,12.75,0,8.37,1.3,12.75,2,12.75Z"/><path class="cls-9" d="M340.2,146.88c-.37,0-1.23-.23-2.12-4a56.57,56.57,0,0,1-1.21-9.26c-.41-7.22,1-13.12,2.52-13.56l.18.64c-.93.27-2.45,5.5-2,12.89a56.1,56.1,0,0,0,1.19,9.13c.68,2.86,1.32,3.48,1.52,3.48h0l0,.66Z"/><path class="cls-12" d="M348.85,191.77h-45.2c1.44-18.42,2.57-38.1,3.61-58.69a15.13,15.13,0,0,1,10.39-13.73l.76-.22,6.21,15.65,7.93-16.06c.78.18,1.55.38,2.31.63a15.14,15.14,0,0,1,10.39,13.73C346.29,153.67,347.42,173.35,348.85,191.77Z"/><path class="cls-11" d="M348.85,191.77c0,1.16-10.12,2.1-22.6,2.1s-22.6-.94-22.6-2.1,10.12-2.1,22.6-2.1S348.85,190.61,348.85,191.77Z"/><path class="cls-6" d="M272.61,114.71a.59.59,0,0,1-.6-.59v-3.24a3.32,3.32,0,0,1,3.32-3.31.59.59,0,0,1,0,1.18,2.13,2.13,0,0,0-2.13,2.13v3.24A.58.58,0,0,1,272.61,114.71Z"/><path class="cls-6" d="M297.63,114.71a.58.58,0,0,1-.59-.59v-3.24a3.31,3.31,0,0,1,3.31-3.31.59.59,0,1,1,0,1.18,2.14,2.14,0,0,0-2.13,2.13v3.24A.58.58,0,0,1,297.63,114.71Z"/><path class="cls-6" d="M319.52,114.71a.59.59,0,0,1-.59-.59v-3.24a3.31,3.31,0,0,1,3.31-3.31.59.59,0,1,1,0,1.18,2.13,2.13,0,0,0-2.12,2.13v3.24A.59.59,0,0,1,319.52,114.71Z"/><path class="cls-6" d="M344.26,114.71a.58.58,0,0,1-.59-.59v-3.24a3.31,3.31,0,0,1,3.31-3.31.59.59,0,1,1,0,1.18,2.13,2.13,0,0,0-2.12,2.13v3.24A.59.59,0,0,1,344.26,114.71Z"/><path class="cls-6" d="M363.15,114.71a.59.59,0,0,1-.6-.59v-3.24a3.31,3.31,0,0,1,3.31-3.31.59.59,0,1,1,0,1.18,2.13,2.13,0,0,0-2.12,2.13v3.24A.59.59,0,0,1,363.15,114.71Z"/><path class="cls-13" d="M394.79,112.21H246.42a1.19,1.19,0,0,1,0-2.38H394.79a1.19,1.19,0,0,1,0,2.38Z"/><path class="cls-6" d="M325,120.1a.6.6,0,0,1-.6-.6v-8.62a2.13,2.13,0,0,0-2.12-2.13.59.59,0,1,1,0-1.18,3.31,3.31,0,0,1,3.31,3.31v8.62A.59.59,0,0,1,325,120.1Z"/><path class="cls-6" d="M349.7,120.1a.6.6,0,0,1-.6-.6v-8.62a2.13,2.13,0,0,0-2.12-2.13.59.59,0,1,1,0-1.18,3.31,3.31,0,0,1,3.31,3.31v8.62A.6.6,0,0,1,349.7,120.1Z"/><path class="cls-6" d="M368.58,120.1a.59.59,0,0,1-.59-.6v-8.62a2.14,2.14,0,0,0-2.13-2.13.59.59,0,1,1,0-1.18,3.31,3.31,0,0,1,3.31,3.31v8.62A.59.59,0,0,1,368.58,120.1Z"/><polygon class="cls-14" points="324.56 139.03 316.59 119.43 318.79 118.53 324.72 133.12 331.84 118.02 333.99 119.03 324.56 139.03"/><path class="cls-15" d="M303.54,144s-7.8-17.67-6.4-23.36a4.16,4.16,0,0,1,.49-1.19l0-.07a6.89,6.89,0,0,1,5.41-3.34,6.64,6.64,0,0,1,5.52,3.29,4.69,4.69,0,0,1,.48,1.28C310,124.81,303.54,144,303.54,144Z"/><path class="cls-6" d="M303.06,120.1a.6.6,0,0,1-.59-.6v-8.62a2.13,2.13,0,0,0-2.12-2.13.59.59,0,1,1,0-1.18,3.31,3.31,0,0,1,3.31,3.31v8.62A.6.6,0,0,1,303.06,120.1Z"/><path class="cls-6" d="M317.79,126.05H288.34A.59.59,0,0,1,288,125c5.45-4.09,10.27-6.08,14.75-6.08h.66c4.48,0,9.31,2,14.75,6.08a.58.58,0,0,1,.21.66A.59.59,0,0,1,317.79,126.05Zm-27.61-1.18H316c-4.62-3.21-8.74-4.77-12.56-4.77h-.66C298.92,120.1,294.8,121.66,290.18,124.87Z"/><path class="cls-16" d="M322.72,170c0,34.1-.76,68-1.9,102H305.19c-.64-16.84-1.43-33.75-2.32-50.6s-1.91-33.7-3.12-50.47l23-1Z"/><path class="cls-16" d="M306.26,170.35c-.94,34.08-2.55,67.93-4.52,101.93l-14.48-.53c-.14-16.85-.4-33.78-.77-50.65s-.86-33.75-1.53-50.55l21.3-.2Z"/><path class="cls-15" d="M320.82,184.62c-18-7.67-38.24-1-38.24-1l18.28-8.07,21.55,4.83S321.57,185,320.82,184.62Z"/><path class="cls-16" d="M322.41,125.83c-.71,18.76-1.37,40.36-2.09,59.12-4.6-3.16-17.26-5.6-17.26-5.6s-10.66.43-17.92,3.46c-.71-18.4-1.84-38.05-2.56-56.46a4.72,4.72,0,0,1,3.43-4.58,55.51,55.51,0,0,1,11.65-2.43,4.36,4.36,0,0,0-.52,1.26c-1.4,5.69,6.4,23.36,6.4,23.36s6.42-19.15,5.53-23.39a4.69,4.69,0,0,0-.48-1.28,53.77,53.77,0,0,1,10.24,1.92A4.73,4.73,0,0,1,322.41,125.83Z"/><path class="cls-16" d="M328.7,189l-11.87-.46,1-26a51.77,51.77,0,0,0-1.74-15.47l-5.53-20.6s10.07-6.59,11.58-2.18c1.65,4.83,5.43,19.7,5.43,19.7a63.84,63.84,0,0,1,2.13,19Z"/><path class="cls-17" d="M309.15,133.29l.69,5.45-6.19,19.41-7.44-19.86,1.42-4.57-2.38-.95s-.59-7.61,2.35-13.33a4.46,4.46,0,0,0-.46,1.16c-1.4,5.69,6.4,23.36,6.4,23.36s6.42-19.15,5.53-23.39a4.69,4.69,0,0,0-.48-1.28,5.56,5.56,0,0,0-1.49-1.74c4.1,2,4.1,15,4.1,15Z"/><ellipse class="cls-15" cx="313" cy="272.01" rx="7.82" ry="0.72"/><path class="cls-15" d="M328.76,189c0,.59-2.71,1-6,.86s-5.94-.68-5.92-1.28,2.7-1,6-.86S328.78,188.42,328.76,189Z"/><path class="cls-15" d="M301.91,272.3c0,.39-3.31.61-7.36.47s-7.32-.57-7.31-1,3.31-.61,7.36-.47S301.92,271.9,301.91,272.3Z"/><path class="cls-15" d="M303.65,237.55a.3.3,0,0,1-.3-.29c-.12-17.74-.4-51.55-.58-52.55a.3.3,0,0,1,.18-.37.33.33,0,0,1,.39.19c.23.6.52,40.51.61,52.72a.29.29,0,0,1-.3.3Z"/><path class="cls-15" d="M316.83,188.9h0a.29.29,0,0,1-.29-.3l.9-29.33a18,18,0,0,0-.26-3.67l-1.85-10.29a.3.3,0,0,1,.24-.35.29.29,0,0,1,.35.24l1.84,10.3a18.46,18.46,0,0,1,.28,3.79l-.91,29.32A.29.29,0,0,1,316.83,188.9Z"/><path class="cls-15" d="M303.06,179.64a.31.31,0,0,1-.3-.29c-.05-3.84.11-9.1.28-14.67.28-9.34.57-19,0-24a.29.29,0,0,1,.25-.33.31.31,0,0,1,.34.26c.61,5,.32,14.7,0,24.06-.17,5.57-.32,10.83-.27,14.65a.29.29,0,0,1-.29.3Z"/><path class="cls-18" d="M287.05,122.29a19.49,19.49,0,0,1-2.55,8.86c-3.25,6.1-8.2,9.79-11.09,8.26a3,3,0,0,1-.75-.6l-.06,0c-.14-.17-.27-.36-.41-.57-1.83-2.93-3.28-10.1-3.28-10.1-.73-1.81-.12-4.77,1.59-7.87A32.94,32.94,0,0,1,283.24,119c1.16.14,2.57.5,3.71.76A9.19,9.19,0,0,1,287.05,122.29Z"/><path class="cls-19" d="M281.56,118.47a1.22,1.22,0,0,1-.07.17,21.63,21.63,0,0,1-2.62,4.42c-3.69,4.84-8.51,7.37-10.78,5.64a2.75,2.75,0,0,1-.86-1.17c-.72-1.81-.11-4.75,1.58-7.84,0,0,0,0,0,0a22.76,22.76,0,0,1,1.84-2.84c3.68-4.84,8.49-7.36,10.76-5.64a2.38,2.38,0,0,1,.77,1l.16.38C282.85,114,282.55,116.15,281.56,118.47Z"/><path class="cls-20" d="M175.72,4.56A4.56,4.56,0,1,1,171.16,0,4.56,4.56,0,0,1,175.72,4.56Z"/><circle class="cls-20" cx="142.69" cy="4.56" r="4.56"/><circle class="cls-20" cx="114.23" cy="4.56" r="4.56"/><circle class="cls-20" cx="199.62" cy="4.56" r="4.56"/><circle class="cls-20" cx="96.7" cy="48.51" r="4.56"/><circle class="cls-20" cx="96.7" cy="75.52" r="4.56"/><circle class="cls-20" cx="96.7" cy="102.54" r="4.56"/><circle class="cls-20" cx="96.7" cy="21.5" r="4.56"/><circle class="cls-20" cx="96.7" cy="156.56" r="4.56"/><circle class="cls-20" cx="96.7" cy="183.57" r="4.56"/><circle class="cls-20" cx="96.7" cy="210.58" r="4.56"/><circle class="cls-20" cx="96.7" cy="237.59" r="4.56"/><path class="cls-20" d="M96.7,260a4.56,4.56,0,1,1-4.55,4.56A4.56,4.56,0,0,1,96.7,260Z"/><path class="cls-20" d="M96.7,125a4.56,4.56,0,1,1-4.55,4.56A4.56,4.56,0,0,1,96.7,125Z"/><circle class="cls-20" cx="217.15" cy="48.51" r="4.56"/><circle class="cls-20" cx="217.15" cy="75.52" r="4.56"/><circle class="cls-20" cx="217.15" cy="102.54" r="4.56"/><circle class="cls-20" cx="217.15" cy="21.5" r="4.56"/><circle class="cls-20" cx="217.15" cy="156.56" r="4.56"/><circle class="cls-20" cx="217.15" cy="183.57" r="4.56"/><circle class="cls-20" cx="217.15" cy="210.58" r="4.56"/><circle class="cls-20" cx="217.15" cy="237.59" r="4.56"/><path class="cls-20" d="M217.15,260a4.56,4.56,0,1,1-4.56,4.56A4.56,4.56,0,0,1,217.15,260Z"/><path class="cls-20" d="M217.15,125a4.56,4.56,0,1,1-4.56,4.56A4.56,4.56,0,0,1,217.15,125Z"/><rect class="cls-21" x="101.26" y="9.11" width="111.33" height="265.99"/><rect class="cls-22" x="107.68" y="14.9" width="98.49" height="254.42"/><path class="cls-6" d="M278,120.1a.6.6,0,0,1-.59-.6v-8.62a2.13,2.13,0,0,0-2.12-2.13.59.59,0,1,1,0-1.18,3.31,3.31,0,0,1,3.31,3.31v8.62A.6.6,0,0,1,278,120.1Z"/><path class="cls-6" d="M292.77,126.05H263.32A.59.59,0,0,1,263,125c5.45-4.09,10.27-6.08,14.75-6.08h.66c4.48,0,9.31,2,14.75,6.08a.58.58,0,0,1,.21.66A.59.59,0,0,1,292.77,126.05Zm-27.62-1.18h25.78c-4.63-3.21-8.75-4.77-12.56-4.77h-.66C273.9,120.1,269.78,121.66,265.15,124.87Z"/><path class="cls-23" d="M271.27,131.09c-1.59,7.86-4.59,17.46-6,25.23l-4.82,27.19s0,.07,0,.11c-.15.93-2.61,1.27-5.48.78s-5-1.6-5-2.5a.15.15,0,0,0,0-.06c1.34-9.73,4.12-31.88,5.77-41.2,0,0,1-8.09,1.65-12.77a6.26,6.26,0,0,1,3.33-4.76l2-1Z"/><path class="cls-23" d="M303.54,181.83l-10.42,1.75L287.86,156c-1.62-8-3.54-19.49-5.27-27.55,0,0,2.07-9.46,4.36-8.66,1.32.47,3.26,1.38,3.26,1.38a8.39,8.39,0,0,1,4.69,6.22C296.77,138.66,301.74,168.86,303.54,181.83Z"/><ellipse class="cls-24" cx="298.34" cy="182.72" rx="5.28" ry="1.7" transform="translate(-26.1 51.83) rotate(-9.51)"/><path class="cls-23" d="M293.5,244.9H257.23c-1.55-27,.71-54.24,4.69-81.25,1.45-9.63-1.22-24.34-2.2-36.29a5.44,5.44,0,0,1,3-5.3,35.28,35.28,0,0,1,6.07-2.4c-1.71,3.1-2.31,6.06-1.59,7.86,0,0,1.45,7.18,3.28,10.1a5.26,5.26,0,0,0,.42.57s0,0,.06.05a2.6,2.6,0,0,0,.74.59c2.89,1.54,7.85-2.16,11.09-8.25a19.53,19.53,0,0,0,2.55-8.87c0-1-.36-1.15-.58-1.95.29.06,1.12.11,1.41.18,3,.77,4.71,2.88,4.46,6-1.07,12.92-3.86,28.33-2.71,36.47C292,189.54,295.06,217.75,293.5,244.9Z"/><path class="cls-25" d="M287.4,120c.31,9.91-13.43,45.56-13.43,45.56s-6.66-27.44-8.52-35.62A22.82,22.82,0,0,1,265,121a25,25,0,0,1,3.77-1.31c-1.69,3.09-2.3,6-1.58,7.84a2.75,2.75,0,0,0,.86,1.17c2.27,1.73,7.09-.8,10.78-5.64a21.63,21.63,0,0,0,2.62-4.42A26.7,26.7,0,0,1,287.4,120Z"/><path class="cls-25" d="M285.37,121.71a19.53,19.53,0,0,1-2.55,8.87c-3.24,6.09-8.2,9.79-11.09,8.25a2.6,2.6,0,0,1-.74-.59s-.05,0-.06-.05a5.26,5.26,0,0,1-.42-.57c-1.83-2.92-3.28-10.1-3.28-10.1a2.79,2.79,0,0,0,.86,1.18c2.27,1.72,7.09-.81,10.77-5.65a20.76,20.76,0,0,0,2.7-4.58c1-2.33,1.28-4.47.8-5.93l2.19,5.25a8.22,8.22,0,0,1,.48,1.26A9.73,9.73,0,0,1,285.37,121.71Z"/><path class="cls-19" d="M272.91,139.26a2.88,2.88,0,0,1-2.14-.82c-2.9-3-3.8-11.61-3.83-12a.3.3,0,1,1,.59-.06c0,.09.91,8.77,3.67,11.63a2.43,2.43,0,0,0,1.94.63c1.82-.11,4.82-1.62,7.77-5.53a25.6,25.6,0,0,0,3.92-8.47,10,10,0,0,0-.07-5.46l0-.07a.31.31,0,0,1,.21-.37.31.31,0,0,1,.37.21,10.65,10.65,0,0,1,.08,5.84,26.05,26.05,0,0,1-4,8.68c-2.57,3.4-5.71,5.62-8.21,5.77Z"/><path class="cls-24" d="M287.69,157.09a.3.3,0,0,1-.3-.29c-.07-3.56,1.66-18.56,1.74-19.19a.28.28,0,0,1,.33-.26.3.3,0,0,1,.26.33c0,.15-1.8,15.59-1.73,19.11a.3.3,0,0,1-.3.3Z"/><ellipse class="cls-24" cx="275.36" cy="244.88" rx="18.14" ry="1.49"/><path class="cls-24" d="M259.22,184.92h0a.3.3,0,0,1-.26-.33c0-.21,2.71-21,3.12-26.71s-1.68-18.73-1.7-18.87a.29.29,0,0,1,.24-.34.31.31,0,0,1,.34.25c0,.13,2.13,13.29,1.71,19s-3.09,26.53-3.12,26.74A.29.29,0,0,1,259.22,184.92Z"/><polygon class="cls-12" points="365.17 164.75 347.56 176.08 327.76 135.34 343.89 127.49 365.17 164.75"/><path class="cls-14" d="M347.65,176.13,345.93,173c.31-2.07,15.12-12.78,17.26-11.68l2,3.45A56.38,56.38,0,0,0,347.65,176.13Z"/><path class="cls-11" d="M355.9,169.66c-4.83,3.15-8.53,6-8.25,6.47s4.43-1.77,9.26-4.91,8.53-6,8.26-6.47S360.74,166.52,355.9,169.66Z"/><path class="cls-11" d="M347.41,176.31c-7.32-10.17-10.05-29.51-10.07-29.71l.58-.08c0,.19,2.74,19.39,10,29.44Z"/><path class="cls-9" d="M360.73,136c-.06.37-.19,1.17-.38,2.14C360.45,137.41,360.57,136.7,360.73,136Z"/><path class="cls-7" d="M394.72,137.84a4.19,4.19,0,0,0-1.88-.63,14.49,14.49,0,0,0-6,.79,10.72,10.72,0,0,0-4.92,3.08,5.68,5.68,0,0,0-.77,1.16c-.4-1.11-.75-2.12-1.11-3.1a13.43,13.43,0,0,1,6-3.72,17.38,17.38,0,0,1,7.08-.89C393.69,135.63,394.22,136.74,394.72,137.84Z"/><path class="cls-7" d="M396.8,142.83c-1.3-1.12-4.46-1.16-8.05,0a10.72,10.72,0,0,0-4.9,3.09,5.15,5.15,0,0,0-1,1.67c-.2-.71-.41-1.42-.6-2.06s-.3-1-.45-1.39a13.54,13.54,0,0,1,6.12-3.88,16.3,16.3,0,0,1,7.48-.82C395.93,140.6,396.39,141.74,396.8,142.83Z"/><path class="cls-5" d="M382.32,171.14a.29.29,0,0,1-.29-.29c-.06-2.88.9-12.08,1.47-17.07a12.44,12.44,0,0,0-.62-5.58c-.49-1.43-1.21-3.52-1.81-5.39-1.15-3.59-2-7.93-2-8a.3.3,0,1,1,.59-.11,78.85,78.85,0,0,0,2,7.91c.6,1.86,1.32,4,1.81,5.37a13.06,13.06,0,0,1,.65,5.85c-.57,5-1.52,14.14-1.47,17a.3.3,0,0,1-.29.3Z"/><path class="cls-5" d="M365.86,171.75h-.05a.3.3,0,0,1-.24-.35c2.24-11.69,0-32.39,0-32.59a.3.3,0,0,1,.26-.33.3.3,0,0,1,.33.26c0,.21,2.25,21,0,32.77A.28.28,0,0,1,365.86,171.75Z"/><path class="cls-5" d="M391.78,177.84c-.11.56-2.28.58-4.86.06s-4.56-1.41-4.45-2,2.29-.58,4.86-.05S391.9,177.29,391.78,177.84Z"/><g class="cls-26"><path class="cls-27" d="M147.26,100.08l-5.47-5.44c-.48-.52-1.16.5-.73,1.06l4.44,5.68c.93,1.2,2.8-.17,1.76-1.3Z"/><path class="cls-27" d="M89.18,295.36l26.53.67c.53-.65,0-1.8-1.5-2.11,0,0-9.34-2.06-12.22-3.38-1.89-.85-2.21-3.11-1.91-4.5L103.57,269l1.34-6.58,5-24.39-18.33-2.08-1,23.58-.35,8.64-.79,19.24-.9,2.66C87.77,291.81,87.22,294.38,89.18,295.36Z"/><path class="cls-28" d="M90.23,268.16c1.11.22,2.28.43,3.47.58a41.31,41.31,0,0,0,9.87.25l1.34-6.58a40.51,40.51,0,0,0-9.92-2.5c-1.52-.2-3-.34-4.41-.39Z"/><path class="cls-29" d="M132.75,250.82c9,3.15,17.06,3.71,17.91,1.27a1,1,0,0,0,.06-.25c.33-2.46-6.16-6.78-14.87-9.79C127,239,119.09,238.39,118,240.69l0,.09C117.12,243.2,123.73,247.69,132.75,250.82Z"/><path class="cls-28" d="M128.17,242.08a60.74,60.74,0,0,1,14.08,5l12.69-24-16.78-7.43Z"/><path class="cls-27" d="M111.81,275.06l5.71,17.7a1.87,1.87,0,0,0,1.71,1.24l12.93.32c1-.27.09-2-1.55-2.25,0,0-5.32-.82-5.79-2.77l-.61-2.88a11.08,11.08,0,0,1,.91-6.92l13.14-24.87,4-7.59a60.74,60.74,0,0,0-14.08-5l-3,7.91-7.14,18.93a3.38,3.38,0,0,1-2,2C115.41,271.15,111,272.36,111.81,275.06Z"/><polygon class="cls-27" points="103.46 126.87 103.62 127.5 104.87 132.22 106.16 137.12 132.28 136.54 134.47 126.17 103.46 126.87"/><path class="cls-30" d="M103.62,127.51l1.25,4.71a81.1,81.1,0,0,0,9.38.74c9.29.22,16.86-.92,16.9-2.53s-7.46-3.12-16.73-3.35A78.15,78.15,0,0,0,103.62,127.51Z"/><path class="cls-31" d="M98.72,157.07l39.47-2c.65-5.53-2.69-13.23-5.72-19.34h0c-1.83.57-7,1-13.07,1-6.8,0-12.44-.43-13.58-1.08h-.08C101.64,142.69,97.73,149.31,98.72,157.07Z"/><path class="cls-30" d="M138.2,123.59v0h0a.41.41,0,0,0,.14.21c.84.59,4.11-2.3,7.29-6.43a27.55,27.55,0,0,0,4.26-7.1,2.44,2.44,0,0,0,.15-.71l-.69-.7c-1.27.29-4,2.9-6.76,6.41C139.7,119.05,137.87,122.55,138.2,123.59Z"/><path class="cls-32" d="M149.36,108.88l.69.7a.69.69,0,0,0-.2-.67A.54.54,0,0,0,149.36,108.88Z"/><path class="cls-27" d="M125.89,109.63c3.23,2.6,6,5.1,8.71,7.59,1,.92,2,1.83,3,2.76.62.58,1.25,1.16,1.89,1.73,2.83,2.61,5.76,5.25,9.21,8,2.69,2.14,9,5.37,12.56,3.16,3.13-2,3.12-6,2-9.11a15.13,15.13,0,0,0-.95-2.15L151,102.13a10.52,10.52,0,0,0-3.85-3.45l-3.25-1.22-.86,2.6-.72,2.16-4.39-4-.26-.23-2,2Z"/><path class="cls-33" d="M96.87,104.59c.85,4.17,1.42,8.7,2,13.37.08.74.18,1.49.27,2.24.37,3,.78,6.14,1.27,9.21h0a1.69,1.69,0,0,1,0,.23c0,1.44,8,2.63,18,2.68s18-1.08,18-2.51c0,0,.42-3.42,1-8,.07-.58.15-1.19.22-1.82.7-5.42,1.52-11.94,2.1-16.44a6.46,6.46,0,0,0-1.75-5.32l-.26-.23a2.63,2.63,0,0,0-.38-.3A12.52,12.52,0,0,0,136,96.9a26.8,26.8,0,0,0-9.61-2.71,56.58,56.58,0,0,0-7.31-.31c-2.2.05-4.3.22-6.27.45-5.64.66-10.16,2-12.78,3.47a10.14,10.14,0,0,0-1.16.76,4.24,4.24,0,0,0-1.08,1.16A7,7,0,0,0,96.87,104.59Z"/><path class="cls-28" d="M119.64,68.27c.88,1.65,3.4,2.16,5.61,1.14s3.29-3.17,2.41-4.82-3.39-2.15-5.6-1.13S118.76,66.63,119.64,68.27Z"/><path class="cls-33" d="M128,122.15c1.83,3.17,5.74,4.49,8.72,2.95s3.9-5.34,2.06-8.49-5.73-4.46-8.7-2.93S126.2,119,128,122.15Z"/><polygon class="cls-27" points="114.76 82.7 114.33 97.44 124.06 97.67 124.44 82.92 114.76 82.7"/><path class="cls-30" d="M124,90.28a1.22,1.22,0,0,0,.24.1l.08-3.36c-1.59-.48-3-.4-3.28.24C120.65,88.06,122,89.42,124,90.28Z"/><path class="cls-30" d="M89.45,118C92.9,121,96.28,122.71,97,122s-1.54-3.7-5-6.61-6.81-4.65-7.51-3.93S86,115.13,89.45,118Z"/><path class="cls-27" d="M78.74,136.73c9.25,3.86,19.83,7.3,24,8.93l3.87-6.72L89.5,127.66l5.74-5.54.52-.51,3.11-3,1.43-1.38,4.94-4.79L109,108.8l-7.88-7.47-2.24-2.12a163.46,163.46,0,0,0-14.41,12.87c-5.65,5.61-10.94,11.58-12,15C71.3,130.71,73.14,134.4,78.74,136.73Z"/><path class="cls-30" d="M90.8,114.41c3.42,2.73,4.44,7.71,4.44,7.71l.52-.51,3.11-3,1.43-1.38-1.67-5.07S87.38,111.7,90.8,114.41Z"/><path class="cls-33" d="M84.47,111.43h0c.7-.72,4.06,1,7.51,3.93s5.69,5.87,5,6.61l2.16-1.78,11.6-8.63-1.1-5.46L103,99.73,100,97.8a10.14,10.14,0,0,0-1.16.76A162,162,0,0,0,84.47,111.43Z"/><path class="cls-27" d="M112.82,94.33a21.34,21.34,0,0,0,.67,2.91c2,6.61,6.51,11.21,10.06,10.25s4.72-6.85,2.85-13.3a56.58,56.58,0,0,0-7.31-.31C116.89,93.93,114.79,94.1,112.82,94.33Z"/><path class="cls-27" d="M111.54,80.74c3.92,6.74,13.72,9.93,18.25,7.62s4.72-10.76.77-17.45-10.22-8.55-15-6.81C110.09,66.09,107.64,74,111.54,80.74Z"/><path class="cls-27" d="M131,73.27l2.52,2a1.05,1.05,0,0,1-.41,1.86l-1.84.52Z"/><path class="cls-28" d="M106.78,82.73c2.67.58,5.2-1.93,6.51-5.79,0-.1.06-.21.09-.31,1.66-.26,2.76-2.27,4.43-3.3,4.5-2.75,8.35-6.54,6.26-9.15-1.68-2.09-7.79-3.8-12.27-.28-.53.42-1,.84-1.47,1.26a14.23,14.23,0,0,0-3.9,5.59,6.63,6.63,0,0,1-1.52,2.54,6.28,6.28,0,0,0-1.25,1.8C102.17,78.24,103.62,82,106.78,82.73Z"/><path class="cls-30" d="M103.66,75.09a9.43,9.43,0,0,0,4.89-3.56c1.82-2.35,2.48-4.92,1.78-6.37a14.23,14.23,0,0,0-3.9,5.59,6.63,6.63,0,0,1-1.52,2.54A6.28,6.28,0,0,0,103.66,75.09Z"/><path class="cls-28" d="M106.07,81.67c-.11,3.41,3.75,5.48,7,5.35,2-.07,4.33-.75,5.34-2.51a4.62,4.62,0,0,0,.39-3.1c-.17-1.29-.49-2.56-.69-3.84a6.09,6.09,0,0,1,2.31-6.13l-7.81-1.13-2.73,6.81A5.29,5.29,0,0,0,106.07,81.67Z"/><path class="cls-34" d="M118.24,84.76l0,0,.16-.2A1.37,1.37,0,0,1,118.24,84.76Z"/><path class="cls-27" d="M114.91,76.73c-.74,1.24.19,3,2.08,4s4,.77,4.77-.47-.2-3-2.09-4S115.65,75.5,114.91,76.73Z"/><path class="cls-33" d="M138.2,123.59c-.33-1,1.5-4.54,4.4-8.3,2.72-3.51,5.49-6.12,6.76-6.41-2.45-2.46-9-8.92-12.07-11.19A10.2,10.2,0,0,0,136,96.9l-.35,3.08-2.76,17.51Z"/><path class="cls-35" d="M117.59,79.89h-.07a2.54,2.54,0,0,1-1.32-1.46,1.23,1.23,0,0,1,.1-1c.45-.75,1.73-.89,2.84-.31a.14.14,0,0,1,.07.2.15.15,0,0,1-.2.06c-1-.5-2.08-.41-2.45.21a.9.9,0,0,0-.08.74,2.22,2.22,0,0,0,1.18,1.27.15.15,0,0,1,.06.2A.16.16,0,0,1,117.59,79.89Z"/><path class="cls-30" d="M139.57,122.11h-.06a.29.29,0,0,1-.23-.35c.9-4.49-4-9-4.09-9.06a.3.3,0,0,1,.4-.44c.21.19,5.24,4.8,4.27,9.61A.3.3,0,0,1,139.57,122.11Z"/><path class="cls-30" d="M122.4,123h-.06a.3.3,0,0,1-.23-.35c.93-4.49-4-9-4-9.06a.3.3,0,1,1,.4-.44c.21.2,5.21,4.8,4.21,9.62A.3.3,0,0,1,122.4,123Z"/><path class="cls-36" d="M144.86,102.42a.6.6,0,0,1-.59-.59l-.08-3.25a2.13,2.13,0,0,0-.66-1.5,1.91,1.91,0,0,0-1.4-.53.59.59,0,1,1,0-1.18,3.09,3.09,0,0,1,2.26.84,3.26,3.26,0,0,1,1,2.34l.07,3.26a.58.58,0,0,1-.57.6Z"/><path class="cls-36" d="M139.74,108.05a.59.59,0,0,1-.59-.58L139,98.8a3.33,3.33,0,0,1,3.12-3.43.59.59,0,1,1,0,1.18,2.15,2.15,0,0,0-2,2.22l.2,8.67a.61.61,0,0,1-.58.61Z"/><path class="cls-27" d="M105.35,138.09a13.21,13.21,0,0,1,3.14,2.28,2.68,2.68,0,0,1,.31,2.71c-.62,1.4-1.88,3.58-4.27,3.94a7,7,0,0,1-1.93,0,2.82,2.82,0,0,1-2.13-4.23h0S103.72,137.25,105.35,138.09Z"/><path class="cls-37" d="M104.79,147.06l-4.24,1.44a1,1,0,0,1-.92,0l-1.91-1.24a.82.82,0,0,1-.4-1.08c.34-.6.6-1.86,1.57-1.44s.17,1.46,0,2.09l-.4-1.07,2.13.81-.91,0,4-2a1.41,1.41,0,1,1,1.1,2.59Z"/><path class="cls-37" d="M105.18,145.22l-4.24,1.43a1,1,0,0,1-.91,0l-1.92-1.24-.11-.07c-.8-.52,0-1.48.23-2.08a.79.79,0,0,1,1.45.61L99.27,145l-.39-1.08,2.13.81-.91,0,4-2a1.41,1.41,0,1,1,1.1,2.6Z"/><path class="cls-31" d="M78.61,259.74h0c-.46,2.56,6.76,5.87,16.14,7.4,6.13,1,11.64,1,14.86.14,1.73-.45,2.79-1.13,2.95-2a.62.62,0,0,0,0-.13h0c1.45-5.37,2.73-11.62,4.26-26.31,1.07-10.11,2.25-24.16,3.66-44.47.86-12.32,1.73-29,2.61-41.11l-24.32-2C97,165.6,95.25,183.44,92,197.91,86.41,223.18,80.21,248.65,78.61,259.74Z"/><path class="cls-31" d="M138,206.41s-8.38,10.35-20,34.28h0c1-2.3,8.94-1.71,17.81,1.36,8.71,3,15.2,7.33,14.87,9.79,4.05-17.29,12.37-42.45,10.23-52.25-2.69-12.32-25-56-25-56l-21.65,14.16Z"/><path class="cls-30" d="M126.7,74a1,1,0,0,0,1.27.6.91.91,0,0,0,.25-1.3,1,1,0,0,0-1.27-.59A.9.9,0,0,0,126.7,74Z"/><path class="cls-35" d="M130.41,80.57a2.42,2.42,0,0,1-.37,0,4.34,4.34,0,0,1-2.53-1.72l-.14-.17a.15.15,0,0,1,0-.21.15.15,0,0,1,.21,0l.14.17a4,4,0,0,0,2.34,1.62c1.07.15,1.39-.4,1.4-.43a.15.15,0,0,1,.26.14A1.41,1.41,0,0,1,130.41,80.57Z"/><path class="cls-30" d="M127.1,69.84a30.66,30.66,0,0,1-2.76,2.08.31.31,0,0,1-.53-.2,3.21,3.21,0,0,1,2.9-2.79.53.53,0,0,1,.39.91Z"/><path class="cls-38" d="M124.94,239c2-.5,4.23-1,6.58-1.4-.12-1-.25-2.06-.38-3.08-.86-8.4-1.37-16.82-1.54-25.2s.53-16.76,0-25a183.93,183.93,0,0,0-3.12-24.5,182.26,182.26,0,0,1,1,24.52c-.16,8.31-1.7,16.55-2.09,24.92A295.35,295.35,0,0,0,124.94,239Z"/><path class="cls-27" d="M147.84,99.11,143,95.67a2,2,0,0,0-1.87-.11l-2.77,1.11c-.68.28.27,1,1,.83l2.29-.64c.31-.08.27-.08.41,0l4.31,3.88c1.19,1,2.76-.7,1.49-1.65Z"/><path class="cls-27" d="M147.42,99.4l-4.66-2.1L141,96.51a2.44,2.44,0,0,0-.9-.29,1.88,1.88,0,0,0-1.57.9l-1,1.37c-.49.52.55.81,1.08.32.32-.27,1.1-1,1.4-1.24,0,0,0,0,0,0s0,0,0,0l.28.16,6,3.52c1.39.76,2.54-1.21,1.1-1.9Z"/><path class="cls-27" d="M146.94,100.89l-5.25-2.54c-.28-.12-.59-.3-.9-.41-1.13-.45-2.4.7-3.24,1.21s.23,1.07.87.77,1.54-.93,1.8-.67l5.56,3.51c1.36.82,2.59-1.14,1.16-1.87Z"/><path class="cls-27" d="M144.34,100.64l-2.78-1.27a2.5,2.5,0,0,0-2.16-.26,9.84,9.84,0,0,0-1.51,1.28c-.55.44.31,1,.9.65a10.16,10.16,0,0,1,1.17-.64c.23,0,.14,0,.69.38l2.5,1.72c1.38.89,2.67-1.13,1.19-1.86Z"/><path class="cls-27" d="M141.31,101.24a14,14,0,0,0,4,3.66l.07,0s3.8,15.86,7.38,21.17,9-2.92,9-2.92l-14.54-22.82Z"/><path class="cls-35" d="M150.53,122.75a.15.15,0,0,1-.14-.11l-3.84-12.18a.15.15,0,0,1,.09-.19.15.15,0,0,1,.19.1l3.84,12.18a.15.15,0,0,1-.1.19Z"/><path class="cls-36" d="M124.51,116.5a.57.57,0,0,1-.52-.33.58.58,0,0,1,.1-.68c4.67-4.86,9-7.52,13.31-8.14l.64-.09c4.28-.62,9.18.72,15,4.07a.58.58,0,0,1,.29.62.61.61,0,0,1-.5.48l-28.19,4.06Zm15.6-8.2a13.42,13.42,0,0,0-1.91.14l-.63.09c-3.64.52-7.37,2.66-11.38,6.53l24.69-3.56C146.83,109.36,143.28,108.3,140.11,108.3Z"/><path class="cls-39" d="M150.21,115.41s0,.09,0,.22A.77.77,0,0,1,150.21,115.41Z"/><path class="cls-39" d="M112.71,245.25c.28,2.1,5.33,3.31,12.87,3.48,0-.23,0-.47-.07-.69a264.55,264.55,0,0,1-.09-38.8c.39-8.37,1.93-16.61,2.09-24.92a182.26,182.26,0,0,0-1-24.52,183.93,183.93,0,0,1,3.12,24.5c.54,8.29-.28,16.63,0,25s.68,16.8,1.54,25.2c.58,4.52,1,9.36,2,14,3.11-.18,6.46-.49,9.92-1,16.23-2.18,28.94-6.75,28.4-10.22,0,0,0,0,0-.07h0c-3.07-14.47-8.68-35.31-12.19-49.59-4.08-15.48-6.39-31.35-13-45.88v0a3.91,3.91,0,0,1,0-3.31l.38-.84a10.84,10.84,0,0,1,1.36-2.17,20.39,20.39,0,0,0,2.53-3.63,6.65,6.65,0,0,0,.66-4.16s-.89-10.46-.91-12.08c-.2,1.26-2.19,8.12-7.18,8.41-5.48.32-10.59-8.09-10.59-8.09s1.33,10.86-2.06,11.82-4.79-6-4.79-6-.2,8.09-.24,9.47a24.63,24.63,0,0,0,.75,7.39,4,4,0,0,1-.37,3c-8.11,14.65-9.85,31.75-12,48.28A291.76,291.76,0,0,0,112.71,245.25Z"/><path class="cls-39" d="M128.94,133.67h0a1.8,1.8,0,0,1-1.28-.65c-1.57-1.64-2.53-6.39-2.39-11.83.15-5.93,1.68-12.19,4.22-12.19h0c2.57.06,3.81,6.42,3.67,12.38-.12,5.44-1.31,10.14-2.95,11.71A1.9,1.9,0,0,1,128.94,133.67Zm.52-23.95c-1.52,0-3.33,4.7-3.5,11.49h0c-.13,5.17.77,9.83,2.18,11.32a1.17,1.17,0,0,0,.78.42,1.12,1.12,0,0,0,.8-.38c1.49-1.42,2.61-6,2.73-11.21.16-6.81-1.44-11.61-3-11.64Z"/><path class="cls-39" d="M146.33,132.17h0c-2.58-.06-3.85-6.68-3.73-12.88h0c.11-5.62,1.28-10.45,2.92-12a1.71,1.71,0,0,1,1.28-.57c2.56.06,3.84,6.63,3.74,12.78-.1,5.66-1.27,10.54-2.92,12.12A1.82,1.82,0,0,1,146.33,132.17Zm-3-12.86c-.14,7.1,1.48,12.1,3,12.13a1.09,1.09,0,0,0,.76-.36c1.5-1.44,2.61-6.22,2.7-11.61.11-7-1.5-12-3-12a1.13,1.13,0,0,0-.75.37c-1.49,1.42-2.6,6.15-2.7,11.51Z"/><path class="cls-28" d="M95.75,68.24a9.51,9.51,0,0,0,12.7.67c3.49-3.07,3.47-8.32,0-11.74a9.51,9.51,0,0,0-12.65-.67C92.27,59.55,92.26,64.8,95.75,68.24Z"/><path class="cls-35" d="M100.72,146.63h0l-1.34-.21a.14.14,0,0,1-.11-.09.12.12,0,0,1,0-.13s.6-1,.75-1.23a.16.16,0,0,1,.13-.07,15.71,15.71,0,0,0-2.72-1,.16.16,0,0,1-.11-.19.17.17,0,0,1,.19-.1,13.78,13.78,0,0,1,3.18,1.27,1.09,1.09,0,0,1,.61.84,1.22,1.22,0,0,1-.47.89A.18.18,0,0,1,100.72,146.63Zm-1.1-.48,1,.17a.89.89,0,0,0,.31-.61.82.82,0,0,0-.46-.6l-.27-.16a.15.15,0,0,1,0,.17Z"/><path class="cls-35" d="M97.78,145.33a.17.17,0,0,1-.1,0,.15.15,0,0,1,0-.21l.89-1a.15.15,0,0,1,.23.2l-.9,1A.13.13,0,0,1,97.78,145.33Z"/><path class="cls-35" d="M143.12,98.07h-.07l-2.66-1.38a1,1,0,0,0-1,0l-.8.61a.15.15,0,0,1-.21,0,.14.14,0,0,1,0-.2l.8-.62a1.28,1.28,0,0,1,1.36-.06l2.66,1.37a.15.15,0,0,1,.06.2A.16.16,0,0,1,143.12,98.07Z"/><path class="cls-35" d="M142.78,99.29h-.06l-2.2-1a1.76,1.76,0,0,0-1.37,0l-1.34.58a.15.15,0,0,1-.2-.07.16.16,0,0,1,.08-.2L139,98a2,2,0,0,1,1.6,0l2.2,1a.14.14,0,0,1,.07.19A.13.13,0,0,1,142.78,99.29Z"/><path class="cls-35" d="M138.32,100.1a.17.17,0,0,1-.13-.07.15.15,0,0,1,0-.2l1.12-.79a1.2,1.2,0,0,1,1.12-.12l2.09.86a.15.15,0,0,1-.12.28l-2.09-.86a.85.85,0,0,0-.83.09l-1.12.78Z"/><path class="cls-35" d="M90.51,128.48a.13.13,0,0,1-.08,0l-7-4.28a.16.16,0,0,1-.05-.21.16.16,0,0,1,.21,0l7,4.29a.14.14,0,0,1,0,.2A.13.13,0,0,1,90.51,128.48Z"/></g><path class="cls-13" d="M255.5,97.77V283.19H252V97.77a1.77,1.77,0,0,1,3.53,0Z"/><path class="cls-13" d="M389.23,97.77V283.19H385.7V97.77a1.77,1.77,0,0,1,3.53,0Z"/><polygon class="cls-40" points="206.18 14.9 206.18 87.25 107.68 156.52 107.68 60.34 172.29 14.9 206.18 14.9"/><polygon class="cls-40" points="206.18 124.94 206.18 190.76 107.68 260.04 107.68 194.2 206.18 124.94"/><polygon class="cls-40" points="126.5 269.32 206.18 211.1 206.18 269.32 126.5 269.32"/><path class="cls-41" d="M252.77,313.49v2.9a1.46,1.46,0,0,1,0,.36c-.77,13-43.36,23.46-95.8,23.46S62.1,329.8,61.12,316.85a3.55,3.55,0,0,1,0-.46v-3.05h.78c6-11.71,46.29-20.77,95.07-20.77,49,0,89.38,9.14,95.12,20.92Z"/><ellipse class="cls-42" cx="156.93" cy="313.34" rx="95.83" ry="23.82"/><path class="cls-43" d="M76.83,242.91v3c0,2.76-15.64,5-34.91,5S7,248.62,7,245.86v-3H9.12v1.23c4.88-1.94,17.73-3.31,32.8-3.31,14.52,0,27,1.28,32.24,3.11v-1Z"/><path class="cls-43" d="M56.1,308.23V310c0,2.77-6.36,5-14.18,5s-14.19-2.25-14.19-5v-1.76h.91c2-1.9,7.2-3.25,13.28-3.25s11.27,1.35,13.28,3.25Z"/><ellipse class="cls-44" cx="41.91" cy="308.22" rx="14.18" ry="5.02"/><path class="cls-43" d="M43.23,242.91v65c0,.28-.6.51-1.32.51s-1.31-.23-1.31-.51v-65Z"/><path class="cls-44" d="M76.83,242.91c0,2.78-15.63,5-34.92,5S7,245.69,7,242.91s15.63-5,34.91-5S76.83,240.14,76.83,242.91Z"/><path class="cls-43" d="M51.09,242.07c0,1.46-8.13,2.64-18.15,2.64s-18.15-1.18-18.15-2.64,8.12-2.64,18.15-2.64S51.09,240.61,51.09,242.07Z"/><path class="cls-45" d="M47.43,204.08v0h0Z"/><path class="cls-46" d="M41.52,208.26c-1.19,6.7.47,11.81,1.5,16.15a24.72,24.72,0,0,1,.11,10.68l-.21.95a21.49,21.49,0,0,1-1.75,4.76l0,.08c-.14.9-4.24,2-8.82,2s-8.75-.86-8.83-2l0-.06A21.5,21.5,0,0,1,21.7,236a26.32,26.32,0,0,1-.74-7.18c.18-5.51,3.45-11.9,2.12-21a33,33,0,0,0-6.33-15c1.26,1,7.79,1.85,15.56,1.85,8,0,14.6-.84,15.63-1.94A37,37,0,0,0,41.52,208.26Z"/><path class="cls-47" d="M48,192.66h0s0,0,0,0Z"/><path class="cls-48" d="M27.67,91.36c3.36,5.82,2.69,12.5-1.5,14.92s-10.31-.34-13.67-6.17S9.81,87.61,14,85.19,24.3,85.53,27.67,91.36Z"/><path class="cls-49" d="M16.87,125.75c2.22,2.54,2.17,6.23-.12,8.23s-5.94,1.56-8.17-1-2.18-6.23.11-8.23S14.64,123.2,16.87,125.75Z"/><path class="cls-48" d="M54.1,150.25c-3.14,3.92-7.6,5.56-10,3.66s-1.76-6.62,1.38-10.54,7.6-5.56,10-3.66S57.23,146.33,54.1,150.25Z"/><path class="cls-48" d="M4.85,158.73c-3.1-.71-5.24-2.88-4.79-4.85s3.33-3,6.42-2.27,5.24,2.88,4.79,4.85S7.94,159.44,4.85,158.73Z"/><path class="cls-49" d="M45.31,110.75c1.26-3.67,4.16-6,6.49-5.19s3.2,4.42,1.94,8.09-4.17,6-6.5,5.19S44.05,114.42,45.31,110.75Z"/><path class="cls-4" d="M43.66,174c-3.3,1.9-5.69,3.93-5.35,4.52s3.29-.47,6.59-2.37,5.68-3.93,5.34-4.52S47,172.14,43.66,174Z"/><path class="cls-4" d="M39.94,128.48c.76,3.73,1.92,6.64,2.6,6.5s.59-3.27-.17-7-1.93-6.63-2.6-6.5S39.17,124.76,39.94,128.48Z"/><path class="cls-4" d="M45.66,126.13c-1.46,2-2.35,3.86-2,4.13s1.84-1.16,3.31-3.18,2.35-3.87,2-4.13S47.13,124.11,45.66,126.13Z"/><path class="cls-4" d="M22.86,144.53c-.63,2.41-.79,4.45-.36,4.57s1.3-1.75,1.93-4.16.79-4.46.36-4.58S23.49,142.11,22.86,144.53Z"/><path class="cls-4" d="M29.59,117.82c-.93,4.79-1,8.8-.13,9s2.32-3.58,3.25-8.36,1-8.79.13-9S30.52,113,29.59,117.82Z"/><path class="cls-4" d="M29.16,153.53c1.49,3.16,3.16,5.49,3.73,5.22s-.19-3-1.68-6.19-3.16-5.49-3.73-5.22S27.66,150.38,29.16,153.53Z"/><path class="cls-4" d="M16.9,162.32c1.49,3.15,3.16,5.49,3.73,5.22s-.18-3-1.68-6.19-3.16-5.49-3.73-5.22S15.41,159.17,16.9,162.32Z"/><path class="cls-4" d="M20.5,175.47c2.6-.11,4.69-.59,4.67-1.06s-2.15-.75-4.75-.63-4.69.59-4.67,1.06S17.9,175.59,20.5,175.47Z"/><path class="cls-4" d="M17.35,151c3.57,1.77,6.72,2.69,7,2.05s-2.32-2.6-5.89-4.38-6.72-2.69-7-2S13.78,149.18,17.35,151Z"/><path class="cls-4" d="M39.77,165.3c-.14,3.09.19,5.61.75,5.63s1.12-2.45,1.26-5.53-.18-5.61-.74-5.63S39.92,162.22,39.77,165.3Z"/><ellipse class="cls-50" cx="321.62" cy="54.25" rx="23.3" ry="24.86" transform="translate(-4.24 68.39) rotate(-12.06)"/><path class="cls-51" d="M332.61,51.9c1.38,6.47-2.43,12.78-8.49,14.07s-12.1-2.91-13.49-9.38a14,14,0,0,1-.24-1.79v0a11.14,11.14,0,0,1,21.71-4.64v0A12.47,12.47,0,0,1,332.61,51.9Z"/><path class="cls-52" d="M332.09,50.14v0c1.52,6.48-3.25,11.08-8.74,12.25s-12.23-1.27-13-7.61v0a11.14,11.14,0,0,1,21.71-4.64Z"/><ellipse class="cls-53" cx="270.05" cy="54.25" rx="6.88" ry="11.42"/><ellipse class="cls-2" cx="270.05" cy="52.13" rx="5.04" ry="9.3"/><path class="cls-53" d="M272.63,50c0,4-1.16,7.16-2.58,7.16S267.47,54,267.47,50s1.16-7.16,2.58-7.16S272.63,46,272.63,50Z"/><circle class="cls-54" cx="374.44" cy="54.25" r="19.2" transform="translate(234.92 405.94) rotate(-76.61)"/><path class="cls-55" d="M383.67,54.26a9.24,9.24,0,1,1-17-5c.64-1,1.37-1.92,2.06-2.87l0,.64a9.29,9.29,0,0,1,11.59.12v-.52a27.29,27.29,0,0,1,2.42,3.6A9.1,9.1,0,0,1,383.67,54.26Z"/><ellipse class="cls-56" cx="374.44" cy="51.01" rx="7.23" ry="7.58"/><ellipse class="cls-41" cx="188.68" cy="310.62" rx="54.56" ry="7.55"/><path class="cls-57" d="M172,117l5.49-5.59c.49-.54,1.13.56.7,1.13l-4.48,5.86A1.11,1.11,0,1,1,172,117Z"/><path class="cls-57" d="M222.35,310.61H197.87c-.47-.62.06-1.66,1.44-1.91,0,0,8.67-1.69,11.37-2.84,1.77-.74,2.13-2.83,1.89-4.12l-2.73-16-1.06-6.22-4-23.27,17.29-1.56.13,22.44,0,8.14.11,18,.74,2.48C223.76,307.37,224.19,309.76,222.35,310.61Z"/><path class="cls-58" d="M222.26,285.29c-1,.18-2.12.35-3.24.47a38.39,38.39,0,0,1-9.18,0l-1.06-6.22a37.61,37.61,0,0,1,9.33-2.12c1.42-.16,2.81-.25,4.12-.27Z"/><path class="cls-59" d="M183.08,267.92c-8.51,2.77-16,3.12-16.78.79a1.09,1.09,0,0,1,0-.24c-.28-2.35,5.87-6.31,14.09-9,8.39-2.72,15.81-3.1,16.74-.88l0,.1C197.88,261,191.59,265.17,183.08,267.92Z"/><path class="cls-58" d="M187.55,259.71a56.24,56.24,0,0,0-13.3,4.4L162.7,240.77l16-6.79Z"/><path class="cls-57" d="M202,291.25l-5.74,16.3a1.71,1.71,0,0,1-1.6,1.1H182.75c-.91-.27-.05-1.82,1.47-2,0,0,4.93-.63,5.41-2.43l.63-2.66a10.45,10.45,0,0,0-.69-6.45L177.85,271.4l-3.6-7.29a56.24,56.24,0,0,1,13.3-4.4l2.61,7.61,6.22,18a3.15,3.15,0,0,0,1.81,1.93C198.78,287.5,202.85,288.74,202,291.25Z"/><polygon class="cls-57" points="214.27 146 214.09 146.65 212.72 151.48 211.32 156.47 185.96 155.23 184.06 144.51 214.27 146"/><path class="cls-60" d="M214.09,146.65l-1.37,4.83a74.64,74.64,0,0,1-9.14.52c-9.05,0-16.39-1.36-16.39-3s7.34-3,16.39-3A71.39,71.39,0,0,1,214.09,146.65Z"/><path class="cls-61" d="M217.89,176.94l-38-3c-.52-5.62,2.87-13.37,5.95-19.56h0c1.76.64,6.76,1.2,12.68,1.37,6.6.2,12.1-.14,13.23-.78h.07C215.53,162.27,219.1,169.1,217.89,176.94Z"/><path class="cls-60" d="M180.47,141.76l0,0h0a.32.32,0,0,1-.14.21c-.83.59-4-2.48-7-6.84a29.63,29.63,0,0,1-4.05-7.5,2.88,2.88,0,0,1-.13-.74l.69-.72c1.24.34,3.91,3.13,6.51,6.86C179.09,137,180.81,140.69,180.47,141.76Z"/><path class="cls-62" d="M169.82,126.19l-.69.72c0-.35.05-.59.2-.69A.51.51,0,0,1,169.82,126.19Z"/><path class="cls-57" d="M192.82,127.56c-3.23,2.64-6,5.17-8.71,7.69q-1.49,1.38-3,2.79c-.61.58-1.24,1.16-1.87,1.74-2.82,2.63-5.73,5.28-9.14,8-2.65,2.13-8.89,5.3-12.27,2.94-3-2.11-3-6.31-1.88-9.44a15.21,15.21,0,0,1,1-2.2l11.39-20a10.5,10.5,0,0,1,3.85-3.53l3.22-1.2.8,2.76.66,2.28,4.4-4.09.26-.24,1.94,2.14Z"/><path class="cls-63" d="M221.46,123c-1,4.34-1.69,9-2.42,13.88-.1.77-.22,1.54-.34,2.31-.46,3.15-1,6.34-1.54,9.49h0v.23c0,1.48-7.89,2.51-17.56,2.31s-17.48-1.55-17.45-3c0,0-.34-3.54-.83-8.29q-.09-.92-.18-1.89c-.57-5.65-1.24-12.47-1.72-17.19a7.06,7.06,0,0,1,1.83-5.54l.26-.24a3.68,3.68,0,0,1,.38-.31,11.11,11.11,0,0,1,1.29-.79,24.91,24.91,0,0,1,9.52-2.62,49.2,49.2,0,0,1,7.22-.14,60.08,60.08,0,0,1,6.17.63c5.54.83,9.95,2.33,12.48,4a7.94,7.94,0,0,1,1.12.83,4.16,4.16,0,0,1,1,1.25A7.8,7.8,0,0,1,221.46,123Z"/><path class="cls-58" d="M200.08,83.94c-.92,1.74-3.44,2.23-5.61,1.08s-3.2-3.5-2.28-5.24,3.44-2.23,5.61-1.08S201,82.19,200.08,83.94Z"/><path class="cls-63" d="M190.42,140.52c-1.86,3.23-5.7,4.49-8.57,2.83s-3.7-5.62-1.84-8.84,5.7-4.5,8.58-2.84S192.29,137.29,190.42,140.52Z"/><rect class="cls-57" x="194.93" y="99.47" width="9.59" height="15.6"/><path class="cls-60" d="M195.16,107.29l-.23.09v-3.56c1.59-.47,2.94-.35,3.24.34C198.54,105,197.2,106.42,195.16,107.29Z"/><path class="cls-60" d="M228.25,137.22c-3.48,2.93-6.84,4.67-7.49,3.9s1.62-3.81,5.12-6.74,6.84-4.67,7.49-3.9S231.75,134.28,228.25,137.22Z"/><path class="cls-57" d="M238,156.74c-9.12,3.72-19.51,7-23.63,8.53l-3.54-7,17-11.16-5.41-5.87-.48-.53L219,137.57l-1.35-1.47L213,131l-3.58-3.88,8-7.63,2.27-2.17a159.7,159.7,0,0,1,13.69,13.83c5.31,6,10.23,12.28,11.13,15.81C245.46,150.75,243.51,154.49,238,156.74Z"/><path class="cls-60" d="M227.06,133.42c-3.44,2.74-4.62,7.87-4.62,7.87l-.48-.53L219,137.57l-1.35-1.47,1.8-5.23S230.51,130.67,227.06,133.42Z"/><path class="cls-63" d="M233.37,130.47h0c-.65-.77-4,1-7.49,3.9s-5.78,6-5.12,6.74l-2.06-1.91L207.63,130l1.23-5.67,6.75-6.52,3-2a7.94,7.94,0,0,1,1.12.83A161.51,161.51,0,0,1,233.37,130.47Z"/><path class="cls-57" d="M206.09,111.84a23.16,23.16,0,0,1-.74,3c-2.17,6.89-6.72,11.6-10.17,10.5s-4.47-7.29-2.48-14a49.2,49.2,0,0,1,7.22-.14A60.08,60.08,0,0,1,206.09,111.84Z"/><path class="cls-57" d="M207.76,97.48c-4.08,7-13.84,10.18-18.26,7.62s-4.42-11.55-.35-18.61,10.4-8.93,15.1-6.94C209.64,81.84,211.83,90.42,207.76,97.48Z"/><path class="cls-57" d="M188.68,89l-2.55,2.07a1.16,1.16,0,0,0,.37,2l1.81.6Z"/><path class="cls-58" d="M212.42,99.71c-2.67.55-5.1-2.19-6.28-6.33,0-.11-.06-.23-.08-.34-1.64-.32-2.67-2.49-4.3-3.63-4.4-3.07-8.13-7.23-6-10,1.72-2.21,7.87-3.91,12.23,0a18.9,18.9,0,0,1,1.42,1.4,15.29,15.29,0,0,1,3.71,6.1,7.1,7.1,0,0,0,1.43,2.75,6.88,6.88,0,0,1,1.18,2C217.12,95,215.56,99,212.42,99.71Z"/><path class="cls-60" d="M215.75,91.64A9.37,9.37,0,0,1,211,87.71c-1.73-2.57-2.31-5.35-1.58-6.88a15.29,15.29,0,0,1,3.71,6.1,7.1,7.1,0,0,0,1.43,2.75A6.88,6.88,0,0,1,215.75,91.64Z"/><path class="cls-58" d="M213.15,98.59c0,3.64-3.88,5.73-7.14,5.51-2-.13-4.25-.9-5.2-2.79a5.29,5.29,0,0,1-.3-3.31c.21-1.37.56-2.71.79-4.08a6.66,6.66,0,0,0-2.12-6.6l7.79-1,2.51,7.35A5.53,5.53,0,0,1,213.15,98.59Z"/><path class="cls-64" d="M201,101.57l0,0c-.06-.07-.1-.14-.15-.21A2.11,2.11,0,0,0,201,101.57Z"/><path class="cls-57" d="M204.53,93.12c.7,1.33-.27,3.22-2.17,4.21s-4,.72-4.71-.61.28-3.23,2.18-4.22S203.84,91.78,204.53,93.12Z"/><path class="cls-63" d="M180.47,141.76c.34-1.07-1.38-4.74-4.14-8.71-2.6-3.73-5.27-6.52-6.51-6.86,2.45-2.5,9-9.11,12.07-11.43a8.71,8.71,0,0,1,1.29-.79l.27,3.24,2.33,18.36Z"/><path class="cls-65" d="M201.8,96.41a.13.13,0,0,1-.13-.08.15.15,0,0,1,.06-.2c1-.52,1.49-1.48,1.14-2.15s-1.43-.79-2.41-.28a.15.15,0,0,1-.14-.26c1.13-.59,2.39-.41,2.82.41s-.15,2-1.27,2.54Z"/><path class="cls-60" d="M179.16,140.18a.3.3,0,0,1-.29-.24c-.85-5,4.16-9.67,4.38-9.86a.3.3,0,0,1,.4.44c-.05,0-5,4.64-4.19,9.32a.29.29,0,0,1-.24.34Z"/><path class="cls-60" d="M195.91,141.54a.3.3,0,0,1-.3-.24c-.85-5,4.16-9.66,4.38-9.86a.3.3,0,1,1,.4.44s-5,4.64-4.19,9.32a.29.29,0,0,1-.24.34Z"/><path class="cls-6" d="M174.36,119.51h0a.59.59,0,0,1-.57-.62l.14-3.41A3.48,3.48,0,0,1,175,113a2.93,2.93,0,0,1,2.19-.77.6.6,0,0,1-.08,1.19,1.76,1.76,0,0,0-1.32.46,2.38,2.38,0,0,0-.74,1.65l-.13,3.41A.6.6,0,0,1,174.36,119.51Z"/><path class="cls-6" d="M179.28,125.54h0a.59.59,0,0,1-.57-.62l.36-9.08a2.23,2.23,0,0,0-1.9-2.42.61.61,0,0,1-.56-.64.59.59,0,0,1,.64-.55,3.42,3.42,0,0,1,3,3.66l-.36,9.08A.6.6,0,0,1,179.28,125.54Z"/><path class="cls-57" d="M212.08,157.48a12.7,12.7,0,0,0-3.12,2.26,2.81,2.81,0,0,0-.38,2.75c.55,1.44,1.71,3.69,4,4.12a6.83,6.83,0,0,0,1.87,0,2.93,2.93,0,0,0,2.21-4.26h0S213.69,156.67,212.08,157.48Z"/><path class="cls-57" d="M213.52,164.07l3.79,2.16h-.95l2.1-.78-.41,1-.36-1.14a.78.78,0,0,1,1.47-.54l.47,1.1a.83.83,0,0,1-.42,1.05l-1.88,1.21a1,1,0,0,1-1,0l-4.07-1.58a1.41,1.41,0,1,1,1.21-2.54Z"/><path class="cls-57" d="M213.2,162.18l3.79,2.16h-1l2.1-.78-.42,1-.35-1.14a.79.79,0,0,1,.51-1c.94-.28,1.13,1,1.43,1.55a.83.83,0,0,1-.42,1.05L217,166.29a.93.93,0,0,1-.94,0L212,164.72a1.41,1.41,0,1,1,1.21-2.54Z"/><path class="cls-61" d="M233.39,277.64h0c.33,2.43-6.51,5.37-15.29,6.58-5.73.8-10.86.66-13.83-.21-1.59-.46-2.57-1.13-2.69-2a.57.57,0,0,1,0-.12h0c-1.22-5.1-2.25-11-3.31-25.06-.75-9.73-1.51-23.34-2.34-43.26-.51-12.21-.92-28.93-1.47-41.13L217.94,171c1.35,14.56,2.41,32.41,5,46.79C227.39,242.56,232.29,267.1,233.39,277.64Z"/><path class="cls-61" d="M179,225s7.73,10.28,18.08,33.6h0c-.93-2.22-8.35-1.84-16.74.88-8.22,2.66-14.37,6.62-14.09,9-3.56-16.6-11.1-41.14-8.95-50.69,2.72-12.09,24.91-55.43,24.91-55.43l20.6,14.9Z"/><path class="cls-60" d="M192.92,89.87a.88.88,0,1,1-.22-1.4A1,1,0,0,1,192.92,89.87Z"/><path class="cls-65" d="M189.13,96.81a1.44,1.44,0,0,1-1.37-.68.15.15,0,0,1,.08-.2A.15.15,0,0,1,188,96s.31.62,1.38.5a4,4,0,0,0,2.35-1.67l.15-.18a.15.15,0,1,1,.22.2L192,95a4.22,4.22,0,0,1-2.55,1.77A1.67,1.67,0,0,1,189.13,96.81Z"/><path class="cls-60" d="M193,84.51a3.3,3.3,0,0,1,2.8,3,.3.3,0,0,1-.53.18,34.61,34.61,0,0,1-2.74-2.38.51.51,0,0,1,.47-.83Z"/><path class="cls-66" d="M190.65,256.87c-1.88-.52-4-1-6.14-1.49.13-1,.27-2,.41-2.95,1-8.06,1.65-16.19,2-24.34s-.13-16.46.57-24.65A190,190,0,0,1,191,179a191.46,191.46,0,0,0-1.57,24.5c0,8.22,1.24,16.37,1.42,24.57C191.21,237.67,191.28,247.27,190.65,256.87Z"/><path class="cls-57" d="M171.48,116l4.84-3.51a1.89,1.89,0,0,1,1.85-.07l2.7,1.25c.67.31-.29,1.08-1,.85l-2.25-.74c-.29-.09-.26-.09-.39,0-.54.5-3.71,3.42-4.32,4a1.14,1.14,0,1,1-1.44-1.76Z"/><path class="cls-57" d="M171.89,116.31l4.62-2.09,1.74-.79a2.21,2.21,0,0,1,.89-.28,1.85,1.85,0,0,1,1.53,1l1,1.47c.47.56-.56.83-1.07.31l-1.35-1.33s0,0,0,0,0,0,0,0l-.28.16-6,3.54a1.14,1.14,0,1,1-1.05-2Z"/><path class="cls-57" d="M172.33,117.89l5.22-2.53c.27-.12.58-.31.89-.42,1.12-.45,2.35.8,3.17,1.35s-.25,1.12-.87.79-1.5-1-1.77-.74l-5.53,3.54a1.14,1.14,0,1,1-1.11-2Z"/><path class="cls-57" d="M174.9,117.69l2.76-1.27a2.34,2.34,0,0,1,2.13-.22,10.27,10.27,0,0,1,1.46,1.39c.53.47-.32,1-.91.65a11.15,11.15,0,0,0-1.13-.69c-.23,0-.14,0-.69.38L176,119.67a1.14,1.14,0,1,1-1.13-2Z"/><path class="cls-57" d="M177.87,118.39a13.88,13.88,0,0,1-4,3.74l-.07,0s-4,16.42-7.57,21.82-8.77-3.24-8.77-3.24l14.6-23.43Z"/><path class="cls-65" d="M168.45,140.58h0a.14.14,0,0,1-.09-.19l4-12.56a.15.15,0,0,1,.19-.1.14.14,0,0,1,.09.19l-4,12.56A.15.15,0,0,1,168.45,140.58Z"/><path class="cls-6" d="M194,134.72h-.11l-27.52-4.92a.6.6,0,0,1-.2-1.1c5.74-3.36,10.57-4.63,14.78-3.88l.62.12c4.2.75,8.41,3.63,12.88,8.81a.59.59,0,0,1,.06.68A.57.57,0,0,1,194,134.72Zm-25.79-5.81,24.2,4.33c-3.85-4.16-7.48-6.51-11.05-7.14l-.62-.12C177.19,125.34,173.08,126.3,168.23,128.91Z"/><path class="cls-67" d="M168.88,133s0,.1,0,.23A.77.77,0,0,0,168.88,133Z"/><path class="cls-68" d="M202,263.1c-.32,2-5.08,3-12.14,3,0-.22.06-.44.08-.66a260.52,260.52,0,0,0,1-37.36c-.18-8.2-1.45-16.35-1.42-24.57A191.46,191.46,0,0,1,191,179a190,190,0,0,0-3.55,24.42c-.7,8.19-.11,16.42-.57,24.65s-1,16.28-2,24.34c-.64,4.32-1.16,8.93-2.12,13.34-2.92-.24-6-.62-9.27-1.14-15.17-2.46-27-7.13-26.51-10.43,0,0,0,0,0-.07h0c3-13.85,8.57-34,12.08-48,4.11-15.3,6.57-31.21,13.24-45.81,0,0,0,0,0,0a4.19,4.19,0,0,0,.07-3.38l-.36-.87a10.71,10.71,0,0,0-1.28-2.26,21.45,21.45,0,0,1-2.4-3.79,7.85,7.85,0,0,1-.68-3.11,6.42,6.42,0,0,1,.11-1.19s1-10.8,1.08-12.49c.18,1.32,2,8.48,6.87,8.9,5.35.47,10.51-8.12,10.51-8.12s-1.53,11.21,1.75,12.28,4.81-6,4.81-6V150a26.72,26.72,0,0,1-.9,7.55,4.27,4.27,0,0,0,.29,3.1c7.47,15.08,8.68,32.31,10.27,48.79A289.36,289.36,0,0,1,202,263.1Z"/><path class="cls-68" d="M189.3,152.36c-2.52,0-3.88-6.58-3.88-12.77s1.36-12.76,3.88-12.76,3.88,6.58,3.88,12.76S191.82,152.36,189.3,152.36Zm0-24.81c-1.5,0-3.17,5-3.17,12s1.67,12,3.17,12,3.16-4.95,3.16-12S190.8,127.55,189.3,127.55Z"/><path class="cls-68" d="M172.41,150.39c-2.52,0-3.89-6.8-3.89-13.19s1.37-13.2,3.89-13.2,3.89,6.8,3.89,13.2S174.94,150.39,172.41,150.39Zm0-25.66c-1.49,0-3.16,5.12-3.16,12.47s1.67,12.46,3.16,12.46,3.16-5.12,3.16-12.46S173.91,124.73,172.41,124.73Z"/><path class="cls-58" d="M223.85,84.5c-3.61,3.61-9.27,3.79-12.65.4s-3.21-9,.4-12.65,9.27-3.78,12.65-.4S227.45,80.9,223.85,84.5Z"/><path class="cls-65" d="M216.3,166.3a.13.13,0,0,1-.1,0,1.23,1.23,0,0,1-.42-.92,1.11,1.11,0,0,1,.61-.83,13.67,13.67,0,0,1,3.13-1.22.15.15,0,0,1,.18.11.14.14,0,0,1-.1.18,14.47,14.47,0,0,0-2.69,1,.14.14,0,0,1,.14.08c.14.24.69,1.27.69,1.27a.15.15,0,0,1,0,.13.12.12,0,0,1-.11.08l-1.31.19Zm.5-1.69-.25.15a.81.81,0,0,0-.47.6.88.88,0,0,0,.27.63l1-.14-.59-1.08A.15.15,0,0,1,216.8,164.61Z"/><path class="cls-65" d="M219.19,165.06a.16.16,0,0,1-.12-.06l-.83-1.05a.15.15,0,1,1,.23-.19l.84,1.06a.15.15,0,0,1,0,.21A.16.16,0,0,1,219.19,165.06Z"/><path class="cls-65" d="M176.15,115a.15.15,0,0,1-.07-.28l2.65-1.39a1.2,1.2,0,0,1,1.34.11l.78.66a.16.16,0,0,1,0,.21.15.15,0,0,1-.21,0l-.78-.67a.91.91,0,0,0-1-.07L176.22,115Z"/><path class="cls-65" d="M176.46,116.31a.14.14,0,0,1-.13-.09.15.15,0,0,1,.07-.2l2.19-1a1.82,1.82,0,0,1,1.58,0l1.31.64a.14.14,0,0,1,.07.2.14.14,0,0,1-.2.07l-1.31-.64a1.55,1.55,0,0,0-1.33,0l-2.19,1Z"/><path class="cls-65" d="M180.84,117.26a.14.14,0,0,1-.09,0l-1.09-.85a.82.82,0,0,0-.81-.11l-2.07.85a.15.15,0,0,1-.12-.28l2.08-.85a1.12,1.12,0,0,1,1.11.16l1.08.85a.14.14,0,0,1,0,.21A.14.14,0,0,1,180.84,117.26Z"/><path class="cls-65" d="M226.84,148a.15.15,0,0,1-.08-.27l7-4.25a.15.15,0,1,1,.15.25l-7,4.25Z"/></g></g></svg>