<svg xmlns="http://www.w3.org/2000/svg" viewBox="0 0 652.39 420.89"><defs><style>.cls-1{fill:#cabcb0;}.cls-2{opacity:0.4;}.cls-3{fill:#ccb68e;}.cls-4{fill:#5f2418;}.cls-5{fill:#9c4f2e;}.cls-6{fill:#9e4f2e;}.cls-7{fill:#1e1d12;}.cls-8{fill:#80784b;}.cls-9{fill:#5c6bbc;}.cls-10{fill:#8798fb;}.cls-11{fill:#fff;}.cls-12{fill:#20276c;}.cls-13{fill:#b0a87d;}.cls-14{fill:#d9d2a9;}.cls-15{fill:#4c492b;}.cls-16{fill:#605e4b;}.cls-17{fill:#bd7049;}.cls-18{fill:#e69482;}.cls-19{fill:#a8494a;}.cls-20{opacity:0.5;}.cls-21{fill:#4c332c;}.cls-22{fill:#aa584f;}</style></defs><g id="Layer_2" data-name="Layer 2"><g id="OBJECTS"><ellipse class="cls-1" cx="321.85" cy="410.93" rx="321.85" ry="9.96"/><g class="cls-2"><path class="cls-3" d="M184.51,305.64a169.83,169.83,0,0,1-84.78-38.36c-31.1-26.45-59-69.59-37.56-133.71C102.76,12.1,286.94-8.07,370.8,20,504.07,64.52,565.14,244.81,382,303.22,336.44,317.75,234.12,313.11,184.51,305.64Z"/></g><path class="cls-3" d="M453.64,60.52a.53.53,0,0,1-.42-.2c-.23-.3-.46-.6-.7-.89a.53.53,0,1,1,.83-.65l.7.9a.52.52,0,0,1-.09.73A.5.5,0,0,1,453.64,60.52Zm-3.2-3.94a.51.51,0,0,1-.4-.19c-.67-.78-1.36-1.58-2.06-2.36a.52.52,0,0,1,.78-.7c.71.79,1.41,1.59,2.08,2.39a.52.52,0,0,1-.06.74A.54.54,0,0,1,450.44,56.58Zm-4.74-5.26a.51.51,0,0,1-.38-.16c-.72-.75-1.46-1.5-2.2-2.24a.52.52,0,1,1,.74-.74c.75.74,1.5,1.5,2.22,2.25a.52.52,0,0,1,0,.74A.51.51,0,0,1,445.7,51.32Zm-5.05-5a.54.54,0,0,1-.36-.14c-.76-.71-1.54-1.42-2.32-2.11a.54.54,0,0,1,0-.75.53.53,0,0,1,.74,0c.78.7,1.57,1.41,2.34,2.13a.52.52,0,0,1,0,.74A.52.52,0,0,1,440.65,46.35Zm-5.31-4.69a.5.5,0,0,1-.34-.13c-.79-.66-1.61-1.33-2.43-2a.53.53,0,0,1-.08-.74.52.52,0,0,1,.74-.08c.83.66,1.65,1.33,2.45,2a.53.53,0,0,1-.34.93Zm-5.55-4.42a.5.5,0,0,1-.31-.1c-.83-.63-1.68-1.26-2.53-1.87a.52.52,0,0,1-.11-.73.52.52,0,0,1,.73-.12c.85.62,1.71,1.25,2.54,1.88a.52.52,0,0,1-.32.94ZM424,33.1a.52.52,0,0,1-.29-.09c-.86-.59-1.74-1.18-2.61-1.75a.53.53,0,0,1-.15-.73.52.52,0,0,1,.72-.15c.88.58,1.77,1.17,2.63,1.76a.53.53,0,0,1,.14.73A.54.54,0,0,1,424,33.1Zm-5.93-3.88a.48.48,0,0,1-.28-.08c-.88-.55-1.79-1.1-2.68-1.63a.52.52,0,0,1,.54-.9l2.7,1.64a.53.53,0,0,1,.16.73A.51.51,0,0,1,418.11,29.22ZM412,25.61a.48.48,0,0,1-.26-.07L409,24a.53.53,0,0,1-.21-.71.52.52,0,0,1,.71-.21c.92.5,1.85,1,2.77,1.53a.52.52,0,0,1,.2.71A.54.54,0,0,1,412,25.61Zm-6.25-3.36a.46.46,0,0,1-.23-.06l-2.82-1.4a.52.52,0,1,1,.46-.94c.95.46,1.9.93,2.83,1.41a.52.52,0,0,1,.23.7A.51.51,0,0,1,405.76,22.25Zm-6.38-3.09a.57.57,0,0,1-.22,0c-1-.44-1.93-.87-2.87-1.28a.52.52,0,1,1,.41-1c.95.41,1.93.84,2.9,1.28a.52.52,0,0,1-.22,1Zm-6.53-2.78a.65.65,0,0,1-.19,0c-1.86-.73-2.93-1.1-2.94-1.1a.53.53,0,1,1,.34-1s1.1.38,3,1.12a.53.53,0,0,1-.2,1Z"/><path class="cls-3" d="M53.38,123.06a.52.52,0,0,1-.21,0,.54.54,0,0,1-.27-.7l.73-1.62a.53.53,0,0,1,1,.44c-.25.53-.49,1.07-.73,1.61A.5.5,0,0,1,53.38,123.06Zm2.39-5.18a.64.64,0,0,1-.23,0,.52.52,0,0,1-.24-.7c.45-.94.91-1.9,1.38-2.84a.52.52,0,0,1,.7-.24.53.53,0,0,1,.24.71q-.7,1.41-1.38,2.82A.51.51,0,0,1,55.77,117.88Zm3.17-6.33a.53.53,0,0,1-.24-.06.52.52,0,0,1-.22-.71c.49-.94,1-1.87,1.49-2.79a.53.53,0,0,1,.71-.21.54.54,0,0,1,.21.72c-.5.9-1,1.84-1.48,2.76A.54.54,0,0,1,58.94,111.55Zm3.41-6.21a.59.59,0,0,1-.26-.07.53.53,0,0,1-.2-.72c.52-.91,1.06-1.82,1.59-2.72a.53.53,0,0,1,.72-.19.52.52,0,0,1,.18.72l-1.58,2.71A.53.53,0,0,1,62.35,105.34ZM66,99.26a.45.45,0,0,1-.27-.08.52.52,0,0,1-.17-.72c.56-.89,1.13-1.79,1.69-2.66a.52.52,0,1,1,.88.57c-.56.87-1.13,1.76-1.68,2.64A.53.53,0,0,1,66,99.26Zm3.87-5.93a.52.52,0,0,1-.29-.09.53.53,0,0,1-.14-.73c.59-.86,1.19-1.74,1.8-2.59a.52.52,0,0,1,.73-.13.53.53,0,0,1,.12.73c-.6.85-1.2,1.72-1.78,2.58A.54.54,0,0,1,69.85,93.33ZM74,87.55a.5.5,0,0,1-.31-.1.51.51,0,0,1-.11-.73c.62-.84,1.26-1.69,1.9-2.52a.51.51,0,0,1,.73-.1.52.52,0,0,1,.1.73c-.64.83-1.27,1.68-1.89,2.51A.51.51,0,0,1,74,87.55Zm4.32-5.61a.51.51,0,0,1-.33-.11.52.52,0,0,1-.08-.74c.65-.81,1.32-1.64,2-2.44a.5.5,0,0,1,.73-.07.51.51,0,0,1,.07.74c-.66.8-1.33,1.62-2,2.43A.53.53,0,0,1,78.27,81.94Zm4.54-5.43a.51.51,0,0,1-.35-.13.52.52,0,0,1,0-.74c.68-.79,1.39-1.58,2.09-2.37a.52.52,0,0,1,.74,0,.51.51,0,0,1,0,.74c-.7.77-1.4,1.56-2.08,2.35A.51.51,0,0,1,82.81,76.51Zm4.75-5.26a.5.5,0,0,1-.36-.14.53.53,0,0,1,0-.74c.72-.76,1.45-1.53,2.19-2.28a.52.52,0,0,1,.75.73c-.73.75-1.46,1.51-2.17,2.27A.51.51,0,0,1,87.56,71.25Zm5-5.06a.52.52,0,0,1-.37-.9c.74-.73,1.51-1.47,2.27-2.19a.52.52,0,1,1,.72.76c-.76.72-1.52,1.45-2.25,2.18A.55.55,0,0,1,92.51,66.19Zm5.15-4.86a.5.5,0,0,1-.39-.18.52.52,0,0,1,0-.74c.78-.7,1.57-1.41,2.36-2.1a.52.52,0,0,1,.69.79c-.78.68-1.57,1.39-2.34,2.09A.54.54,0,0,1,97.66,61.33ZM103,56.66a.52.52,0,0,1-.34-.92c.8-.68,1.62-1.35,2.43-2a.52.52,0,1,1,.66.81l-2.42,2A.5.5,0,0,1,103,56.66Zm5.5-4.45a.53.53,0,0,1-.32-.94c.83-.65,1.68-1.29,2.51-1.92a.53.53,0,0,1,.63.84c-.83.62-1.67,1.26-2.49,1.91A.57.57,0,0,1,108.49,52.21ZM114.17,48a.52.52,0,0,1-.43-.21.53.53,0,0,1,.12-.74c.84-.6,1.71-1.22,2.58-1.82a.53.53,0,0,1,.73.13.54.54,0,0,1-.13.73c-.87.6-1.73,1.21-2.57,1.82A.55.55,0,0,1,114.17,48Zm5.82-4a.51.51,0,0,1-.43-.23.52.52,0,0,1,.14-.73c.87-.58,1.76-1.16,2.64-1.72a.53.53,0,0,1,.73.15.52.52,0,0,1-.16.73c-.88.56-1.76,1.14-2.63,1.72A.51.51,0,0,1,120,43.93Zm6-3.81a.52.52,0,0,1-.27-1c.89-.55,1.8-1.1,2.7-1.63a.52.52,0,1,1,.54.9c-.9.53-1.8,1.08-2.69,1.62A.48.48,0,0,1,126,40.12Zm6.11-3.6a.52.52,0,0,1-.46-.26.53.53,0,0,1,.2-.72c.91-.52,1.84-1,2.76-1.53a.52.52,0,0,1,.5.92l-2.74,1.52A.54.54,0,0,1,132.07,36.52Zm6.23-3.38a.52.52,0,0,1-.47-.28.54.54,0,0,1,.22-.71l2.81-1.43a.53.53,0,1,1,.47.94c-.93.46-1.87.94-2.79,1.42A.53.53,0,0,1,138.3,33.14ZM144.64,30a.53.53,0,0,1-.48-.3.53.53,0,0,1,.25-.7l2.86-1.33a.52.52,0,1,1,.44,1l-2.85,1.33A.44.44,0,0,1,144.64,30ZM151.09,27a.53.53,0,0,1-.21-1l2.9-1.24a.53.53,0,0,1,.69.29.52.52,0,0,1-.29.68c-1,.41-1.94.82-2.88,1.24A.52.52,0,0,1,151.09,27Zm6.54-2.72a.53.53,0,0,1-.19-1c1-.39,2-.77,2.94-1.14a.54.54,0,0,1,.68.31.52.52,0,0,1-.31.67l-2.93,1.14A.43.43,0,0,1,157.63,24.32Zm6.63-2.5a.54.54,0,0,1-.49-.35.51.51,0,0,1,.32-.67c1-.36,2-.71,3-1.05a.53.53,0,0,1,.34,1c-1,.33-2,.68-3,1A.39.39,0,0,1,164.26,21.82ZM171,19.54a.53.53,0,0,1-.16-1c1-.32,2-.64,3-.94a.52.52,0,1,1,.31,1l-3,.94Zm6.79-2.05a.53.53,0,0,1-.51-.39.52.52,0,0,1,.36-.64c1-.29,2-.57,3-.84a.52.52,0,1,1,.27,1c-1,.27-2,.55-3,.84Zm6.85-1.82a.51.51,0,0,1-.5-.4.52.52,0,0,1,.38-.63c1-.25,2.06-.5,3.08-.73a.53.53,0,0,1,.63.4.52.52,0,0,1-.4.62c-1,.23-2,.48-3.06.73Zm6.93-1.56a.52.52,0,0,1-.51-.42.51.51,0,0,1,.41-.61c1.05-.22,2.1-.42,3.11-.61a.54.54,0,0,1,.61.42.52.52,0,0,1-.42.61l-3.09.6Zm7-1.26a.52.52,0,0,1-.52-.44.53.53,0,0,1,.44-.6c2-.31,3.13-.42,3.18-.43a.52.52,0,0,1,.57.47.53.53,0,0,1-.47.58s-1.12.11-3.12.42Z"/><g class="cls-2"><path class="cls-3" d="M557.54,24.36C533.62,1.8,492.87-1.82,472,24.28c-10.56,13.18-11.2,32.13-7.55,42.52,11.38,32.31,66,82.59,106.13,46.25C596.49,89.55,583.9,49.23,557.54,24.36Z"/></g><path class="cls-3" d="M582.88,118.6a.53.53,0,0,1-.41-.85c.63-.79,1.24-1.6,1.82-2.4a.53.53,0,0,1,.73-.12.52.52,0,0,1,.12.73c-.58.82-1.21,1.64-1.85,2.44A.54.54,0,0,1,582.88,118.6Zm4-5.7a.52.52,0,0,1-.27-.07.53.53,0,0,1-.18-.73c.54-.88,1.06-1.79,1.54-2.7a.53.53,0,1,1,.93.49c-.49.93-1,1.86-1.57,2.76A.53.53,0,0,1,586.89,112.9Zm3.26-6.28a.52.52,0,0,1-.21,0,.54.54,0,0,1-.27-.69c.41-1,.8-1.93,1.15-2.9a.53.53,0,0,1,1,.36c-.36,1-.76,2-1.18,3A.53.53,0,0,1,590.15,106.62Zm2.36-6.67-.14,0a.53.53,0,0,1-.37-.65c.27-1,.52-2,.74-3a.52.52,0,0,1,.62-.41.53.53,0,0,1,.4.63c-.22,1-.47,2.07-.75,3.08A.52.52,0,0,1,592.51,100ZM593.92,93h-.07a.52.52,0,0,1-.45-.59c.14-1,.25-2.06.34-3.1a.52.52,0,1,1,1,.09c-.08,1-.2,2.12-.34,3.15A.52.52,0,0,1,593.92,93Zm.52-7.06h0a.52.52,0,0,1-.52-.53V84.6c0-.75,0-1.52,0-2.29a.53.53,0,0,1,.51-.55.52.52,0,0,1,.54.51c0,.78,0,1.57,0,2.34v.83A.53.53,0,0,1,594.44,86Zm-.3-7.08a.53.53,0,0,1-.52-.47c-.1-1-.22-2.07-.36-3.1a.53.53,0,0,1,.44-.6.54.54,0,0,1,.6.45c.14,1,.27,2.11.37,3.15a.53.53,0,0,1-.48.57Zm-1-7a.53.53,0,0,1-.52-.42c-.19-1-.41-2-.65-3.06a.53.53,0,0,1,.39-.63.52.52,0,0,1,.63.39c.24,1,.47,2.08.66,3.1a.53.53,0,0,1-.41.62ZM591.49,65a.51.51,0,0,1-.5-.38c-.28-1-.58-2-.9-3a.52.52,0,1,1,1-.32c.32,1,.63,2,.91,3a.54.54,0,0,1-.37.65Zm-2.17-6.75a.53.53,0,0,1-.49-.34c-.35-1-.73-2-1.11-2.93a.52.52,0,1,1,1-.39c.39,1,.77,2,1.13,3a.54.54,0,0,1-.32.67A.57.57,0,0,1,589.32,58.23Zm-2.63-6.58a.54.54,0,0,1-.48-.31c-.41-1-.85-1.91-1.29-2.86a.52.52,0,0,1,.25-.7.53.53,0,0,1,.7.25c.45,1,.89,1.93,1.3,2.89a.52.52,0,0,1-.48.73Zm-3-6.41a.52.52,0,0,1-.47-.28c-.47-.93-1-1.87-1.46-2.78a.52.52,0,1,1,.92-.5c.5.92,1,1.86,1.48,2.8a.53.53,0,0,1-.23.7A.53.53,0,0,1,583.66,45.24ZM580.25,39a.52.52,0,0,1-.45-.26c-.53-.9-1.07-1.81-1.62-2.69a.52.52,0,1,1,.89-.55c.55.89,1.1,1.8,1.64,2.71a.53.53,0,0,1-.19.72A.52.52,0,0,1,580.25,39Zm-3.76-6a.51.51,0,0,1-.44-.24c-1.1-1.63-1.79-2.55-1.8-2.56a.53.53,0,0,1,.84-.63s.71.94,1.83,2.61a.52.52,0,0,1-.43.82Z"/><g class="cls-2"><path class="cls-3" d="M555.11,290.76c17.35-22.48,14-54.81-7.88-72.9-7.74-6.39-22.44-3-31.05,1-26.79,12.53-67.91,61.42-35.57,95.16C506.75,341.28,536,315.55,555.11,290.76Z"/></g><path class="cls-3" d="M44.35,151l-.69,0a.51.51,0,0,1-.49-.55.52.52,0,0,1,.55-.49,10.16,10.16,0,0,0,3-.26.54.54,0,0,1,.64.39.53.53,0,0,1-.39.63A11.19,11.19,0,0,1,44.35,151Zm-4.45-1a.54.54,0,0,1-.22,0,10.92,10.92,0,0,1-2.75-1.81.52.52,0,0,1,0-.74.51.51,0,0,1,.74,0A10,10,0,0,0,40.12,149a.51.51,0,0,1,.25.69A.5.5,0,0,1,39.9,150Zm10.49-.91a.51.51,0,0,1-.43-.23.52.52,0,0,1,.13-.73,9.77,9.77,0,0,0,2.17-2,.53.53,0,0,1,.74-.08.51.51,0,0,1,.08.73A11.14,11.14,0,0,1,50.69,149,.55.55,0,0,1,50.39,149.13ZM34.9,145.21a.52.52,0,0,1-.47-.29,11,11,0,0,1-1-3.12.52.52,0,0,1,.43-.61.51.51,0,0,1,.6.43,10.13,10.13,0,0,0,.94,2.83.52.52,0,0,1-.23.7A.46.46,0,0,1,34.9,145.21Zm19.59-1.69-.15,0a.53.53,0,0,1-.35-.66,10,10,0,0,0,.07-5.64.54.54,0,0,1,.37-.65.52.52,0,0,1,.64.37,11,11,0,0,1,.41,3,11.19,11.19,0,0,1-.49,3.26A.53.53,0,0,1,54.49,143.52ZM34,138.32h-.1a.53.53,0,0,1-.42-.62,11,11,0,0,1,1.13-3.09.51.51,0,0,1,.71-.21.52.52,0,0,1,.21.71,10,10,0,0,0-1,2.8A.52.52,0,0,1,34,138.32Zm18.89-4.25a.54.54,0,0,1-.43-.21,10.24,10.24,0,0,0-2.11-2.1.52.52,0,0,1-.12-.73.54.54,0,0,1,.74-.11,11.09,11.09,0,0,1,2.33,2.31.53.53,0,0,1-.1.74A.54.54,0,0,1,52.85,134.07Zm-15.36-1.73a.54.54,0,0,1-.4-.19.52.52,0,0,1,.06-.74,11.3,11.3,0,0,1,2.8-1.74.53.53,0,0,1,.41,1,10.08,10.08,0,0,0-2.53,1.57A.55.55,0,0,1,37.49,132.34Zm9.6-2.17H47a10.17,10.17,0,0,0-3-.34.52.52,0,0,1-.54-.5.53.53,0,0,1,.5-.55,11.57,11.57,0,0,1,3.27.37.52.52,0,0,1-.13,1Z"/><path class="cls-3" d="M564.77,22.25l-.69,0a.53.53,0,0,1,.07-1.05,10.19,10.19,0,0,0,3-.26.53.53,0,0,1,.24,1A11.19,11.19,0,0,1,564.77,22.25Zm-4.45-1a.59.59,0,0,1-.22-.05,11.1,11.1,0,0,1-2.75-1.81.53.53,0,0,1,0-.74.51.51,0,0,1,.74,0,10.23,10.23,0,0,0,2.49,1.64.52.52,0,0,1-.22,1Zm10.49-.91a.53.53,0,0,1-.43-.22.52.52,0,0,1,.13-.73,10,10,0,0,0,2.17-2.05.53.53,0,0,1,.74-.08.53.53,0,0,1,.09.74,11.64,11.64,0,0,1-2.4,2.25A.55.55,0,0,1,570.81,20.36Zm-15.49-3.92a.51.51,0,0,1-.47-.29,11,11,0,0,1-1-3.12.53.53,0,0,1,.43-.61.54.54,0,0,1,.61.43,9.72,9.72,0,0,0,.94,2.83.53.53,0,0,1-.23.7A.53.53,0,0,1,555.32,16.44Zm19.59-1.69-.15,0a.53.53,0,0,1-.35-.66,10.17,10.17,0,0,0,.08-5.64.51.51,0,0,1,.36-.64.52.52,0,0,1,.65.36,11.49,11.49,0,0,1,.4,3,10.87,10.87,0,0,1-.49,3.26A.52.52,0,0,1,574.91,14.75Zm-20.53-5.2h-.1a.51.51,0,0,1-.41-.61A10.66,10.66,0,0,1,555,5.83a.52.52,0,1,1,.92.5,9.69,9.69,0,0,0-1,2.8A.53.53,0,0,1,554.38,9.55Zm18.89-4.24a.54.54,0,0,1-.42-.21A10.05,10.05,0,0,0,570.73,3a.52.52,0,0,1-.11-.74.52.52,0,0,1,.73-.11,11,11,0,0,1,2.34,2.32.52.52,0,0,1-.11.73A.51.51,0,0,1,573.27,5.31ZM557.92,3.57a.56.56,0,0,1-.41-.19.53.53,0,0,1,.07-.74A11,11,0,0,1,560.37.91a.51.51,0,0,1,.69.27.52.52,0,0,1-.27.69,10.25,10.25,0,0,0-2.54,1.57A.46.46,0,0,1,557.92,3.57Zm9.59-2.16-.13,0a10.07,10.07,0,0,0-2.62-.34h-.35a.53.53,0,1,1,0-1h.4a11.59,11.59,0,0,1,2.87.37A.54.54,0,0,1,568,1,.53.53,0,0,1,567.51,1.41Z"/><rect class="cls-4" x="59.31" y="332.83" width="6.7" height="50.5" transform="translate(-292.2 279.17) rotate(-67.54)"/><rect class="cls-4" x="34.17" y="354.73" width="50.5" height="6.7" transform="translate(-132.31 49.87) rotate(-22.46)"/><polygon class="cls-5" points="95.69 411.57 88.92 411.57 77.81 334.42 77.28 330.78 77.03 329 83.66 328.05 84.05 330.78 84.48 333.76 95.69 411.57"/><polygon class="cls-4" points="84.48 333.76 77.81 334.42 77.28 330.78 84.05 330.78 84.48 333.76"/><polygon class="cls-5" points="45.51 329 45.25 330.78 44.25 337.74 33.62 411.57 26.85 411.57 37.38 338.42 38.48 330.78 38.88 328.05 45.51 329"/><polygon class="cls-4" points="45.25 330.78 44.25 337.74 37.38 338.42 38.48 330.78 45.25 330.78"/><rect class="cls-5" x="24.27" y="313.83" width="73.44" height="16.95" rx="7.84"/><polygon class="cls-6" points="631.34 347.88 631.18 349.04 630.99 350.41 630.77 352.04 629.84 358.85 629.75 359.58 628.77 366.73 628.67 367.48 624.82 395.77 624.72 396.53 622.73 411.12 581.73 411.12 581.17 406.98 581.07 406.23 580.76 404 580.66 403.27 578.95 390.7 578.83 389.83 575 361.68 574.88 360.79 574.19 355.71 573.13 347.88 631.34 347.88"/><path class="cls-7" d="M586.26,379A17.8,17.8,0,0,1,579,390.7l-.12-.87A15.93,15.93,0,0,0,575,361.68l-.12-.89a17.19,17.19,0,0,1,4.59,2.44A16.6,16.6,0,0,1,586.26,379Z"/><path class="cls-7" d="M629.84,358.85l-.09.74a20.23,20.23,0,0,0-13.69,3.82c-3.5,2.39-7,5.33-11.53,5.34a11.06,11.06,0,0,1-9.5-16.89.39.39,0,0,1,.67.4,10.4,10.4,0,0,0,3,14c4.09,2.67,8.69,1.89,12.65-.56,3.77-2.34,7-5.24,11.43-6.35A19.46,19.46,0,0,1,629.84,358.85Z"/><path class="cls-7" d="M631.18,349l-.19,1.37a13.56,13.56,0,0,1-1.32,1.7,13.75,13.75,0,0,1-19.34,1.25,13.65,13.65,0,0,1-1.7-1.7c-.32-.38.23-.94.56-.55a14,14,0,0,0,2.3,2.18,12.91,12.91,0,0,0,17-1.11,13.77,13.77,0,0,0,2.3-2.95A.35.35,0,0,1,631.18,349Z"/><path class="cls-7" d="M628.78,366.72l-.11.76a7.45,7.45,0,0,0-4.18,1.42,8,8,0,0,0-3,8c.52,2.35,2,4.46,2,6.93a7.89,7.89,0,0,1-2.18,5.28c-3.37,3.8-8.64,4.57-12.57,7.56a10.73,10.73,0,0,0-2.94,13.47,10.84,10.84,0,0,0,.62,1h-.94a10.28,10.28,0,0,1-.53-.91,11.56,11.56,0,0,1,2.31-13.33c4.23-3.95,11.07-4.33,14.35-9.44,1.91-3,.69-5.72-.4-8.73a9.12,9.12,0,0,1,.11-7.14A8.42,8.42,0,0,1,628.78,366.72Z"/><path class="cls-7" d="M617.23,404.1a7.68,7.68,0,0,0,4.24,7H620a8.45,8.45,0,0,1-3.51-7.42,8.57,8.57,0,0,1,8.35-7.93l-.1.76A7.83,7.83,0,0,0,617.23,404.1Z"/><path class="cls-7" d="M614.24,380.15c-.38,3.41-3.6,5.38-6.07,7.27a41.06,41.06,0,0,0-8.81,8.55c-3.08,4.32-4.73,10.19-3.17,15.15h-.81c-1.36-4.65-.16-10.05,2.45-14.26a34.44,34.44,0,0,1,7.53-8.22c1.41-1.16,2.88-2.23,4.33-3.34,1.71-1.32,3.48-2.94,3.76-5.21.62-5-5.83-5.77-9.35-5.53s-7.36,1.46-9.54,4.51-2.47,6.64-3.11,10.05c-.69,3.63-1.75,7.3-4,10.28a12.94,12.94,0,0,1-6.68,4.6l-.1-.73a10.19,10.19,0,0,0,3.4-1.6c3.71-2.68,5.45-7.15,6.38-11.48.7-3.29,1-6.73,2.45-9.81a11.07,11.07,0,0,1,6.66-5.75,17.69,17.69,0,0,1,9.93-.46C612.16,374.93,614.58,377.17,614.24,380.15Z"/><path class="cls-7" d="M589.14,411.12h-.8a5.38,5.38,0,0,0-2.21-3.46,5.75,5.75,0,0,0-5-.68l-.1-.75a6.2,6.2,0,0,1,6.1,1.24A6.37,6.37,0,0,1,589.14,411.12Z"/><polygon class="cls-7" points="631.34 347.88 631.18 349.04 630.99 350.41 630.77 352.04 629.67 352.11 628.51 352.18 611.5 353.29 610.33 353.36 574.19 355.71 573.13 347.88 631.34 347.88"/><path class="cls-6" d="M636.53,348.22a404.9,404.9,0,0,1-68.59,0V342h68.59Z"/><path class="cls-8" d="M620.91,268.58c-2.14,2.57-3.69,12.07-7.79,13.6-2.82,1.05-4.31-3,1.15-8.16a21.28,21.28,0,0,0,5.76-9.68,78.1,78.1,0,0,0-3.85-12.42C613,254.83,608,259,606.52,257c-1.57-2.15,3.14-8.94,5.77-12.41A21.54,21.54,0,0,0,608.2,240a12.82,12.82,0,0,0-8.65-3.08,11.4,11.4,0,0,0-6.57,2.4c2.82,5.57,7,15,4.06,17.14-2.7,2-6.61-5.78-9-11.6-3.45,5.32-5.76,12.61-6.76,19.63a12.47,12.47,0,0,0,3.85,4.17c5.33,3.83,11.66,11.57,8.5,13.29s-6.47-2.82-8.83-6.88a16.24,16.24,0,0,0-4-4.87c-.05,1.23-.05,2.43,0,3.59.83,22.1,22.42,22.1,22.42,22.1S624.72,290.92,620.91,268.58Zm-27.16.44c-2.14,0-5.54-4-7.13-6.23s-.32-3.74,1.21-3.31l.06,0C590,260.14,596.52,269.05,593.75,269Zm18.82-5.29.07,0c1.53-.43,2.79.59,2.07,2.55-1,2.56-2.2,3.57-4.11,2.61C609.4,268.27,610.43,264.37,612.57,263.73Z"/><path class="cls-7" d="M600.79,263.05c1.9,9.67,1.29,19.66.57,29.42-.78,10.43-1.82,20.88-1.41,31.36a86.73,86.73,0,0,0,2.36,17.64c.12.49.88.28.76-.21-5.13-20.75-.41-41.86-.25-62.83a77.58,77.58,0,0,0-1.27-15.59c-.09-.5-.85-.29-.76.21Z"/><path class="cls-8" d="M591.09,296c-.21,3.34,4.14,11.92,1.74,15.57-1.66,2.52-5.27.11-3.89-7.27a21.15,21.15,0,0,0-1.06-11.21,79.45,79.45,0,0,0-10.43-7.76c-.83,4.21-2.48,10.54-4.81,9.79-2.54-.81-2.74-9.06-2.67-13.42a21.29,21.29,0,0,0-6-1.27,12.77,12.77,0,0,0-8.8,2.61,11.38,11.38,0,0,0-3.89,5.81c5.55,2.84,14.45,8,13.38,11.45-1,3.21-8.75-.77-14.15-4,.36,6.32,2.78,13.57,6.12,19.83a12.45,12.45,0,0,0,5.57,1.1c6.56-.05,16.24,2.47,14.7,5.72s-6.89,1.53-11.19-.35a16.32,16.32,0,0,0-6.14-1.55c.68,1,1.39,2,2.11,2.9,13.71,17.36,31.14,4.63,31.14,4.63S607.35,311.8,591.09,296Zm-21.67,16.37c-1.74,1.25-6.85,0-9.44-.82s-2.46-2.84-1-3.39l.06,0C561.19,307.4,571.67,310.77,569.42,312.38ZM581.5,297l0-.05c1-1.25,2.6-1.17,3.17.84.75,2.62.34,4.18-1.77,4.53C581.61,302.55,580.14,298.79,581.5,297Z"/><path class="cls-7" d="M571.55,303.37c5.07,4.67,10.1,9.51,14.19,15.08a76.07,76.07,0,0,1,7.74,13.74c1.55,3.4,3,6.83,4.55,10.25.2.46.88.06.67-.4-2.49-5.61-4.81-11.33-7.72-16.74A66,66,0,0,0,581.39,312c-2.94-3.21-6.09-6.21-9.28-9.15-.37-.35-.93.21-.56.55Z"/><path class="cls-8" d="M609.86,332.55S627.2,345.4,641,328.14c.73-.91,1.44-1.87,2.13-2.89a16.29,16.29,0,0,0-6.15,1.51c-4.31,1.85-9.67,3.54-11.19.27s8.18-5.72,14.74-5.62a12.56,12.56,0,0,0,5.58-1.06c3.38-6.24,5.85-13.47,6.25-19.79-5.42,3.21-13.2,7.14-14.17,3.92-1.05-3.46,7.89-8.55,13.46-11.35a11.43,11.43,0,0,0-3.85-5.84,12.74,12.74,0,0,0-8.78-2.67,21.72,21.72,0,0,0-6,1.22c.05,4.37-.21,12.62-2.76,13.41-2.33.73-3.94-5.6-4.73-9.82a79.4,79.4,0,0,0-10.49,7.68,21.32,21.32,0,0,0-1.14,11.21c1.33,7.38-2.3,9.77-3.94,7.24-2.38-3.67,2-12.22,1.84-15.56C595.47,315.68,609.86,332.55,609.86,332.55Zm33.91-20.19.06,0c1.49.57,1.61,2.54-1,3.38s-7.71,2-9.44.77C631.15,314.89,641.66,311.6,643.77,312.36Zm-23.82-6c-2.11-.37-2.52-1.93-1.75-4.55.59-2,2.21-2.07,3.18-.81l0,.05C622.76,302.86,621.27,306.6,620,306.37Z"/><path class="cls-7" d="M630.77,306.94c-10.48,10.51-18.8,22.7-26.85,35.1-.28.43.4.83.68.4,8-12.34,16.29-24.48,26.73-34.94.35-.36-.2-.92-.56-.56Z"/><path class="cls-7" d="M636.53,342c0,.63-15.36,1.14-34.3,1.14s-34.29-.51-34.29-1.14,15.35-1.15,34.29-1.15S636.53,341.36,636.53,342Z"/><path class="cls-7" d="M413.21,132a.67.67,0,0,1-.34-.09L394.35,120.4a.66.66,0,0,1,.69-1.12l18.52,11.46a.65.65,0,0,1-.35,1.21Z"/><path class="cls-7" d="M376.32,132.19a.68.68,0,0,1-.55-.28A.67.67,0,0,1,376,131l4.34-2.93,12.94-8.74a.66.66,0,0,1,.73,1.09l-17.28,11.67A.61.61,0,0,1,376.32,132.19Z"/><path class="cls-9" d="M443.09,275.8a9.84,9.84,0,0,1-.75,1.82c-.11.22-.24.45-.38.69-2,3.28-7,8.23-18.71,4.81l-.77-.24h0c-.81-.25-1.65-.55-2.53-.88a80.29,80.29,0,0,0-12-3.8l-.85-.17c-6.3-1.2-11.06-.59-18.81.59l-.91.14c-2.65.4-5.64.86-9.16,1.33h0l-.89.11h0l-4.11.51c-25.06,2.93-26.87-8.29-26.87-8.29a249,249,0,0,1,8.25-24.24c.31-.75.61-1.5.91-2.24l.39-1q2.1-5.32,3.81-10.41h0l.34-1c1.56-4.71,2.89-9.25,4-13.55.09-.34.17-.67.26-1A205.74,205.74,0,0,0,369,195c0-.27.07-.55.1-.82.45-3.52.73-6.56.91-9,0-.27,0-.53,0-.79.29-4.37.24-6.81.24-6.81-6.57-8.67-5.52-19-3.92-25.2.07-.27.15-.53.22-.79a32.75,32.75,0,0,1,1.75-4.94l.39-5.15.05-.73.72-9.53c1-2,4.19-3.29,6.9-4.06l.67-.19a35.29,35.29,0,0,1,3.5-.73s-.33,14.15,9.5,19q.4.21.84.39h0a16.15,16.15,0,0,0,4.43,1.11c7.49.84,11.43-4.52,13.49-9.75.11-.27.21-.53.3-.8a35.24,35.24,0,0,0,1.86-8.4s8.51-.25,9.78,3.06-2.26,10.58,2.61,19.35c.28.51.54,1,.77,1.54.14.31.27.62.39.92a21,21,0,0,1,1.37,5.61c0,.27.05.54.07.81A29.59,29.59,0,0,1,422.57,174h0c-.12.26-.25.5-.37.72a24.74,24.74,0,0,1-1.45,2.43l2.31,10.23.17.75,1.7,7.48.16.73,2.14,9.42.18.79,4.46,19.73.22.95,3.16,14,.21.94L440,262.21l.18.8Z"/><path class="cls-10" d="M435.46,242.15c-1.21-.46-2.43-.89-3.65-1.3-6.76-2.32-13.64-4.48-18.9-9.57-4.09-4-7-9.4-7-15.2,0-10.59,9.43-17.65,19-20.45l.16.73a28.47,28.47,0,0,0-13.95,8.52,17,17,0,0,0-3.86,15.66c1.61,6.11,6.19,11.11,11.56,14.24,5.11,3,10.9,4.38,16.41,6.43Z"/><path class="cls-10" d="M364.07,220l-.46.22a.4.4,0,0,1-.35-.71l1.07-.51c5.95-2.94,13-7.36,11.59-15A12.59,12.59,0,0,0,369,195c0-.27.07-.55.1-.82a13.41,13.41,0,0,1,7.62,9.59C378.24,212.09,370.47,216.85,364.07,220Z"/><path class="cls-10" d="M412.16,150.66c-1.74.66-3.27-.77-4.89-1.12-3.48-.75-2,4.41-2.84,6.16a4.21,4.21,0,0,1-4.73,1.92c-4.32-.92-7.65-5.56-9-9.5a18.6,18.6,0,0,1-.68-2.87q.4.21.84.39h0a18,18,0,0,0,1.55,4.5,15.09,15.09,0,0,0,4,4.88c1.75,1.39,4.52,2.87,6.6,1.23,1.82-1.45.56-4.08,1.37-6a2.49,2.49,0,0,1,2.76-1.55c1.47.22,2.95,1.62,4.48,1.3,2.27-.49,1.7-3.91,1.33-5.49a16.08,16.08,0,0,0-4.13-7.52c.11-.27.21-.53.3-.8a16.15,16.15,0,0,1,4.94,10.32C414.14,148.06,413.79,150,412.16,150.66Z"/><path class="cls-10" d="M379,184.49a15.7,15.7,0,0,1-9.06.66c0-.27,0-.53,0-.79,3.55.67,7.16.59,10.35-1.44,3.51-2.24,5.3-7.69,1.91-10.91-3-2.85-8.84-.74-11-4.89-.85-1.61-.18-3.26.78-4.63,1.41-2,3-3.83,1.78-6.38-1.51-3.24-4.42-4-7.49-3.76.07-.27.15-.53.22-.79,3.06-.19,5.95.63,7.72,3.72a5.33,5.33,0,0,1-.23,5.81,16.24,16.24,0,0,0-2.19,3.33,3.14,3.14,0,0,0,1.49,3.77c2.37,1.58,5.43,1,7.95,2.22a6.19,6.19,0,0,1,3.28,4.1C385.75,178.87,383,182.85,379,184.49Z"/><path class="cls-10" d="M378.15,139.12a7.36,7.36,0,0,1-9.44,2.35l.05-.73a6.74,6.74,0,0,0,3.76.8,6.67,6.67,0,0,0,6-5.68c.33-3.07-1.22-5.85-2.18-8.71l.67-.19C378.35,131.06,381,135.12,378.15,139.12Z"/><path class="cls-10" d="M440.19,263a11.6,11.6,0,0,0-3.23-.12c-2.83.28-5.52,1.28-8.3,1.83a30.56,30.56,0,0,1-22.32-4.59,29.59,29.59,0,0,1-8.27-8c-2.44-3.57-3.77-7.7-5.83-11.47A17.15,17.15,0,0,0,381.72,232a28.58,28.58,0,0,0-13.48-.25,36.32,36.32,0,0,0-8.52,2.84l.34-1a37,37,0,0,1,10.58-3,26.76,26.76,0,0,1,13.25,1.35,17.94,17.94,0,0,1,9.15,8.59c2.21,4.1,3.63,8.59,6.49,12.33a29.72,29.72,0,0,0,10.11,8.35,30.32,30.32,0,0,0,12.69,3.31,26.63,26.63,0,0,0,6.54-.57,77,77,0,0,1,7.94-1.76,12.16,12.16,0,0,1,3.2.1Z"/><path class="cls-10" d="M378.65,278.62a8.24,8.24,0,0,1-.42,1.47h0l-.89.11a6,6,0,0,0,.16-5.19c-1.91-4-7.68-4.64-9.09-9s2.83-7.93,4.73-11.32c1.28-2.3,1.64-5-.27-7.08s-5-2.86-7.68-3a24,24,0,0,0-9.67,1.4l.39-1a23,23,0,0,1,11.2-1,10.76,10.76,0,0,1,6.56,3.34,6.19,6.19,0,0,1,.77,6.47c-1.69,4.08-8.09,8.94-4.37,13.62,1.63,2.06,4.22,3.1,6.17,4.81A6.64,6.64,0,0,1,378.65,278.62Z"/><path class="cls-10" d="M408,278.2l-.85-.17a42.49,42.49,0,0,0-2.15-6.36c-1.27-2.94-3.52-7.06-7.32-4.92-2.84,1.6-5.19,4.63-6.93,7.32a29.57,29.57,0,0,0-2.41,4.55l-.91.14a30.25,30.25,0,0,1,3.39-6.19,29.93,29.93,0,0,1,3.68-4.27,10.42,10.42,0,0,1,4-2.77c3.23-1,5.4,2,6.61,4.52A42,42,0,0,1,408,278.2Z"/><path class="cls-10" d="M442.34,277.62c-.11.22-.24.45-.38.69a13.24,13.24,0,0,0-10.63-1.83,13.07,13.07,0,0,0-8.08,6.64l-.77-.24a13.56,13.56,0,0,1,19.86-5.26Z"/><path class="cls-10" d="M400.35,188.55a25.13,25.13,0,0,0-11.11,7.25c-2.63,3-6,7.7-5.16,12a4.74,4.74,0,0,0,3.9,3.75c2.38.46,4.68-.62,6.67-1.83,4.31-2.61,9.07-6.42,11.23-11.1a8.1,8.1,0,0,0,0-7.35,5.39,5.39,0,0,0-5.54-2.68.39.39,0,0,0,.15.77,4.76,4.76,0,0,1,5.22,3.46,8.42,8.42,0,0,1-1.17,6.63c-2.19,3.7-5.91,6.79-9.49,9.09-1.85,1.19-3.94,2.43-6.22,2.32a4.16,4.16,0,0,1-4.08-4.54c.13-3.61,2.72-7.26,5-9.89a24.26,24.26,0,0,1,10.73-7.07c.48-.15.33-.93-.15-.77Z"/><path class="cls-10" d="M400.07,239a21.6,21.6,0,0,0,6.21,9.55c2.54,2.23,6.55,5.11,10.16,4.38a4.06,4.06,0,0,0,3.18-3.14c.47-2-.37-4-1.38-5.72-2.19-3.73-5.43-7.85-9.43-9.75a7,7,0,0,0-6.28-.17,4.7,4.7,0,0,0-2.46,4.85c.08.5.86.34.78-.16-.47-2.93,2.35-4.75,5-4.55s4.68,1.86,6.46,3.56a30.25,30.25,0,0,1,4.63,5.59c1.24,1.91,2.67,4.34,1.77,6.67-1.83,4.8-8.51.55-10.95-1.36a20.57,20.57,0,0,1-6.9-9.91c-.16-.48-.93-.33-.78.16Z"/><path class="cls-10" d="M423.23,188.15a9.5,9.5,0,0,1-3.94-1.38,11.23,11.23,0,0,1-4.84-6.78c-.5-1.87-1.08-4.73-3.53-4.81-1.54-.06-2.81,1.49-3.95,2.31-2.32,1.67-4.88,1.23-7.17-.28s-4.32-3.87-4.32-6.68c0-3.09,2.5-5.42,4.87-7a37.55,37.55,0,0,1,8.45-4c3.21-1.15,6.48-2.14,9.58-3.57,2-.94,4.45-2.29,5.75-4.2.14.31.27.62.39.92-2.6,3.34-8.4,5.14-11.75,6.29a79.6,79.6,0,0,0-8.7,3.34c-2.79,1.35-6.13,3.26-7.39,6.26-1.41,3.34,1.17,6.57,3.93,8.23,1.79,1.07,3.77,1.48,5.6.27,1-.64,1.78-1.49,2.78-2.07a3.56,3.56,0,0,1,5.11,1.52c.87,1.5,1,3.28,1.61,4.87a10.29,10.29,0,0,0,2.3,3.39,9.69,9.69,0,0,0,5.05,2.63Z"/><path class="cls-10" d="M422.57,174h0c-.12.26-.25.5-.37.72a9.61,9.61,0,0,1-3.22-7.66,9.77,9.77,0,0,1,6.91-8.8c0,.27.05.54.07.81a8.93,8.93,0,0,0-6.19,8A8.77,8.77,0,0,0,422.57,174Z"/><path class="cls-10" d="M386.44,153.12a6.32,6.32,0,0,0-6,4.87,6.44,6.44,0,0,0,4.13,7c3.13,1.14,5.91-.69,6.52-3.86a6.76,6.76,0,0,0-4.51-8c-.49-.14-.75.6-.26.74a5.88,5.88,0,0,1,4.08,6.55,4.73,4.73,0,0,1-1.87,3.56,4.32,4.32,0,0,1-4,.13,5.69,5.69,0,0,1-3.34-5.72,5.51,5.51,0,0,1,5.26-4.5c.5,0,.56-.81.06-.78Z"/><path class="cls-10" d="M432.09,227.25c-5.22-2.16-9.35-6.7-9.41-12.68a10.67,10.67,0,0,1,4.55-8.79l.18.79a11.14,11.14,0,0,0-1.06.87,9.87,9.87,0,0,0-2.81,8.31c.52,5,4,8.61,8.33,10.55Z"/><polygon class="cls-7" points="393.3 105.31 393.3 105.31 393.3 105.51 393.3 105.31"/><path class="cls-7" d="M394.7,119.84a.67.67,0,0,1-.55.31h-.06a.65.65,0,0,1-.49-.29l.54-.36Z"/><path class="cls-7" d="M394.62,106.54l.17,12.95a.59.59,0,0,1-.09.35l-.56-.34-.54.36a.7.7,0,0,1-.12-.36l-.16-12.82,0-1.17v-.26a6.31,6.31,0,1,0-5.89-9,.72.72,0,0,1-1.3-.6,7.74,7.74,0,1,1,8.51,10.86Z"/><polygon class="cls-7" points="393.31 106.68 393.3 106.68 393.3 105.51 393.31 106.68"/><path class="cls-9" d="M384.47,70.79a3.63,3.63,0,0,1,3.15-3c5.83-.69,24.33-.07,62.14,23.83,39.54,25,34.37,43.06,9.34,29.35-8.77-4.8-51.71-27.46-59.94-32.3C385.35,80.55,383.9,74.15,384.47,70.79Z"/><path class="cls-7" d="M439.71,92.85S415.08,79.32,407,78.56s-7,5.1,5.31,11.72,35.28,19.76,43,21.82S460.43,105.52,439.71,92.85Z"/><path class="cls-11" d="M482,162.4l-.07-32.68-3.4-6-13,0-3.36,6,.07,32.63Zm-9.57-36.68a1.93,1.93,0,1,1-1.92,1.93A1.93,1.93,0,0,1,472.39,125.72Z"/><path class="cls-7" d="M464.83,141.45a3.19,3.19,0,1,1,3.17,3.36A3.08,3.08,0,0,1,464.83,141.45Zm10.24-3.1,2.9,0-8.26,11.93-2.9,0Zm-6.3,3.12c0-1.14-.37-1.49-.74-1.49s-.76.34-.77,1.49.37,1.49.75,1.49S468.76,142.62,468.77,141.47Zm4.81,5.69a3.19,3.19,0,1,1,3.16,3.35A3.07,3.07,0,0,1,473.58,147.16Zm3.94,0c0-1.15-.37-1.49-.75-1.49s-.75.33-.76,1.48.37,1.49.74,1.5S477.51,148.33,477.52,147.18Z"/><path class="cls-7" d="M472.91,110.33a4.93,4.93,0,0,0-.42-.49c.65-1.09,1.58-1.9,2.65-1.25.77.48.86,1.63.87,2.44a28.7,28.7,0,0,1-.47,4.8,56.76,56.76,0,0,1-2.26,9.45,0,0,0,0,0,0,0c-.08.23-.15.46-.23.68-.2.6-1.17.37-1-.25a58.71,58.71,0,0,0,2.07-7.7c.29-1.45.52-2.91.68-4.37a11.37,11.37,0,0,0,.1-3.49c-.29-1.37-1.1-.44-1.68.54A4.13,4.13,0,0,0,472.91,110.33Z"/><path class="cls-9" d="M415.66,76.07s11.2-14,29.55-4.43c19.2,10,14.33,28.8,14.33,28.8S427.82,90.35,415.66,76.07Z"/><path class="cls-12" d="M416.83,74.83s1-2.12,4.46-3.38c0,0,25.44,5.91,38.77,22.27l0,5.18A135.56,135.56,0,0,0,416.83,74.83Z"/><path class="cls-7" d="M321.11,136.53a.79.79,0,0,1-.35-1.45l21.72-14a.77.77,0,0,1,.85,0L363.14,134a.79.79,0,0,1,.24,1.09.78.78,0,0,1-1.09.23L342.9,122.69l-21.29,13.72A.81.81,0,0,1,321.11,136.53Z"/><path class="cls-7" d="M343.82,106.8l-.13,15a.79.79,0,0,1-.79.78h-.07a.79.79,0,0,1-.72-.79l.14-16v-.12a6.31,6.31,0,1,0-5.89-9,.69.69,0,0,1-.64.4.71.71,0,0,1-.65-1,7.74,7.74,0,1,1,8.75,10.8Z"/><path class="cls-13" d="M409.24,155.24c-3.17,10.31-8.58,18.85-18.3,24l-4.13-2.5-.92-.55-10.39-6.3,0,0v0l5.71,54.73.1.94.69,6.62s-46.49,11.85-73.17-2l.24-4.78,0-1,2.64-52.57v-.21l-.13.1-7.93,6-.83.63-2.71,2.05c-13.87-4.34-18.58-12.23-20.86-21.07l3.32-2.32.78-.55A322.44,322.44,0,0,1,316.23,136c.31-.16.62-.33.93-.48,1.93-1,3.85-2,5.76-2.84,0,0,7.52,7.45,22.86,6s16.58-5.44,16.58-5.44l5,2.36.91.42,36.77,17.24.88.41Z"/><path class="cls-14" d="M315,216.54a38.74,38.74,0,0,0,5.13,6.22c.43.42,1-.32.57-.74a38.4,38.4,0,0,1-5-6.05c-.33-.5-1.07.07-.74.57Z"/><path class="cls-14" d="M326.53,207.05a17.41,17.41,0,0,0-3.06,5.23c-.21.56.65.92.86.36a16.57,16.57,0,0,1,2.94-5c.39-.46-.36-1-.74-.57Z"/><path class="cls-14" d="M346.45,215.35a20.55,20.55,0,0,0,4.54,4.58c.49.36,1.06-.38.57-.74a19.66,19.66,0,0,1-4.37-4.41c-.35-.49-1.09.08-.74.57Z"/><path class="cls-14" d="M365.06,208.91a11,11,0,0,1-3.54,4.23c-.49.35.08,1.09.57.74a12,12,0,0,0,3.83-4.61c.27-.54-.6-.9-.86-.36Z"/><path class="cls-14" d="M369.17,214.22l4.53,3.88c.46.39,1-.35.57-.74l-4.53-3.88c-.46-.39-1,.35-.57.74Z"/><path class="cls-14" d="M372.37,189l-2.68,3.74c-.35.49.39,1.06.74.57l2.68-3.74c.35-.49-.39-1.06-.74-.57Z"/><path class="cls-14" d="M351.64,204.93l2.82,2.55c.45.41,1-.34.57-.74l-2.82-2.56c-.45-.4-1,.34-.57.75Z"/><path class="cls-14" d="M338.58,204.63,335,210c-.33.5.41,1.07.74.57l3.57-5.34c.33-.5-.41-1.07-.75-.57Z"/><path class="cls-14" d="M314.34,194.22a23.34,23.34,0,0,0,5.17,3.51c.54.27.9-.59.37-.86a22,22,0,0,1-5-3.4c-.45-.4-1,.35-.57.75Z"/><path class="cls-14" d="M354,191.65a23.33,23.33,0,0,0,5.18,3.52c.54.27.9-.6.36-.87a22.41,22.41,0,0,1-5-3.39c-.45-.4-1,.34-.57.74Z"/><path class="cls-14" d="M338.82,195.44a23,23,0,0,0,6.05,1.61c.6.08.65-.85.05-.93a22.13,22.13,0,0,1-5.81-1.57c-.55-.23-.84.66-.29.89Z"/><path class="cls-14" d="M316.32,175l4.68,2.79c.51.3,1.09-.44.57-.74l-4.68-2.79c-.51-.31-1.08.43-.57.74Z"/><path class="cls-14" d="M332.64,167.28a23.08,23.08,0,0,1-2.84,4.17c-.39.46.36,1,.74.57a23.9,23.9,0,0,0,3-4.38c.29-.54-.58-.89-.86-.36Z"/><path class="cls-14" d="M310.54,152.52l4.12,3.5c.46.39,1-.35.57-.74q-2.06-1.75-4.12-3.5c-.46-.39-1,.35-.57.74Z"/><path class="cls-14" d="M303.39,156.29a12.37,12.37,0,0,1-2.53,3.55c-.43.42.14,1.16.57.74a13.37,13.37,0,0,0,2.82-3.93c.26-.55-.6-.9-.86-.36Z"/><path class="cls-14" d="M299.93,168.79a15.46,15.46,0,0,1,3.95,2.35c.47.39,1-.36.57-.74a16.05,16.05,0,0,0-4.16-2.47.47.47,0,0,0-.36.86Z"/><path class="cls-14" d="M314.66,143.61a26.12,26.12,0,0,0,5,3.25c.54.27.9-.6.36-.87a25.24,25.24,0,0,1-4.81-3.12c-.46-.39-1,.36-.57.74Z"/><path class="cls-14" d="M303,145.56c.43,1.23.86,2.47,1.28,3.7.2.57,1.06.2.86-.37-.42-1.23-.85-2.46-1.28-3.7-.19-.57-1.05-.2-.86.37Z"/><path class="cls-14" d="M292.54,157.08c-.24,1.75-.49,3.5-.73,5.25a.47.47,0,0,0,.93.12c.24-1.75.48-3.5.73-5.25a.47.47,0,0,0-.93-.12Z"/><path class="cls-14" d="M330.64,155.64a16.14,16.14,0,0,0,6.14,3.2c.58.15.94-.71.36-.86a15.59,15.59,0,0,1-5.93-3.08c-.47-.39-1,.36-.57.74Z"/><path class="cls-14" d="M321.82,157a16.87,16.87,0,0,0,.2,4.86c.1.59,1,.46.92-.13a16.28,16.28,0,0,1-.19-4.62.47.47,0,0,0-.93-.11Z"/><path class="cls-14" d="M352.4,158.57a9.37,9.37,0,0,0,3.85-3,.47.47,0,0,0-.74-.57,8.5,8.5,0,0,1-3.48,2.68.47.47,0,0,0,.37.86Z"/><path class="cls-14" d="M327.44,187.92a9.45,9.45,0,0,0,3.85-3,.47.47,0,0,0-.74-.57,8.5,8.5,0,0,1-3.48,2.68.47.47,0,0,0,.37.86Z"/><path class="cls-14" d="M357.43,160.7l4.07,3.82c.44.41,1-.34.57-.74L358,160c-.44-.41-1,.33-.57.74Z"/><path class="cls-14" d="M345,184.74l4.16-3.73c.45-.4-.25-1-.69-.63l-4.16,3.72c-.44.41.25,1,.69.64Z"/><path class="cls-14" d="M365.25,172,360,175.31c-.51.32.07,1.06.58.74l5.26-3.28c.52-.32-.06-1.06-.57-.74Z"/><path class="cls-14" d="M343.75,166.93l3,5.46c.29.52,1.06,0,.78-.53l-3-5.46c-.29-.53-1.06,0-.78.53Z"/><path class="cls-14" d="M364.85,180.86a33.34,33.34,0,0,1,5.94,1.72.47.47,0,0,0,.36-.87,35.14,35.14,0,0,0-6.18-1.77c-.6-.12-.71.81-.12.92Z"/><path class="cls-14" d="M370.44,203.61l5.18-1.22c.58-.14.46-1.07-.13-.93l-5.18,1.23c-.58.14-.45,1.06.13.92Z"/><path class="cls-14" d="M373.27,151a38.28,38.28,0,0,1-3.5,6.17c-.34.49.4,1.06.74.57a40.19,40.19,0,0,0,3.63-6.38c.25-.55-.62-.91-.87-.36Z"/><path class="cls-14" d="M360.64,146.48l2,4c.27.53,1.13.17.86-.37-.67-1.34-1.34-2.69-2-4-.27-.53-1.13-.17-.86.37Z"/><path class="cls-14" d="M342.59,150l.7,4.33a.47.47,0,0,0,.93-.13l-.71-4.34a.47.47,0,0,0-.92.14Z"/><path class="cls-14" d="M370.69,143.14l2.64-2.39c.44-.4-.12-1.15-.57-.74l-2.65,2.39c-.44.41.13,1.15.58.74Z"/><path class="cls-14" d="M380.58,151.17c1,1.38,2,2.76,3,4.13.35.5,1.09-.08.74-.57l-3-4.13c-.35-.49-1.09.08-.74.57Z"/><path class="cls-14" d="M386.57,168.22l-2.88,1.87c-.5.32.07,1.06.58.74l2.88-1.87c.5-.33-.07-1.07-.58-.74Z"/><path class="cls-14" d="M393.77,157.54l5-.81a.46.46,0,0,0-.13-.92l-5,.8c-.59.1-.46,1,.13.93Z"/><path class="cls-14" d="M391,148.71a21,21,0,0,1-2.18,4.11c-.34.5.41,1.07.74.57a21.31,21.31,0,0,0,2.3-4.32.47.47,0,0,0-.86-.36Z"/><path class="cls-14" d="M379.6,159.71l-3.7,1.88c-.54.28-.17,1.14.36.87l3.7-1.89c.54-.27.17-1.14-.36-.86Z"/><path class="cls-14" d="M358.61,221.69l3.2,4.5c.35.49,1.09-.09.74-.58q-1.6-2.24-3.2-4.49c-.35-.49-1.09.08-.74.57Z"/><path class="cls-14" d="M339.15,219.72a22.39,22.39,0,0,1-4,3.16c-.51.32.07,1.06.57.74a22.48,22.48,0,0,0,4-3.16c.42-.42-.15-1.16-.57-.74Z"/><path class="cls-15" d="M368.3,136a30.83,30.83,0,0,1-6.44,4.25c-14,7-33.09,5.36-45.63-4.32.31-.16.62-.33.93-.48,7.59,5.64,17.52,8.31,26.85,8.11,8.14-.17,17-2.59,23.38-8Z"/><path class="cls-15" d="M406,153.69A47.92,47.92,0,0,1,398.87,166a49.14,49.14,0,0,1-12.06,10.73l-.92-.55a48.58,48.58,0,0,0,19.18-22.92Z"/><path class="cls-15" d="M381.28,225.59c-4.18,1.2-8.42,2.2-12.69,3a133.62,133.62,0,0,1-34.75,2,91.07,91.07,0,0,1-24.8-5.14l0-1a76.08,76.08,0,0,0,11.18,3.25c19.9,4.27,41.34,2.69,60.91-3Z"/><path class="cls-15" d="M312.23,171.83l5.45-5c.44-.4-.13-1.14-.57-.74l-5.45,5c-.44.41.13,1.15.57.74Z"/><path class="cls-15" d="M369.69,165.66c1.74,1.44,3.66,2.66,5.33,4.19.44.41,1-.34.57-.74-1.67-1.53-3.59-2.75-5.33-4.2-.46-.38-1,.36-.57.75Z"/><path class="cls-15" d="M303.68,177.78l-.83.63a44.6,44.6,0,0,1-20.25-21.34l.78-.55A43.66,43.66,0,0,0,303.68,177.78Z"/><path class="cls-7" d="M284.11,133.3a.59.59,0,0,1-.36-.11l-17.58-11.65L249.9,131.81a.66.66,0,1,1-.7-1.11l16.63-10.49a.65.65,0,0,1,.71,0l17.93,11.89a.65.65,0,0,1-.36,1.2Z"/><path class="cls-7" d="M266.9,106.86l-.06,13.9a.65.65,0,0,1-.61.65h-.05a.66.66,0,0,1-.66-.66l.07-14.71v-.48a6.31,6.31,0,1,0-5.89-9,.72.72,0,0,1-1.3-.6,7.74,7.74,0,1,1,8.5,10.86Z"/><path class="cls-4" d="M323.89,240.73a10.67,10.67,0,0,0,2,5.62,16.39,16.39,0,0,0,10.44-2.47,16.78,16.78,0,0,0-1.41-5.22Z"/><path class="cls-4" d="M206.15,238.92a10.77,10.77,0,0,1-2.14,5.56,16.43,16.43,0,0,1-10.36-2.79,16.47,16.47,0,0,1,1.57-5.18Z"/><path class="cls-6" d="M193.93,236.87s3.58,3.37,12.59,4.65c0,0,5.41-5,11.75-17.81a139.81,139.81,0,0,0,5.91-13.88c0,.2,0,.39.08.58s.05.3.07.45a1.09,1.09,0,0,1,0,.25C223,236.85,229,255.49,236,254.33a149.89,149.89,0,0,0,28.77,2.72,151.16,151.16,0,0,0,28.85-1.83c5.2-3.31,14.44-22.19,13-43.09a1.55,1.55,0,0,1,0-.21l.12-.63,0-.19.15.44a137.72,137.72,0,0,0,5.19,13.33c6,13.19,11.33,18.45,11.33,18.45,9.05-1,12.73-4.26,12.73-4.26a158.64,158.64,0,0,0-4.67-25.53c-.05-.18-.09-.35-.14-.52l-.06-.23c-.19-.72-.39-1.43-.58-2.14a241,241,0,0,0-8.38-24.55c-.33-.82-.66-1.64-1-2.44-.07-.18-.15-.36-.23-.55-.75-1.82-1.5-3.59-2.25-5.29-.13-.28-.24-.56-.36-.83-1-2.18-1.92-4.26-2.84-6.21-.12-.28-.25-.55-.38-.82C310.07,158.92,306,152,306,152l-15.84-11.15c.19-3.42-1.33-7-4.07-10.64A91,91,0,0,1,247,130.1,20.11,20.11,0,0,0,241.68,141l-14.87,9.84a262.68,262.68,0,0,0-15.64,29.56c-.12.25-.23.49-.34.74-.32.7-.63,1.41-1,2.13A240.72,240.72,0,0,0,200.14,209c-.17.53-.34,1.07-.5,1.61-.06.21-.13.43-.19.65s0,.17-.08.25A159.44,159.44,0,0,0,193.93,236.87Z"/><path class="cls-4" d="M302,182.48a134.55,134.55,0,0,1-23.95,2.28,350.81,350.81,0,0,1-42.14-1.65c-2.21-.22-4.43-.48-6.64-.81l-.42,2.3c1.11.18,2.23.33,3.35.47,7.21.87,14.47,1.38,21.72,1.72,14,.68,28.31,1,42.22-.94,2-.27,3.92-.59,5.86-1A19.06,19.06,0,0,1,302,182.48Z"/><path class="cls-4" d="M302.73,192.51c-.07-.66-.13-1.33-.19-2a135.34,135.34,0,0,1-23.68,2.23,348.84,348.84,0,0,1-42.14-1.66c-2.95-.29-5.94-.64-8.87-1.19-.15.77-.29,1.53-.42,2.3h0c1.85.34,3.72.61,5.59.84,7.2.87,14.47,1.38,21.72,1.73,14,.67,28.3.95,42.22-.94,2-.27,3.89-.59,5.81-1C302.76,192.75,302.74,192.63,302.73,192.51Z"/><path class="cls-4" d="M303.64,198.47a131.26,131.26,0,0,1-24.78,2.45,350.89,350.89,0,0,1-42.14-1.65c-3.32-.33-6.68-.74-10-1.4-.08.78-.18,1.55-.3,2.33,2.17.43,4.37.76,6.57,1,7.2.87,14.47,1.38,21.72,1.73,14,.67,28.3.94,42.22-1q3.57-.48,7.08-1.23C303.88,200,303.75,199.24,303.64,198.47Z"/><path class="cls-4" d="M290.11,140.86s-1.47.46-4,1l-.79.18c-1.6.36-3.55.74-5.78,1.1l-.78.13c-2.05.31-4.31.59-6.73.8l-.79.06c-2.55.2-5.27.31-8.09.27h-.78c-2.39-.05-4.85-.2-7.33-.49l-.79-.1a67.61,67.61,0,0,1-7.3-1.34l-.76-.2c-1.5-.39-3-.84-4.49-1.36A20.11,20.11,0,0,1,247,130.1c1,.21,1.95.4,2.93.58l.8.14q2.92.52,5.8.85l.79.08q3,.33,6,.45l.78,0q3.15.11,6.25,0l.78,0c2-.09,4-.25,6-.47l.8-.09c1.75-.22,3.5-.49,5.23-.81l.8-.15c.72-.14,1.45-.29,2.17-.45C288.78,133.88,290.3,137.44,290.11,140.86Z"/><path class="cls-7" d="M257.28,131.75A45.18,45.18,0,0,0,255,144l-.79-.1a45.89,45.89,0,0,1,2.26-12.18Z"/><path class="cls-7" d="M264.05,132.23q-.45,6.11-.92,12.22h-.78q.47-6.12.92-12.24Z"/><path class="cls-7" d="M272,144.12l-.79.06q-.45-6-.92-12l.78,0Z"/><path class="cls-7" d="M279.52,143.19l-.78.13a50.94,50.94,0,0,0-1.7-11.6l.8-.09A51.22,51.22,0,0,1,279.52,143.19Z"/><path class="cls-7" d="M286.09,141.91l-.79.18a28.72,28.72,0,0,0-2.23-11.27l.8-.15A29.75,29.75,0,0,1,286.09,141.91Z"/><path class="cls-7" d="M250.69,130.82a41.09,41.09,0,0,0-3.76,11.69l-.76-.2a41.37,41.37,0,0,1,3.72-11.63Z"/><path class="cls-4" d="M298.46,167.24h0a.44.44,0,0,0,.41-.47c-.6-7.64,5.95-14,6-14.12a.43.43,0,0,0,0-.62.44.44,0,0,0-.63,0c-.28.28-6.92,6.78-6.29,14.82A.45.45,0,0,0,298.46,167.24Z"/><path class="cls-4" d="M233.68,166.24a.45.45,0,0,0,.45-.4c.88-8-5.55-14.72-5.83-15a.44.44,0,0,0-.63,0,.45.45,0,0,0,0,.63c.07.06,6.42,6.68,5.59,14.28a.45.45,0,0,0,.39.5Z"/><path class="cls-4" d="M274.17,237.83a50.13,50.13,0,0,0,14-1.77.45.45,0,1,0-.23-.86c-14.19,3.87-26.7.54-34.7-2.93a57.85,57.85,0,0,1-14.1-8.55.45.45,0,0,0-.63,0,.44.44,0,0,0,0,.63,59.37,59.37,0,0,0,14.34,8.69,57,57,0,0,0,15.74,4.37A48.73,48.73,0,0,0,274.17,237.83Z"/><path class="cls-4" d="M275.09,231.18h0a.43.43,0,0,0,.45-.44.45.45,0,0,0-.44-.45h0c-6.57-.1-10.66-2.57-12.94-4.63a14,14,0,0,1-3.37-4.45.45.45,0,0,0-.58-.25.45.45,0,0,0-.25.58,14.54,14.54,0,0,0,3.6,4.78C264,228.48,268.24,231.08,275.09,231.18Z"/><path class="cls-4" d="M236.53,258.58a10.27,10.27,0,0,0,1.9.7c.3.07.63.14,1,.2,1.14.21,2.57.41,4.29.62l.95.11,3.23.35,1,.1,1,.09c1.39.13,2.78.25,4.18.35l.93.06c1.39.1,2.77.18,4.15.24l.93,0c1.38.06,2.76.11,4.13.14h.93c1.38,0,2.76,0,4.13,0h.93c1.39,0,2.77,0,4.15-.08l.94,0c1.39-.05,2.78-.11,4.18-.19l.94-.06q2.1-.12,4.2-.3h0l1-.08c1.83-.16,3.22-.32,4.3-.5.37-.06.7-.13,1-.19a5.06,5.06,0,0,0,1.93-.74c1.53-1.15,3.06-6.32,3.06-6.32-.69.24-3,1-3.81,1.15l-1,.23c-1.41.3-2.94.54-4.54.73l-.95.11c-1.46.15-2.95.27-4.44.36l-.94,0c-1.5.07-3,.12-4.4.15h-.93c-1.58,0-3.06,0-4.38,0h-.92c-2.07,0-3.63-.11-4.37-.14l-.47,0h-.46c-.73,0-2.29,0-4.37,0H259c-1.32,0-2.8-.06-4.38-.13l-.93,0c-1.41-.07-2.89-.16-4.38-.28l-.94-.08c-1.49-.14-3-.3-4.43-.5l-.95-.14c-1.59-.24-3.11-.53-4.51-.87h0l-1-.26c-.8-.22-5.67-1.35-6.35-1.62C231.11,251.82,232.77,257.22,236.53,258.58Z"/><path class="cls-7" d="M289.84,260.38c.37-.06.7-.13,1-.19.47-2,.87-4.16,1.18-5.91l-1,.23C290.72,256.28,290.31,258.4,289.84,260.38Z"/><path class="cls-7" d="M284.58,261l1-.08c.37-1.87.7-3.88,1-5.64l-.95.11C285.28,257.12,285,259.13,284.58,261Z"/><path class="cls-7" d="M279.41,261.32l.94-.06c.29-1.81.55-3.78.76-5.55l-.94,0C280,257.55,279.7,259.53,279.41,261.32Z"/><path class="cls-7" d="M274.29,261.53l.94,0c.2-1.8.39-3.79.54-5.6h-.93C274.68,257.74,274.5,259.75,274.29,261.53Z"/><path class="cls-7" d="M269.21,261.62h.93c.12-1.81.23-3.84.32-5.7h-.92C269.45,257.76,269.33,259.81,269.21,261.62Z"/><path class="cls-7" d="M264.24,255.75l-.09,5.83h.93l.09-5.83-.47,0Z"/><path class="cls-7" d="M259,255.74c0,1.84.08,3.86.14,5.66l.93,0c-.06-1.8-.11-3.84-.15-5.69Z"/><path class="cls-7" d="M253.64,255.57c.1,1.78.22,3.75.37,5.53l.93.06c-.14-1.77-.27-3.75-.37-5.55Z"/><path class="cls-7" d="M248.32,255.21c.15,1.72.33,3.63.56,5.45l1,.09c-.23-1.77-.42-3.71-.57-5.46Z"/><path class="cls-7" d="M242.94,254.57c.2,1.72.46,3.69.77,5.53l.95.11c-.31-1.85-.57-3.78-.77-5.5Z"/><path class="cls-7" d="M237.46,253.44c.24,1.73.57,3.83,1,5.84.3.07.63.14,1,.2-.4-2-.73-4-1-5.78h0Z"/><path class="cls-4" d="M330.72,210.64a241,241,0,0,0-8.38-24.55C320.7,190.3,316.13,205.19,330.72,210.64Z"/><path class="cls-4" d="M200.14,209c18.75-5.36,9.82-25.77,9.82-25.77h-.08A240.72,240.72,0,0,0,200.14,209Z"/><path class="cls-4" d="M259.32,159.33a41.73,41.73,0,0,0,14.8-2.43,34,34,0,0,0,9.65-5.14.45.45,0,0,0,.06-.65.46.46,0,0,0-.65-.05,34.26,34.26,0,0,1-9.41,5,41.86,41.86,0,0,1-24.93.9.47.47,0,1,0-.24.9A45.15,45.15,0,0,0,259.32,159.33Z"/><path class="cls-4" d="M257.91,154.47c7.59.12,10.82-3,11-3.15a.46.46,0,0,0-.65-.65s-3.55,3.39-11.78,2.82a.45.45,0,0,0-.49.43.46.46,0,0,0,.42.49C256.9,154.44,257.42,154.47,257.91,154.47Z"/><path class="cls-4" d="M306,211a.45.45,0,0,0,.16,0,.56.56,0,0,0,.38-.7c-.06-.2-6-20.25-3.45-39.5a.56.56,0,0,0-1.11-.14c-2.53,19.49,3.43,39.76,3.49,40A.56.56,0,0,0,306,211Z"/><path class="cls-4" d="M302,181.22a.51.51,0,0,0,.31-.09.55.55,0,0,0,.17-.77,23.79,23.79,0,0,1-2.92-10.16.56.56,0,0,0-1.12.08,24.2,24.2,0,0,0,3.1,10.68A.53.53,0,0,0,302,181.22Z"/><path class="cls-4" d="M223.69,209.74a.51.51,0,0,0,.17,0,.57.57,0,0,0,.55-.37,118.85,118.85,0,0,0,4.81-21.46c0-.34.08-.69.13-1a88,88,0,0,0,.45-17.26.56.56,0,1,0-1.11.09,86,86,0,0,1-.36,16.19c0,.38-.08.75-.13,1.12a116.5,116.5,0,0,1-4.85,22A.56.56,0,0,0,223.69,209.74Z"/><path class="cls-4" d="M229.53,180.07a.6.6,0,0,0,.48-.24,24.39,24.39,0,0,0,3.6-10.52.56.56,0,0,0-1.12-.14,23.48,23.48,0,0,1-3.4,10,.56.56,0,0,0,.44.89Z"/><path class="cls-4" d="M262.42,251.15a208,208,0,0,0,29.25-1.66.57.57,0,0,0,.48-.64.56.56,0,0,0-.64-.47c-.29,0-29.56,4.24-53.92-.83a.56.56,0,0,0-.66.43.57.57,0,0,0,.44.67A136.19,136.19,0,0,0,262.42,251.15Z"/><path class="cls-7" d="M441.82,384.94A1.84,1.84,0,0,1,440,383.1V98.19H139.06V383.1a1.84,1.84,0,1,1-3.67,0V96.35a1.83,1.83,0,0,1,1.84-1.83H441.82a1.83,1.83,0,0,1,1.83,1.83V383.1A1.84,1.84,0,0,1,441.82,384.94Z"/><path class="cls-12" d="M108.36,381.83h59.87a0,0,0,0,1,0,0v10.63a0,0,0,0,1,0,0H108.36a4.92,4.92,0,0,1-4.92-4.92v-.79A4.92,4.92,0,0,1,108.36,381.83Z"/><path class="cls-9" d="M114,381.83h56.28a3.6,3.6,0,0,1,3.6,3.6v3.43a3.6,3.6,0,0,1-3.6,3.6H114a4.92,4.92,0,0,1-4.92-4.92v-.79A4.92,4.92,0,0,1,114,381.83Z"/><circle class="cls-7" cx="121.16" cy="401.9" r="9.44" transform="translate(-297.75 428.62) rotate(-76.87)"/><circle class="cls-7" cx="123.58" cy="401.9" r="9.44" transform="translate(-255.53 220.04) rotate(-47.28)"/><rect class="cls-7" x="120.8" y="392.45" width="2.68" height="18.88"/><path class="cls-16" d="M127.4,401.9a3.82,3.82,0,1,1-3.82-3.82A3.82,3.82,0,0,1,127.4,401.9Z"/><circle class="cls-7" cx="155.54" cy="401.9" r="9.44" transform="translate(-238.63 227.69) rotate(-45)"/><circle class="cls-7" cx="157.95" cy="401.9" r="9.44" transform="translate(-237.92 229.4) rotate(-45)"/><rect class="cls-7" x="155.18" y="392.45" width="2.68" height="18.88"/><path class="cls-16" d="M161.77,401.9a3.82,3.82,0,1,1-3.82-3.82A3.82,3.82,0,0,1,161.77,401.9Z"/><path class="cls-12" d="M411.54,381.83h59.87a0,0,0,0,1,0,0v10.63a0,0,0,0,1,0,0H411.54a4.92,4.92,0,0,1-4.92-4.92v-.79A4.92,4.92,0,0,1,411.54,381.83Z"/><path class="cls-9" d="M417.14,381.83h56.28a3.6,3.6,0,0,1,3.6,3.6v3.43a3.6,3.6,0,0,1-3.6,3.6H417.14a4.92,4.92,0,0,1-4.92-4.92v-.79A4.92,4.92,0,0,1,417.14,381.83Z"/><circle class="cls-7" cx="424.34" cy="401.9" r="9.44" transform="translate(-67.43 717.73) rotate(-76.15)"/><circle class="cls-7" cx="426.75" cy="401.9" r="9.44" transform="translate(-155.53 334.19) rotate(-36.65)"/><rect class="cls-7" x="423.98" y="392.45" width="2.68" height="18.88"/><path class="cls-16" d="M430.57,401.9a3.82,3.82,0,1,1-3.82-3.82A3.82,3.82,0,0,1,430.57,401.9Z"/><circle class="cls-7" cx="458.71" cy="401.9" r="9.44" transform="matrix(0.58, -0.81, 0.81, 0.58, -135.51, 539.16)"/><circle class="cls-7" cx="461.13" cy="401.9" r="9.44" transform="translate(-134.39 541.61) rotate(-54.28)"/><rect class="cls-7" x="458.35" y="392.45" width="2.68" height="18.88"/><path class="cls-16" d="M465,401.9a3.82,3.82,0,1,1-3.82-3.82A3.82,3.82,0,0,1,465,401.9Z"/><rect class="cls-5" x="174.31" y="344.78" width="101.26" height="66.14"/><rect class="cls-17" x="218.34" y="344.85" width="15.35" height="66.08"/><rect class="cls-17" x="174.31" y="370.21" width="101.26" height="15.35"/><polygon class="cls-4" points="174.31 410.93 169.17 408.08 169.17 342.71 174.31 344.29 174.31 410.93"/><polygon class="cls-5" points="174.31 370.21 169.17 368.44 169.17 383.58 174.31 385.56 174.31 370.21"/><polygon class="cls-4" points="169.17 342.71 174.35 344.78 275.57 344.78 267.08 342.71 169.17 342.71"/><polygon class="cls-5" points="218.34 344.85 214.14 342.71 229.48 342.71 233.69 344.85 218.34 344.85"/><polygon class="cls-12" points="329.7 410.82 403.88 410.82 393.67 328.27 339.92 328.27 329.7 410.82"/><polygon class="cls-9" points="333.46 410.82 407.63 410.82 397.42 328.27 343.67 328.27 333.46 410.82"/><path class="cls-12" d="M351.28,370.91A18.89,18.89,0,1,0,370.17,352,18.91,18.91,0,0,0,351.28,370.91Zm10.6,7a24.64,24.64,0,0,1-1-6.61h8.54v6.61Zm4.45,10A17.27,17.27,0,0,1,355,379.4h5.75a21.11,21.11,0,0,0,3.29,6A18.8,18.8,0,0,0,366.33,387.85Zm3.08-8.45v8.86a15.71,15.71,0,0,1-4.2-3.82,19.49,19.49,0,0,1-2.82-5Zm-6.6-17.79a23.61,23.61,0,0,1,5.92-8l.68,0v8.05Zm-7.31,0A17.52,17.52,0,0,1,366.08,354a27.71,27.71,0,0,0-2.39,3,24.32,24.32,0,0,0-2.54,4.64Zm5.38,8.14a21.75,21.75,0,0,1,1.31-6.62h7.22v6.62Zm-8,0a17.14,17.14,0,0,1,1.8-6.62h5.94a23,23,0,0,0-1.22,6.62Zm6.51,1.52a27,27,0,0,0,.94,6.61h-6a17.24,17.24,0,0,1-1.46-6.61Zm21.46,0h6.72a17.24,17.24,0,0,1-1.46,6.61h-6.21A26.56,26.56,0,0,0,380.81,371.27Zm-9.88-9.66v-8.05l.48,0a22.67,22.67,0,0,1,3.83,4.29,23,23,0,0,1,2.11,3.74Zm7,1.52a21.81,21.81,0,0,1,1.31,6.62h-8.35v-6.62Zm1-1.52a24.36,24.36,0,0,0-2.55-4.64,25.53,25.53,0,0,0-2.44-3,17.47,17.47,0,0,1,10.81,7.64Zm.28,9.66a24.58,24.58,0,0,1-1,6.61h-7.35v-6.61Zm1.51-1.52a23,23,0,0,0-1.22-6.62h6.11a17.16,17.16,0,0,1,1.81,6.62Zm4.51,9.65a17.51,17.51,0,0,1-11.54,8.5,19.67,19.67,0,0,0,2.33-2.48,20.85,20.85,0,0,0,3.28-6Zm-7.55,0a17.81,17.81,0,0,1-6.83,8.75V379.4Z"/><path class="cls-12" d="M379.82,332.41a2.53,2.53,0,1,0,2.53-2.53A2.53,2.53,0,0,0,379.82,332.41Z"/><path class="cls-12" d="M353.89,332.41a2.54,2.54,0,1,0,2.54-2.53A2.54,2.54,0,0,0,353.89,332.41Z"/><path class="cls-7" d="M382.29,332.12h0a1.06,1.06,0,0,0,1-1.11,110.3,110.3,0,0,0-2-16.08c-2.46-11.82-6.57-17.81-12.23-17.81s-9.67,6-11.92,17.83A111.33,111.33,0,0,0,355.5,331a1.06,1.06,0,0,0,1.05,1.09h0a1.06,1.06,0,0,0,1.06-1c.24-9.78,2.64-31.85,11.49-31.85s11.68,22.08,12.1,31.87A1.07,1.07,0,0,0,382.29,332.12Z"/><path class="cls-7" d="M377.58,332.12h0a1,1,0,0,0,1-1.08,107.46,107.46,0,0,0-1.91-15.54c-2.39-11.43-6.37-17.23-11.83-17.23s-9.36,5.8-11.53,17.25a106.39,106.39,0,0,0-1.63,15.54,1,1,0,0,0,1,1.06h0a1,1,0,0,0,1-1c.23-9.46,2.55-30.8,11.12-30.8s11.29,21.36,11.7,30.82A1,1,0,0,0,377.58,332.12Z"/><path class="cls-7" d="M328.71,366.28h0c.45,0,.8-.61.76-1.3a56,56,0,0,0-2.09-12.26c-2.69-9-7.46-13.78-13.78-13.78s-11,4.77-13.54,13.8A56,56,0,0,0,298.21,365c0,.69.34,1.27.79,1.27h0c.42,0,.77-.5.8-1.13a53.23,53.23,0,0,1,1.75-11.54c2.3-8.15,6.35-12.28,12.06-12.28s9.88,4.16,12.34,12.36a53.23,53.23,0,0,1,1.95,11.5C327.94,365.82,328.3,366.3,328.71,366.28Z"/><polygon class="cls-15" points="276.23 410.85 352.39 410.85 345.38 357.18 283.25 357.18 276.23 410.85"/><polygon class="cls-8" points="280.25 410.85 356.4 410.85 349.39 357.18 287.26 357.18 280.25 410.85"/><path class="cls-15" d="M328.2,386.43c-.95-2-3-3.06-5.17-3.72-2.46-.76-5-1-6-1.76a.91.91,0,0,1-.47-.8c0-.72.66-1.32,2.57-1.33h.39a13.6,13.6,0,0,1,5.78,1.61l.45.24.57-1.29,1.87-4.14a14.79,14.79,0,0,0-4-1.59,20.94,20.94,0,0,0-2.51-.46l.06-2.07,0-1.38-4.54-.13-.1,3.51c-5.29.59-8,3.57-8.12,7.21a5.78,5.78,0,0,0,3.14,5.55,22.55,22.55,0,0,0,5.85,1.93c1.85.45,3.23.86,3.21,1.81,0,.77-.81,1.2-3,1.14a14.28,14.28,0,0,1-2.77-.38,15.53,15.53,0,0,1-4.6-1.89l-2.6,5.46a12.46,12.46,0,0,0,2.48,1.22,22.19,22.19,0,0,0,5.72,1.27l-.05,2,0,1.45,4.53.13.1-3.57c5-.73,7.61-3.68,7.71-7.16A6.23,6.23,0,0,0,328.2,386.43Z"/><path class="cls-15" d="M301.24,362.05a2.44,2.44,0,1,0,2.44-2.56A2.51,2.51,0,0,0,301.24,362.05Z"/><path class="cls-15" d="M330.67,362.05a2.44,2.44,0,1,0,2.43-2.56A2.5,2.5,0,0,0,330.67,362.05Z"/><path class="cls-7" d="M333.16,362.77a.79.79,0,0,1-.79-.72,51.18,51.18,0,0,0-1.74-8.95c-2.46-8.21-6.61-12.37-12.34-12.37s-9.76,4.13-12.06,12.28a51.19,51.19,0,0,0-1.59,9,.79.79,0,0,1-.79.73h0a.8.8,0,0,1-.8-.87,54.38,54.38,0,0,1,1.7-9.76c2.53-9,7.21-13.8,13.54-13.8s11.09,4.76,13.78,13.78a54.74,54.74,0,0,1,1.89,9.77.8.8,0,0,1-.8.88Z"/><path class="cls-7" d="M203.05,132a.67.67,0,0,1-.34-.09L184.19,120.4a.67.67,0,0,1-.21-.91.66.66,0,0,1,.9-.21l18.52,11.46a.65.65,0,0,1-.35,1.21Z"/><path class="cls-7" d="M166.16,132.19a.68.68,0,0,1-.55-.28.66.66,0,0,1,.18-.91l17.28-11.68a.66.66,0,0,1,.73,1.09l-17.28,11.67A.61.61,0,0,1,166.16,132.19Z"/><path class="cls-7" d="M232.93,275.8a9.84,9.84,0,0,1-.75,1.82c-.11.22-.24.45-.38.69-2,3.28-7,8.23-18.71,4.81l-.77-.24h0c-.81-.25-1.65-.55-2.53-.88a80.29,80.29,0,0,0-12-3.8L197,278c-6.3-1.2-11.06-.59-18.81.59l-.91.14c-2.65.4-5.64.86-9.16,1.33h0l-.89.11h0l-4.11.51c-25.06,2.93-26.87-8.29-26.87-8.29a249,249,0,0,1,8.25-24.24c.31-.75.61-1.5.91-2.24l.39-1q2.1-5.32,3.81-10.41h0c.12-.34.23-.69.34-1,1.57-4.71,2.89-9.25,4-13.55.09-.34.17-.67.26-1A203.65,203.65,0,0,0,158.81,195c0-.27.07-.55.11-.82.44-3.52.72-6.56.9-9,0-.27,0-.53.05-.79.29-4.37.24-6.81.24-6.81-6.57-8.67-5.52-19-3.91-25.2l.21-.79a32.75,32.75,0,0,1,1.75-4.94l.39-5.15,0-.73.72-9.53c1-2,4.19-3.29,6.9-4.06l.67-.19a35.29,35.29,0,0,1,3.5-.73s-.33,14.15,9.5,19q.41.21.84.39h0a16.15,16.15,0,0,0,4.43,1.11c7.49.84,11.44-4.52,13.49-9.75.11-.27.21-.53.3-.8a35.24,35.24,0,0,0,1.86-8.4s8.51-.25,9.78,3.06-2.26,10.58,2.61,19.35c.28.51.54,1,.78,1.54l.39.92a21.33,21.33,0,0,1,1.36,5.61c0,.27.05.54.07.81A29.7,29.7,0,0,1,212.42,174h0c-.13.26-.26.5-.38.72a24.74,24.74,0,0,1-1.45,2.43l2.31,10.23.18.75,1.69,7.48.17.73,2.13,9.42.18.79,4.46,19.73.22.95,3.16,14,.21.94,4.55,20.06.18.8Z"/><path class="cls-16" d="M225.3,242.15c-1.2-.46-2.43-.89-3.65-1.3-6.76-2.32-13.64-4.48-18.89-9.57-4.1-4-7-9.4-7-15.2,0-10.59,9.44-17.65,19-20.45l.17.73a28.46,28.46,0,0,0-14,8.52,17.07,17.07,0,0,0-3.86,15.66c1.61,6.11,6.19,11.11,11.56,14.24,5.11,3,10.9,4.38,16.41,6.43Z"/><path class="cls-16" d="M153.91,220l-.46.22a.39.39,0,0,1-.34-.71l1.06-.51c6-2.94,13-7.36,11.59-15a12.59,12.59,0,0,0-6.95-8.93c0-.27.07-.55.11-.82a13.46,13.46,0,0,1,7.62,9.59C168.08,212.09,160.31,216.85,153.91,220Z"/><path class="cls-16" d="M202,150.66c-1.74.66-3.27-.77-4.89-1.12-3.48-.75-2,4.41-2.84,6.16a4.21,4.21,0,0,1-4.73,1.92c-4.32-.92-7.65-5.56-9-9.5a17.49,17.49,0,0,1-.69-2.87q.41.21.84.39h0a18,18,0,0,0,1.55,4.5,15.22,15.22,0,0,0,4,4.88c1.75,1.39,4.53,2.87,6.6,1.23,1.82-1.45.56-4.08,1.37-6a2.49,2.49,0,0,1,2.76-1.55c1.47.22,3,1.62,4.48,1.3,2.28-.49,1.7-3.91,1.33-5.49a16.08,16.08,0,0,0-4.13-7.52c.11-.27.21-.53.3-.8a16.15,16.15,0,0,1,4.94,10.32C204,148.06,203.63,150,202,150.66Z"/><path class="cls-16" d="M168.89,184.49a15.73,15.73,0,0,1-9.07.66c0-.27,0-.53.05-.79,3.55.67,7.16.59,10.35-1.44,3.51-2.24,5.3-7.69,1.91-10.91-3-2.85-8.84-.74-11-4.89-.84-1.61-.18-3.26.78-4.63,1.41-2,3-3.83,1.78-6.38-1.51-3.24-4.42-4-7.48-3.76l.21-.79c3.06-.19,6,.63,7.72,3.72a5.33,5.33,0,0,1-.23,5.81,16.24,16.24,0,0,0-2.19,3.33,3.14,3.14,0,0,0,1.49,3.77c2.37,1.58,5.43,1,8,2.22a6.19,6.19,0,0,1,3.28,4.1C175.59,178.87,172.84,182.85,168.89,184.49Z"/><path class="cls-16" d="M168,139.12a7.36,7.36,0,0,1-9.44,2.35l0-.73a6.74,6.74,0,0,0,3.76.8,6.67,6.67,0,0,0,6-5.68c.33-3.07-1.21-5.85-2.18-8.71l.67-.19C168.19,131.06,170.8,135.12,168,139.12Z"/><path class="cls-16" d="M230,263a11.6,11.6,0,0,0-3.23-.12c-2.83.28-5.52,1.28-8.3,1.83a30.56,30.56,0,0,1-22.32-4.59,29.59,29.59,0,0,1-8.27-8c-2.43-3.57-3.77-7.7-5.83-11.47A17.15,17.15,0,0,0,171.56,232a28.58,28.58,0,0,0-13.48-.25,36.32,36.32,0,0,0-8.52,2.84c.12-.34.23-.69.34-1a37,37,0,0,1,10.58-3,26.76,26.76,0,0,1,13.25,1.35,18,18,0,0,1,9.16,8.59c2.2,4.1,3.62,8.59,6.48,12.33a29.72,29.72,0,0,0,10.11,8.35,30.32,30.32,0,0,0,12.69,3.31,26.63,26.63,0,0,0,6.54-.57,77,77,0,0,1,7.94-1.76,12.16,12.16,0,0,1,3.2.1Z"/><path class="cls-16" d="M168.49,278.62a8.24,8.24,0,0,1-.42,1.47h0l-.89.11a6,6,0,0,0,.16-5.19c-1.91-4-7.68-4.64-9.09-9s2.83-7.93,4.73-11.32c1.29-2.3,1.64-5-.27-7.08s-5-2.86-7.68-3a24,24,0,0,0-9.67,1.4l.39-1a23,23,0,0,1,11.2-1,10.79,10.79,0,0,1,6.57,3.34,6.21,6.21,0,0,1,.76,6.47c-1.69,4.08-8.09,8.94-4.37,13.62,1.63,2.06,4.22,3.1,6.17,4.81A6.62,6.62,0,0,1,168.49,278.62Z"/><path class="cls-16" d="M197.8,278.2,197,278a42.49,42.49,0,0,0-2.15-6.36c-1.26-2.94-3.52-7.06-7.32-4.92-2.84,1.6-5.18,4.63-6.93,7.32a29.57,29.57,0,0,0-2.41,4.55l-.91.14a30.25,30.25,0,0,1,3.39-6.19,29.93,29.93,0,0,1,3.68-4.27,10.42,10.42,0,0,1,4-2.77c3.23-1,5.4,2,6.61,4.52A40.68,40.68,0,0,1,197.8,278.2Z"/><path class="cls-16" d="M232.18,277.62c-.11.22-.24.45-.38.69a13.24,13.24,0,0,0-10.63-1.83,13.07,13.07,0,0,0-8.08,6.64l-.77-.24a13.56,13.56,0,0,1,19.86-5.26Z"/><path class="cls-16" d="M190.19,188.55a25,25,0,0,0-11.1,7.25c-2.64,3-6,7.7-5.17,12a4.74,4.74,0,0,0,3.9,3.75c2.39.46,4.68-.62,6.67-1.83,4.31-2.61,9.07-6.42,11.23-11.1a8.07,8.07,0,0,0,0-7.35,5.39,5.39,0,0,0-5.54-2.68.39.39,0,0,0,.15.77,4.76,4.76,0,0,1,5.22,3.46,8.42,8.42,0,0,1-1.17,6.63c-2.19,3.7-5.91,6.79-9.49,9.09-1.85,1.19-3.94,2.43-6.22,2.32a4.16,4.16,0,0,1-4.08-4.54c.13-3.61,2.72-7.26,5-9.89a24.26,24.26,0,0,1,10.73-7.07c.48-.15.33-.93-.15-.77Z"/><path class="cls-16" d="M189.91,239a21.6,21.6,0,0,0,6.21,9.55c2.54,2.23,6.56,5.11,10.16,4.38a4,4,0,0,0,3.18-3.14c.47-2-.36-4-1.38-5.72-2.19-3.73-5.43-7.85-9.43-9.75a7,7,0,0,0-6.28-.17,4.7,4.7,0,0,0-2.46,4.85c.08.5.86.34.78-.16-.47-2.93,2.35-4.75,5-4.55s4.68,1.86,6.46,3.56a30.25,30.25,0,0,1,4.63,5.59c1.24,1.91,2.67,4.34,1.77,6.67-1.83,4.8-8.51.55-10.95-1.36a20.57,20.57,0,0,1-6.9-9.91c-.16-.48-.93-.33-.78.16Z"/><path class="cls-16" d="M213.08,188.15a9.5,9.5,0,0,1-4-1.38,11.23,11.23,0,0,1-4.84-6.78c-.5-1.87-1.08-4.73-3.53-4.81-1.53-.06-2.81,1.49-3.95,2.31-2.31,1.67-4.87,1.23-7.17-.28s-4.32-3.87-4.32-6.68c0-3.09,2.5-5.42,4.87-7a37.55,37.55,0,0,1,8.45-4c3.21-1.15,6.48-2.14,9.58-3.57,2-.94,4.45-2.29,5.76-4.2l.39.92c-2.61,3.34-8.41,5.14-11.75,6.29a79,79,0,0,0-8.71,3.34c-2.79,1.35-6.13,3.26-7.39,6.26-1.41,3.34,1.17,6.57,3.93,8.23,1.79,1.07,3.77,1.48,5.6.27,1-.64,1.78-1.49,2.78-2.07a3.56,3.56,0,0,1,5.11,1.52c.87,1.5,1,3.28,1.61,4.87a10.29,10.29,0,0,0,2.3,3.39,9.69,9.69,0,0,0,5.05,2.63Z"/><path class="cls-16" d="M212.42,174h0c-.13.26-.26.5-.38.72a9.61,9.61,0,0,1-3.22-7.66,9.77,9.77,0,0,1,6.91-8.8c0,.27.05.54.07.81a8.93,8.93,0,0,0-6.19,8A8.74,8.74,0,0,0,212.42,174Z"/><path class="cls-16" d="M176.28,153.12a6.33,6.33,0,0,0-6,4.87,6.44,6.44,0,0,0,4.13,7c3.13,1.14,5.91-.69,6.52-3.86a6.76,6.76,0,0,0-4.51-8c-.48-.14-.75.6-.26.74a5.9,5.9,0,0,1,4.09,6.55,4.78,4.78,0,0,1-1.88,3.56,4.32,4.32,0,0,1-4,.13A5.69,5.69,0,0,1,171,158.4a5.51,5.51,0,0,1,5.26-4.5c.5,0,.56-.81.06-.78Z"/><path class="cls-16" d="M221.93,227.25c-5.22-2.16-9.35-6.7-9.41-12.68a10.67,10.67,0,0,1,4.55-8.79l.18.79a11.14,11.14,0,0,0-1.06.87,9.87,9.87,0,0,0-2.81,8.31c.52,5,4,8.61,8.33,10.55Z"/><polygon class="cls-7" points="183.14 105.31 183.14 105.31 183.14 105.51 183.14 105.31"/><path class="cls-7" d="M184.54,119.84a.66.66,0,0,1-.55.31h-.06a.65.65,0,0,1-.49-.29l.54-.36Z"/><path class="cls-7" d="M184.47,106.54l.17,12.95a.68.68,0,0,1-.1.35l-.56-.34-.54.36a.7.7,0,0,1-.12-.36l-.16-12.82,0-1.17v-.26a6.31,6.31,0,1,0-5.89-9,.72.72,0,0,1-1.3-.6,7.74,7.74,0,1,1,8.52,10.86Z"/><polygon class="cls-7" points="183.16 106.68 183.14 106.68 183.14 105.51 183.16 106.68"/><path class="cls-18" d="M481.16,117.88l-.19,1.25-.17,1.19c-.1.79-.2,1.57-.28,2.36-.17,1.57-.31,3.16-.39,4.77s-.14,3.25-.1,4.94a42.65,42.65,0,0,0,.37,5.27,27.17,27.17,0,0,0,1.47,6.06,17.89,17.89,0,0,0,1.87,3.66,15.23,15.23,0,0,0,1.61,2,14.15,14.15,0,0,0,2.33,2,13.2,13.2,0,0,0,3.07,1.55,13.75,13.75,0,0,0,3.4.75,16.07,16.07,0,0,0,5.78-.55,18.93,18.93,0,0,0,2.17-.74l.84-.41.79-.43a29.54,29.54,0,0,0,2.84-1.82c.87-.63,1.65-1.28,2.4-1.93s1.44-1.31,2.11-2c1.32-1.33,2.49-2.67,3.59-4a82.39,82.39,0,0,0,5.78-8.15c1.72-2.74,3.28-5.5,4.75-8.29.73-1.4,1.43-2.81,2.12-4.23.34-.71.67-1.42,1-2.15l.5-1.09.52-1.2a10,10,0,1,0-18.24-8L511,109l-.35.81-.41.9c-.28.61-.57,1.22-.86,1.83-.58,1.21-1.19,2.42-1.82,3.62-1.25,2.39-2.58,4.73-4,6.95a62.25,62.25,0,0,1-4.36,6.17,33.87,33.87,0,0,1-2.26,2.53c-.21.22-.43.42-.64.62-.17-.57-.33-1.16-.47-1.76-.29-1.22-.54-2.5-.75-3.81s-.39-2.66-.53-4c-.07-.68-.14-1.36-.19-2l-.14-2,0-.45a6.57,6.57,0,0,0-13-.5Z"/><path class="cls-8" d="M517.2,101.71,515,140.51s-4.07,9.37-11.45,13.47a14.11,14.11,0,0,1-7.44,1.87,16.09,16.09,0,0,1-6.46-1.52C482.88,151.12,481,144,481,144s-1.24-.21-2.48-2.85,1.82-4,1.82-4l.41,2.6c2.72-.06,14.36-12.92,14.36-12.92s.46-.52.76-.06,0,1.81,0,1.81l.3.88.8,2.32s10.65-16.37,11.95-22.07,5.28-17.22,5.28-17.22Z"/><path class="cls-15" d="M503.51,154a14.11,14.11,0,0,1-7.44,1.87,16.09,16.09,0,0,1-6.46-1.52,16.7,16.7,0,0,1,9.64-2.59C501.64,151.82,502.91,152.72,503.51,154Z"/><path class="cls-15" d="M496.17,129.45C493.21,135.08,481,144,481,144s-1.23-.22-2.47-2.85,1.82-4,1.82-4l.4,2.6c2.73-.06,14.37-12.92,14.37-12.92s.46-.52.76-.06,0,1.81,0,1.81Z"/><path class="cls-15" d="M498.69,140.64h.11a.46.46,0,0,0,.46-.46,23.21,23.21,0,0,0-1.38-8.29.46.46,0,1,0-.84.36,22.8,22.8,0,0,1,1.3,7.93A.46.46,0,0,0,498.69,140.64Z"/><path class="cls-15" d="M500.72,134.58a.44.44,0,0,0,.38-.08.45.45,0,0,0,.09-.64,5.45,5.45,0,0,0-3.43-2.18.46.46,0,0,0-.17.9,4.49,4.49,0,0,1,2.87,1.83A.44.44,0,0,0,500.72,134.58Z"/><path class="cls-18" d="M491.17,104.19s-.23,0,.52-1.28c1.21-2,.1-6,1.46-7,1.83-1.39,2.54,2.14,3.41,9.09.23,1.83-1,8.1-1.83,10-.61,1.44-.69,3.5-1.64,4.21-3,2.25-10.23,2.16-11.3.51-1.58-2.44-2-8-2.91-10.07S474,93.89,475.53,94.18s4,6.64,4,6.64-2.43-10.79-.69-11.23,3.89,9.66,3.89,9.66-1.89-13.48.47-12.84c1.18.32,3.23,12.41,3.23,12.41s-.83-7.93,2.48-7.76c3.49.19,4.73,4,4.73,4s-.37,2.39-3,0C488.26,93,491.17,104.19,491.17,104.19Z"/><path class="cls-8" d="M486.32,121.71a17.4,17.4,0,0,1-5.94-1.07,1.26,1.26,0,1,1,.85-2.37A13.64,13.64,0,0,0,493.64,117a1.26,1.26,0,0,1,1.54,2A15.34,15.34,0,0,1,486.32,121.71Z"/><path class="cls-19" d="M479.47,104.18a.46.46,0,0,1,.11-.59,13,13,0,0,1,9.78-2.32.44.44,0,0,1,.36.53.45.45,0,0,1-.53.36h0c-.05,0-5.11-1-9,2.14a.46.46,0,0,1-.64-.07Z"/><path class="cls-19" d="M485.19,114a.45.45,0,0,1,0-.51c3.27-4.34,1.2-8.07,1.18-8.11a.45.45,0,0,1,.78-.46h0c.1.17,2.39,4.29-1.24,9.11a.46.46,0,0,1-.64.09A.49.49,0,0,1,485.19,114Z"/><polygon class="cls-18" points="548.96 381.99 547.76 391.53 535.59 391.53 534.88 381.48 548.96 381.99"/><polygon class="cls-18" points="516.42 380.44 514.95 391.53 502.77 391.53 503.25 380.11 516.42 380.44"/><path class="cls-8" d="M472.74,410.75h46a6.33,6.33,0,0,0,.61-2.56c.29-3.89-1-10.1-1.56-14-.08-.46-.14-.89-.19-1.27a14.86,14.86,0,0,1-.14-1.6c0-3.2-2.83-2.65-2.83-2.65-4.65,4.56-9.93-2.29-13,0,0,0-1.33.95-5,4.24s-9.87,5.46-15.16,7.67c-6.83,2.86-8.77,5.71-9.15,7.67A3.59,3.59,0,0,0,472.74,410.75Z"/><path class="cls-15" d="M472.74,410.75h46a6.33,6.33,0,0,0,.61-2.56h-47A3.59,3.59,0,0,0,472.74,410.75Z"/><path class="cls-15" d="M514.08,410.75h1.36a10.11,10.11,0,0,1-2.47-7.37,12.94,12.94,0,0,1,4.85-9.21c-.08-.46-.14-.89-.19-1.27a14.11,14.11,0,0,0-5.76,10.42A11.22,11.22,0,0,0,514.08,410.75Z"/><path class="cls-11" d="M497.45,395.56a.77.77,0,0,0,.74-.57.76.76,0,0,0-.56-.92l-2.87-.71a.76.76,0,1,0-.37,1.47l2.88.71A.55.55,0,0,0,497.45,395.56Z"/><path class="cls-11" d="M500.31,393.17a.76.76,0,0,0,.18-1.49l-2.88-.72a.75.75,0,0,0-.91.56.74.74,0,0,0,.55.91l2.87.72Z"/><path class="cls-11" d="M494.57,397.24a.76.76,0,0,0,.19-1.5l-2.88-.71a.76.76,0,1,0-.36,1.47l2.87.71A.57.57,0,0,0,494.57,397.24Z"/><path class="cls-11" d="M491.7,398.84a.76.76,0,0,0,.18-1.49l-2.87-.72a.76.76,0,0,0-.37,1.48l2.88.71A.55.55,0,0,0,491.7,398.84Z"/><path class="cls-11" d="M488.56,400.33a.76.76,0,0,0,.19-1.5l-2.88-.71a.76.76,0,1,0-.37,1.47l2.88.72Z"/><path class="cls-11" d="M485.16,401.6a.76.76,0,0,0,.19-1.5l-2.88-.71a.75.75,0,0,0-.92.55.76.76,0,0,0,.55.92l2.88.71Z"/><path class="cls-7" d="M567.72,216.84c-.1.48-.09,2.06-.23,2.52l0,0c-.19.63-.4,1.22-.63,1.79-2.07,5.05-18,5.79-33.69,4C521,223.87,509,221,503.68,217.48c-4.95-3.3,5.6-33.83,5.6-33.83l61.59,9S570.87,201.15,567.72,216.84Z"/><path class="cls-7" d="M496.08,292.75l4.86,88.15,17.53.53s6.42-65.08,4.17-79.24L532,225.1l.23-2-22.5-10.36-1.41-.65-5.73-2.64-.15,1.39c-.18,1.72-.36,3.44-.53,5.15-.06.52-.11,1-.17,1.55-2.82,27.45-4.9,53-5.63,73.61,0,.53,0,1.06-.05,1.58Z"/><path class="cls-16" d="M496.08,292.75c1.2.12,2.42.16,3.6.16a57.36,57.36,0,0,0,8.41-.66.79.79,0,1,0-.26-1.55,52.76,52.76,0,0,1-11.7.47C496.11,291.7,496.09,292.23,496.08,292.75Z"/><path class="cls-16" d="M529.06,226.19l-10.5,80.16c.32,1.76,3.67,22-1.7,68.17-.05.46-.1.93-.16,1.4l-1.47,0c.06-.47.11-.93.16-1.4,5.6-48,1.75-67.79,1.71-68a1,1,0,0,1,0-.24L527.61,226a.73.73,0,0,1,1.45.19Z"/><path class="cls-16" d="M519.06,375.24a.69.69,0,0,1-.68.69H516.7l-1.47,0-14-.11h-.06a.69.69,0,0,1-.59-.71.68.68,0,0,1,.67-.69l14.14.11,1.47,0h1.55A.68.68,0,0,1,519.06,375.24Z"/><path class="cls-16" d="M516.07,199.64c-.07.37-1.51,7.84-6.32,13.12a17.11,17.11,0,0,1-3.35,2.86,14.17,14.17,0,0,1-3.11,1.51,13.34,13.34,0,0,1-1.53.43c.06-.52.11-1,.16-1.55.25-.06.49-.13.73-.21a13,13,0,0,0,3-1.41,15,15,0,0,0,2.73-2.28c4.81-5,6.28-12.65,6.3-12.74a.73.73,0,1,1,1.43.27Z"/><path class="cls-16" d="M528.1,222.07a.62.62,0,0,0,.58.62h0a.61.61,0,0,0,.64-.56c.11-2.2.24-4.46.38-6.71,0-.39,0-.79.08-1.19.47-7.35,1.08-14.57,1.54-19.67,0-.42.07-.82.11-1.2.1-1.12.19-2.11.27-3l-1.2-.2c-.08.84-.18,1.85-.28,3,0,.38-.07.78-.11,1.19-.45,5.06-1.05,12.22-1.53,19.53,0,.4-.06.81-.08,1.21C528.35,217.45,528.22,219.79,528.1,222.07Z"/><path class="cls-16" d="M526.37,214.31a16.45,16.45,0,0,0,2.13.81c.38.11.78.22,1.2.3a7.55,7.55,0,0,0,1.15.15,4.13,4.13,0,0,0,2-.32,2.48,2.48,0,0,0,1.39-1.86c.44-2.27,1.37-11.64,2-18.26q.06-.62.12-1.2c.1-1.06.18-2,.26-2.84l-1.21-.15c-.08.82-.17,1.8-.27,2.87,0,.39-.07.79-.11,1.2-.63,6.61-1.55,16-2,18.16a1.31,1.31,0,0,1-.73,1,4.27,4.27,0,0,1-2.57,0c-.41-.09-.82-.2-1.2-.32a13.45,13.45,0,0,1-1.67-.66.63.63,0,0,0-.82.27A.59.59,0,0,0,526.37,214.31Z"/><path class="cls-7" d="M533.15,215.57V379.36l.18,2.6h18.06c1-5.85,7.76-29.48,8.7-49.18,1-21.2.73-48.67.73-48.67,1.91-14.61,4.83-45,6.53-63.25,0-.49.09-1,.13-1.44a.13.13,0,0,0,0-.06h0c0-.48.08-.94.13-1.4.67-7.25,1.09-12,1.09-12-2.8-1.16-7.79-.43-13.16,1l-1.43.41c-.9.26-1.8.54-2.7.83l-1.42.48A176.12,176.12,0,0,0,533.15,215.57Z"/><path class="cls-16" d="M533.15,288.82v1.58c1.16.11,2.33.15,3.47.15a57.69,57.69,0,0,0,8.41-.66.79.79,0,0,0-.26-1.55A53,53,0,0,1,533.15,288.82Z"/><path class="cls-16" d="M558.37,284.3c0,1.7,1,41.44-1.09,55.8-1.55,10.52-4.57,26.86-6.14,35.19-.09.5-.18,1-.26,1.4h-1.49c.09-.43.17-.9.27-1.4,1.55-8.24,4.61-24.78,6.18-35.39,2.13-14.48,1.08-55.19,1.07-55.6v-.1c1.6-13.63,4.88-60.64,4.91-61.12a.73.73,0,0,1,1.46.11C563.25,223.65,560,270.58,558.37,284.3Z"/><path class="cls-16" d="M552.71,376a.7.7,0,0,1-.72.69h-3.33l-14.82-.12h-.06a.69.69,0,0,1-.63-.7.72.72,0,0,1,.71-.7l15,.12H552A.71.71,0,0,1,552.71,376Z"/><path class="cls-8" d="M530.51,407.8v.32c0,.49,0,.92.06,1.3,0,.83.11,1.33.11,1.33H558.1a15.68,15.68,0,0,0,0-2.63c-.18-2.8-1.11-7.23-4.9-10.15-5.18-4-3.18-3.17-4.24-5-.12-.2-1.06-3.31-1.16-3.52-.89-1.9-1.71-2.8-6.62-2.8-6.52,0-7.09,3.16-7.79,4.83a31.63,31.63,0,0,0-1.08,3.87c-.17.69-.33,1.43-.49,2.19-.4,1.89-.78,3.86-1,5.43A28.82,28.82,0,0,0,530.51,407.8Z"/><path class="cls-15" d="M530.51,407.8v.32c0,.49,0,.92.06,1.3a7.74,7.74,0,0,0,2.85-3.69c1.69-4.62-.92-10.17-1-10.41l0,0c-.17.69-.33,1.43-.49,2.19.62,1.88,1.33,5.06.34,7.74A6.36,6.36,0,0,1,530.51,407.8Z"/><path class="cls-15" d="M530.51,408.12c0,1.56.17,2.63.17,2.63H558.1a15.68,15.68,0,0,0,0-2.63Z"/><path class="cls-11" d="M540.3,395.2l.2,0a13.44,13.44,0,0,1,6.36-.13.79.79,0,0,0,1-.55.78.78,0,0,0-.55-1,15,15,0,0,0-7.16.12.78.78,0,0,0,.19,1.54Z"/><path class="cls-11" d="M539.88,392.25a.63.63,0,0,0,.19,0,13.59,13.59,0,0,1,6.36-.13.77.77,0,0,0,1-.54.79.79,0,0,0-.54-1,15.15,15.15,0,0,0-7.17.13.78.78,0,0,0-.56,1A.79.79,0,0,0,539.88,392.25Z"/><path class="cls-11" d="M541.48,397.68a.63.63,0,0,0,.19,0,13.78,13.78,0,0,1,6.36-.13.77.77,0,0,0,1-.54.79.79,0,0,0-.54-1,15.15,15.15,0,0,0-7.17.13.78.78,0,0,0-.56.95A.79.79,0,0,0,541.48,397.68Z"/><path class="cls-11" d="M542.85,400.49a.65.65,0,0,0,.2,0,13.62,13.62,0,0,1,6.36-.13.78.78,0,0,0,1-.55.79.79,0,0,0-.55-1,15.09,15.09,0,0,0-7.16.13.78.78,0,0,0,.19,1.53Z"/><path class="cls-16" d="M567.49,219.35h0s0,0,0,.06c0,.47-.09,1-.13,1.44a11.83,11.83,0,0,1-6.07-.54c-3.73-1.36-6.67-4.41-8.8-7.46a36.1,36.1,0,0,1-2.48-4.14,34.17,34.17,0,0,1-1.74-3.9.73.73,0,1,1,1.37-.49,35.42,35.42,0,0,0,1.79,3.91,34.41,34.41,0,0,0,2.31,3.82c2,2.84,4.69,5.67,8.06,6.89A10.5,10.5,0,0,0,567.49,219.35Z"/><path class="cls-8" d="M579,138.91a11.75,11.75,0,0,1-.11,1.68c-.64,4.52-1.27,5.88-1.49,9.19-.1,1.46-.53,3.28-.69,4.75-.13,1.3-.37,2.9-.67,4.78s-.71,4.24-1.11,6.81c-.24,1.53-.48,3.17-.72,4.91v3c-1.14,8.34-1.36,16.23-2.68,19.86l-.06,0h0l-.08.05-.11,0,0,0-.08,0-.14.07.1-.05-.11,0h0l-.94.41a55.84,55.84,0,0,1-6.24,2.23,62.55,62.55,0,0,1-7.36,1.66l-1.39.21H555c-1.53.21-3.06.37-4.59.47l-1.72.1a70.82,70.82,0,0,1-14.34-.85q-.6-.09-1.2-.21c-1.2-.2-2.37-.45-3.53-.72-.4-.09-.8-.18-1.2-.29a60,60,0,0,1-12-4.36l-1.33-.68c-1.23-.66-2.4-1.36-3.5-2.08l-.15-.1a34.41,34.41,0,0,1-3.82-3c.56-3.52,1.27-7.44,1.87-10.7v0c.46-2.3.92-4.69,1.35-7.07a.45.45,0,0,0,0-.08c1.39-7.62,2.59-15.16,3.21-19.53.22-1.49.41-2.94.58-4.36s.32-2.74.45-4.06c.15-1.5.27-3,.37-4.38.07-.76.11-1.51.16-2.25h0c0-.73.09-1.46.12-2.17,0-.35,0-.7,0-1,0-1.15.08-2.27.11-3.37.33-17.55-2.57-27-2.4-32.06a8.09,8.09,0,0,1,.15-1.37,9.89,9.89,0,0,1,.61-2,7.89,7.89,0,0,1,.92-1.59c2.33-3.08,6.57-3.65,10.74-5h0c.57-.18,1.14-.38,1.7-.6l.71-.29.67-.31c.29-.14.58-.28.86-.44a12.81,12.81,0,0,0,4.06-3.43l0,0c.14-.18.28-.37.41-.57h17.21a23.89,23.89,0,0,0,3.9,2.42l.46.23.27.13c.58.27,1.22.55,1.92.82s1.24.46,1.93.67l.66.19a34.79,34.79,0,0,0,4,.89,11.39,11.39,0,0,1,6.19,3.07,14.74,14.74,0,0,1,2.17,2.6c2.61,3.92,4.17,9.71,4.63,17.06.29,4.57.59,9,.85,13.21q.18,3,.33,5.95c0,.4,0,.81,0,1.21.15,3.23.07,5.3.1,8.42C579,137.34,579,138.67,579,138.91Z"/><path class="cls-15" d="M567.33,192.78a.35.35,0,0,0,.34-.26c11.45-41.79,4.4-85,4.33-85.44a.36.36,0,1,0-.71.12c.07.43,7.09,43.5-4.31,85.13a.36.36,0,0,0,.25.44Z"/><path class="cls-15" d="M515.09,103.89c0,.25.22,2.24.45,5,0,.41.07.84.1,1.29.35,4.47.7,10.43.59,15a.42.42,0,0,1-.77.22h0c.12-4.54-.24-10.67-.59-15.21v-.08c-.27-3.53-.53-6.09-.54-6.16a.39.39,0,0,1,.77-.08Z"/><path class="cls-7" d="M547,36.7c8.63,5,5.13,12.54,5.13,12.54l-10.69,1.87-19.31,3.37s-4.79-3.86-.38-7.77c0,0-5.82-1.3-5.71-5.12S520.71,40,520.71,40s-3-2.47-1.06-4.17,6.12,2.4,6.12,2.4S539.22,32.2,547,36.7Z"/><path class="cls-18" d="M551.72,79.09c-.64,3-5.21,6.73-7.76,7.58a14.61,14.61,0,0,1-11.3-.74l-.53-6L532,78.69l-.21-2.32,13.81-10.82.79-.62.54-.43.24.52.27.58-.06.26C549,71.61,549.21,75.07,551.72,79.09Z"/><path class="cls-7" d="M532.44,84a16.1,16.1,0,0,0,9.75-9.63c-2.68,2.58-6,4.39-9.18,4.36a8,8,0,0,1-1-.07Z"/><path class="cls-19" d="M523.67,59.37A2.57,2.57,0,0,0,521.76,62c-.14,2.3,1.34,6,3.59,5.32S523.67,59.37,523.67,59.37Z"/><path class="cls-18" d="M547.77,66.39h0l-.09,0c0,.2-.08.4-.13.6l-.06.26c-.1.36-.22.73-.35,1.09-2.12,5.69-8.84,11.71-14.71,11.43-.35,0-.68-.06-1-.11-5.71-.92-7.59-7.21-7.29-12.08,0-.18,0-.36,0-.54,0,0,0-.33-.1-.91s-.14-1.08-.24-1.82c-.3-2.2-.8-5.45-1.48-8.64-1.19-5.59,2-14.17,13.35-16.94,9.06-2.21,14,2.53,15.65,7.57a12.63,12.63,0,0,1,.65,3.79,23.3,23.3,0,0,1-.64,5,3.25,3.25,0,0,1,3,2.4C555.81,61,551.83,65.71,547.77,66.39Z"/><g class="cls-20"><path class="cls-19" d="M551.37,55.1A10.2,10.2,0,0,1,548,56.79l-2.28,3L543,58.26s1.05-3.47-.76-4.5-1-3.3-1-3.3,7.27-4.25,10.13-4.14a12.63,12.63,0,0,1,.65,3.79A23.3,23.3,0,0,1,551.37,55.1Z"/></g><path class="cls-7" d="M522,49.16s7.75-5.92,12.52-4.17a12.64,12.64,0,0,1,6.67,5.47s9,1.15,10.9-1.22S550.88,38,544,36.66,527.05,38.06,522,49.16Z"/><path class="cls-7" d="M526.63,61c.15.8.61,1.38,1,1.31s.63-.79.48-1.59-.61-1.39-1-1.31S526.48,60.21,526.63,61Z"/><path class="cls-7" d="M528.38,60a.2.2,0,0,0,.09-.09.21.21,0,0,0-.08-.29c-.09,0-2.16-1.15-3.74.23a.21.21,0,1,0,.28.32,3.06,3.06,0,0,1,3.25-.17A.23.23,0,0,0,528.38,60Z"/><g class="cls-20"><path class="cls-19" d="M534.87,63.73c.07.53,1.46.78,3.11.56s2.92-.84,2.85-1.37-1.47-.79-3.11-.57S534.8,63.19,534.87,63.73Z"/></g><g class="cls-20"><path class="cls-19" d="M524.08,66.15c1.12-.29,1.89-.76,1.84-1.18s-.92-.66-2.08-.64C523.94,65.07,524,65.69,524.08,66.15Z"/></g><path class="cls-19" d="M544.71,66.1a3,3,0,0,0,1,.79,3.87,3.87,0,0,0,1.8.38l.06-.26c.05-.2.09-.4.13-.6l.08,0a3.29,3.29,0,0,1-.46,0,2.91,2.91,0,0,1-.78-.12,2.24,2.24,0,0,1-1.15-.73.43.43,0,0,0-.6,0A.42.42,0,0,0,544.71,66.1Z"/><path class="cls-7" d="M531.43,79.68c.32,0,.65.09,1,.11,5.87.28,12.59-5.74,14.71-11.43a1.88,1.88,0,0,0-1.45-1.47l0-7.09L543,58.26s-1.56,6.48-3.73,7-7.27.2-9.3,1.66c0,0-3.7-.92-5.86.69C523.84,72.47,525.72,78.76,531.43,79.68Z"/><path class="cls-11" d="M534.24,66.84s.36,3.81-2.78,4.48a3.3,3.3,0,0,1-4-2.39Z"/><path class="cls-16" d="M532.31,72.64a1.73,1.73,0,0,0,.88-.73.29.29,0,1,0-.51-.27,1.17,1.17,0,0,1-1.2.52.28.28,0,0,0-.32.25.29.29,0,0,0,.25.32A1.82,1.82,0,0,0,532.31,72.64Z"/><path class="cls-19" d="M548.39,63.38a.42.42,0,0,0,.3-.39c.11-3.05,3.45-4.88,3.48-4.9a.43.43,0,1,0-.4-.76c-.16.09-3.81,2.08-3.94,5.63a.43.43,0,0,0,.41.45A.33.33,0,0,0,548.39,63.38Z"/><path class="cls-19" d="M551.84,61.16a.39.39,0,0,0,.14-.08.43.43,0,0,0,0-.61,2.93,2.93,0,0,0-2.76-.87.42.42,0,0,0-.34.5.42.42,0,0,0,.5.34,2.07,2.07,0,0,1,1.94.59A.45.45,0,0,0,551.84,61.16Z"/><path class="cls-19" d="M529.59,66a.46.46,0,0,0,.24-.2.43.43,0,0,0-.17-.58l-2.51-1.41,2-.88a.43.43,0,0,0,.24-.27l1.54-5.27a.42.42,0,0,0-.29-.53.43.43,0,0,0-.53.29l-1.49,5.07L526,63.33a.45.45,0,0,0-.25.38.43.43,0,0,0,.22.39l3.25,1.83A.43.43,0,0,0,529.59,66Z"/><path class="cls-7" d="M536.55,56.24a1.29,1.29,0,0,0,.48-.3,1.18,1.18,0,0,0,0-1.67c-.11-.11-2.77-2.64-5.93-1.13a1.18,1.18,0,1,0,1,2.13,3.12,3.12,0,0,1,3.26.7A1.21,1.21,0,0,0,536.55,56.24Z"/><path class="cls-7" d="M524.32,57.79a1.21,1.21,0,0,0,.74-.71c.35-.93,2-1.16,2.41-1.16a1.19,1.19,0,0,0,0-2.37c-1.33,0-3.79.62-4.58,2.69a1.18,1.18,0,0,0,1.47,1.55Z"/><path class="cls-7" d="M533.62,59.79c.15.8.61,1.38,1,1.3s.63-.78.48-1.58-.6-1.39-1-1.31S533.47,59,533.62,59.79Z"/><path class="cls-7" d="M535.91,59a.21.21,0,0,0,.11-.08.21.21,0,0,0,0-.3,3.46,3.46,0,0,0-3.74-.24.22.22,0,0,0,.24.36c1.5-1,3.23.22,3.25.23A.22.22,0,0,0,535.91,59Z"/><path class="cls-15" d="M542,101.75a56.87,56.87,0,0,1-.52-10.06,31.08,31.08,0,0,1,1.29-7.19s6-2.67,8-6.82c0,0,6.5,1.54,7.26,6.14C558.08,83.82,549.92,98.63,542,101.75Z"/><path class="cls-15" d="M532.23,81.09s-4-.49-4.07,5c-.08,10.89,7,13.92,7,13.92l1.51-5.6a35.82,35.82,0,0,0,1-8.5S532.31,85.57,532.23,81.09Z"/><path class="cls-15" d="M540.19,93.64A1.16,1.16,0,1,1,539,92.48,1.16,1.16,0,0,1,540.19,93.64Z"/><path class="cls-15" d="M539.8,98.24a1.16,1.16,0,1,1-1.16-1.16A1.16,1.16,0,0,1,539.8,98.24Z"/><circle class="cls-15" cx="538.47" cy="102.39" r="1.16"/><path class="cls-6" d="M513.19,139.14c.23-1,.38-1.94.57-2.89,4.64-23,3.18-33.55,7-49.88,0,0,3.23-1.82,5-1.78l-.09.33a79,79,0,0,0-3.12,19.15s22.25,1.66,32.3,2.21a84.69,84.69,0,0,1,8-21.41A6.58,6.58,0,0,1,567.67,86h0c-.16.29-12.78,22.57-6.8,42.23,0,0,11.15,21.23,11.87,115.18-27,3.88-50.09-10.49-76-3A763.86,763.86,0,0,1,513.19,139.14Z"/><path class="cls-4" d="M549.32,156.67c-9,0-15.73-4.44-20-8.5a41.62,41.62,0,0,1-8.16-10.83.42.42,0,1,1,.75-.36,41.19,41.19,0,0,0,8,10.6c4.84,4.6,12.94,9.7,24,7.87a.42.42,0,1,1,.14.82A27.94,27.94,0,0,1,549.32,156.67Z"/><path class="cls-4" d="M523,111.28a103.79,103.79,0,0,0-1.1,17.43s11.55,2.86,30.48,2.14c0,0-.42-7.1,0-17.86C552.37,113,530.26,112.44,523,111.28Z"/><path class="cls-4" d="M569.9,238.56a.42.42,0,0,1-.42-.39c0-.1-.82-9.83-.35-27.65.9-35-7.16-74.75-7.25-75.15a.42.42,0,0,1,.83-.17c.08.4,8.16,40.24,7.26,75.34-.46,17.77.34,27.46.35,27.56a.42.42,0,0,1-.39.45Z"/><path class="cls-4" d="M558.67,106.86a1.36,1.36,0,1,1-1.35-1.36A1.36,1.36,0,0,1,558.67,106.86Z"/><path class="cls-4" d="M521.54,104.92a1.37,1.37,0,1,1-1.37-1.37A1.37,1.37,0,0,1,521.54,104.92Z"/><path class="cls-4" d="M564.3,239c-7.91,0-20.74-1.68-38.35-5-16-3.05-27.75.38-27.86.42a.42.42,0,0,1-.53-.28.43.43,0,0,1,.28-.53c.12,0,12.05-3.52,28.27-.43,32,6.08,42.51,5.52,45.7,4a.42.42,0,1,1,.36.75C570.64,238.6,568,239,564.3,239Z"/><path class="cls-4" d="M516.08,162.28a111.17,111.17,0,0,0-2.89,30.5s27.23,6.47,44.4,1.64a155.43,155.43,0,0,1-2-30.07C541.49,165.33,524.61,163.26,516.08,162.28Z"/><path class="cls-6" d="M577.52,148.43s1.92,3.86-.81,6.1l-9.31,3.1c-1.23-1.22-2.23-3.21-1.18-6.35Z"/><path class="cls-8" d="M612.08,145.52a17.32,17.32,0,0,1-.61,2.79,20.82,20.82,0,0,1-1.16,3c-.14.29-.28.57-.41.85a32,32,0,0,1-1.69,2.95A54.39,54.39,0,0,1,604.7,160q-1.8,2.25-3.67,4.29c-.63.69-1.25,1.36-1.89,2s-1.28,1.31-1.93,2-1.31,1.27-2,1.89c-.33.32-.67.63-1,.93l-1.07,1a7.44,7.44,0,0,1-11.69-8.67l.49-1.06.13-.23.16-.26.31-.52.64-1.06,1.26-2.12c.43-.7.83-1.41,1.25-2.11l1.21-2.11c.78-1.4,1.55-2.79,2.24-4.15s1.33-2.71,1.82-3.93l.15-.4-.56-.74c-.44-.56-.91-1.16-1.4-1.76-1-1.21-2-2.45-3.08-3.7s-2.16-2.5-3.26-3.75-2.21-2.52-3.33-3.77q-3.36-3.78-6.79-7.55l-6.84-7.56-3.43-3.78-.93-1c.89-2.68,1.86-5.33,2.84-8,1.13-3.06,2.3-6.1,3.46-9.14l1.77-4.63c.1-.28.21-.56.32-.84a12,12,0,0,1,7,3.81l0,0,1.74,2,1.72,2,1.7,2,1.69,2c2.25,2.65,4.46,5.33,6.66,8s4.37,5.45,6.54,8.22c1.07,1.39,2.15,2.78,3.22,4.2s2.12,2.85,3.18,4.3,2.1,3,3.16,4.52c.53.78,1.05,1.58,1.59,2.43s1.08,1.75,1.68,2.82l.23.42,0,.05.21.4.25.48c.08.19.17.35.26.56s.19.42.28.64.21.5.33.82l.08.23.09.27.09.28.1.34a11.46,11.46,0,0,1,.3,1.36A14.72,14.72,0,0,1,612.08,145.52Z"/><path class="cls-18" d="M606.22,158h0c-.5.69-1,1.35-1.52,2q-1.8,2.25-3.67,4.29c-.63.69-1.25,1.36-1.89,2s-1.28,1.31-1.93,2-1.31,1.27-2,1.89c-.33.32-.67.63-1,.93l-1.07.95a7.43,7.43,0,0,1-11.69-8.66l.49-1.06c0-.06.09-.15.13-.24l.16-.25.31-.52.64-1.06,1.26-2.12c.43-.7.83-1.41,1.24-2.11s.82-1.41,1.22-2.11c.78-1.4,1.54-2.79,2.24-4.15l.56-1.12c.31-.64.6-1.27.87-1.88a.55.55,0,0,1,.14-.08C602.55,150.12,606.14,157.87,606.22,158Z"/><path class="cls-15" d="M589.71,148.67s11,2.84,15,11.37a1.73,1.73,0,0,0,1.52-2s-3.54-7.89-15.5-11.33A1.84,1.84,0,0,0,589.71,148.67Z"/><path class="cls-15" d="M612.08,145.52a17.32,17.32,0,0,1-.61,2.79,20.82,20.82,0,0,1-1.16,3c-3.63-4.74-2-11.18-.27-15.37l.21.4.25.48c.08.19.17.35.26.56s.19.42.28.64.21.5.33.82l.08.23.09.27.09.28.1.34a11.46,11.46,0,0,1,.3,1.36A14.72,14.72,0,0,1,612.08,145.52Z"/><path class="cls-15" d="M591.19,145.12a.45.45,0,0,0,.42-.29,39.47,39.47,0,0,1,4.1-7.66.46.46,0,1,0-.72-.58,40.05,40.05,0,0,0-4.24,7.9.46.46,0,0,0,.25.6Z"/><path class="cls-15" d="M592.42,142.37h.08a.46.46,0,0,0,.36-.54l-.64-3.28a.47.47,0,0,0-.55-.36.45.45,0,0,0-.36.54L592,142A.47.47,0,0,0,592.42,142.37Z"/><path class="cls-15" d="M573.46,125.78a.45.45,0,0,0,.3-.11.45.45,0,0,0,0-.63s-4.19-4.79-8.28-9.33a.45.45,0,1,0-.66.6c4.09,4.53,8.23,9.27,8.27,9.32A.43.43,0,0,0,573.46,125.78Z"/><path class="cls-15" d="M564.87,119.37l3,0a.45.45,0,0,0,.45-.45.44.44,0,0,0-.44-.44l-3,0a.45.45,0,0,0,0,.89Z"/><path class="cls-18" d="M563.27,170.06c-.12,1.25,3.09.8,5.24.86s3.17-.24,4.91.2a11.79,11.79,0,0,0-3.3.8l-1.18.59h0a13,13,0,0,0-2.91,1.73c-.7.72,1.47,1.73,3.63,1.22a30.73,30.73,0,0,0,3.09-1.09,2.77,2.77,0,0,1,.87-.16,1.75,1.75,0,0,1,.7.14l-.69.38c-.35.18-.77.42-1.18.67-.24.15-.48.3-.69.45-1,.7-2.69,3.25-1.8,3.89a.94.94,0,0,0,.71.08,17,17,0,0,0,2.84-1.13,7.32,7.32,0,0,1,2.66-.79,89.15,89.15,0,0,0,9.79-.51,9.41,9.41,0,0,0,5.7-2.65,4.61,4.61,0,0,0,1.26-2.32h0a7.57,7.57,0,0,0-.14-3.75c-1-3.47-2.84-6.24-6.94-7l-.45-.24a20.05,20.05,0,0,0-4.9-1.89,11.67,11.67,0,0,0-4.93.85v0l-.47,3h0s-.59-.4-3.11-.49a7.83,7.83,0,0,0-1.69.13c-.38.07-.75.16-1.1.26-1.36.41-2.52,1-3.32,1.24-1.29.38.16,2.1,2.29,2a17.28,17.28,0,0,1,4.24.37h0l.39.1h-.26a14.53,14.53,0,0,0-4,.45C566.88,168.08,563.39,168.81,563.27,170.06Z"/><path class="cls-15" d="M582.47,160.5a26.87,26.87,0,0,1,10.45,11.92s2.53-.44,2.31-2.23a26,26,0,0,0-11.76-11.65A1.85,1.85,0,0,0,582.47,160.5Z"/><path class="cls-21" d="M49.77,165.34S39.88,176.07,47,186c0,0-10.19.76-10.55,10-.34,9,12.78,19.19,35.3,14,21.8-5,13.89-20.65,13.89-20.65s3.8-3.57,2.74-12.64c-.62-5.22-.68-9.73-.68-9.73Z"/><path class="cls-21" d="M86.58,176.55c.24-1.38.49-2.78.74-4.19,2.78-15.74-10.86-20.65-10.86-20.65s-6.95-3.45-16.9-1.26c-9.67,2.13-10.47,14.61-11,26.1Z"/><path class="cls-18" d="M95.83,286.83c-1,.27-2,.52-2.92.75l-1.2.29A111.31,111.31,0,0,1,53.6,290l-1.23-.16a69.5,69.5,0,0,1-8.52-1.61h0a47.64,47.64,0,0,0,1.43-9.26c.06-1.05.1-2.07.13-3.05h0c.06-1.82.07-3.47.06-4.83V271h0c0-.92,0-1.71,0-2.32,6-1.15,17.17-3.15,27.5-4.42,7.48-.93,14.54-1.47,18.91-1l.25,1.63.37,2.4.31,1.8.68,3.93,2.36,13.57Z"/><path class="cls-9" d="M45.14,280.48s34.29,4.07,48.88-4.73c0,0,3.16,14.53,2.89,18.39-.67,9.24-52.44,7.2-53.74-1.84C42.59,288.31,45.14,280.48,45.14,280.48Z"/><path class="cls-12" d="M45.05,279.5A9.14,9.14,0,0,0,43.91,285s34.24,4.71,51.1-4.42a6.79,6.79,0,0,0-1.26-5.73S80.51,283.87,45.05,279.5Z"/><path class="cls-22" d="M76,273c0,1.3-.46,2.35-1,2.34S74,274.25,74,273s.45-2.35,1-2.34S76,271.68,76,273Z"/><path class="cls-22" d="M92.43,267.23c-3.62.26-8.41.73-13.79,1.56-10.38,1.62-22.93,4.61-33.39,10.13.06-1.05.1-2.07.13-3.05h0c.06-1.82.07-3.47.06-4.83V271h0c0-.92,0-1.71,0-2.32,6-1.15,17.17-3.15,27.5-4.42,7.48-.93,14.54-1.47,18.91-1l.25,1.63Z"/><polygon class="cls-18" points="93.5 207.25 110.57 227.69 95.39 232.03 93.5 207.25"/><path class="cls-8" d="M95,265.51A3.13,3.13,0,0,1,92.71,269l-.65-4.21A9,9,0,0,1,95,265.51Z"/><path class="cls-8" d="M45.38,275.87h0c-5.9-.26-4.73-3.57-4.73-3.57h0L45.44,271h0V271Z"/><path class="cls-13" d="M102.06,243.51c0,.38-.07.77-.14,1.17,0,.16-.06.32-.1.48-.93,4-4.87,8.92-6.63,10.8l-.54.55-.21.19-.28.25V257c0,.19,0,.38,0,.59s0,.71.07,1.11.08,1.07.14,1.67v.08c.08.83.18,1.74.29,2.71.08.74.17,1.52.27,2.32h0a26.62,26.62,0,0,0-2.89-.67h0c-5.32-1-11.86-.73-18.59.11a192.39,192.39,0,0,0-28,6c-1.79.51-3.4,1-4.76,1.41v-.09c.07-1,.13-2,.18-2.92q.18-3.51.13-6.64c0-1.94-.12-3.77-.26-5.5a.45.45,0,0,0,0-.11,120.93,120.93,0,0,0-3.43-18.45c-.24-.91-.48-1.83-.73-2.74-.07-.27-.15-.53-.22-.79l-.12-.44c0-.11-.07-.23-.1-.34l-.3-1c-.09-.34-.19-.67-.29-1-.18-.62-.37-1.24-.57-1.85-.11-.37-.23-.74-.35-1.11-.38-1.19-.78-2.38-1.19-3.55-.24-.69-.47-1.39-.68-2.09s-.32-1.12-.47-1.68h0q-.21-.84-.39-1.68h0c-.05-.28-.11-.55-.16-.83h0c-.16-.84-.28-1.67-.37-2.49h0a25.18,25.18,0,0,1-.08-4.74c0-.23,0-.46.07-.69a0,0,0,0,1,0,0c0-.24.06-.48.1-.71a2.14,2.14,0,0,1,.06-.35l.06-.35c0-.11.05-.22.08-.34h0a1.89,1.89,0,0,0,.05-.23l0-.1c0-.11.05-.21.08-.31l.12-.4c.09-.3.19-.59.3-.88v0c0-.11.09-.21.13-.32s.09-.2.13-.31l.15-.32c.09-.19.19-.38.29-.56l.18-.33.16-.25c.12-.19.24-.38.37-.56l.19-.26.17-.21s0-.05.06-.08l.17-.21c.16-.19.33-.37.51-.55l.19-.2.25-.23.26-.23.26-.22.18-.14a11.18,11.18,0,0,1,1.7-1.08l.23-.12.53-.25.25-.11c.38-.16.77-.3,1.18-.44l.08,0,.33-.1.48-.13,1.18-.31,1.15-.28c4.81-1.17,8.86-1.91,10.35-2.18l.28,0,.12,0h0l.08,0H54l2,.3,18.14,2.74.61.1,1.11.16.46.07,2.11.32c3.11.57,5.64,1.13,7.71,1.73a24,24,0,0,1,4.45,1.71,10.79,10.79,0,0,1,2.21,1.51l.15.14c.19.18.35.36.51.54l.11.13a7.48,7.48,0,0,1,1,1.5,4,4,0,0,1,.17.36,6.28,6.28,0,0,1,.29.76c0,.1.07.2.1.3l.15.5c0,.19.09.38.13.57s.1.44.15.67l.09.55c0,.15,0,.31.08.47.08.55.16,1.12.22,1.72l.06.5c0,.13,0,.27,0,.41s0,.32,0,.48c.06.61.13,1.26.21,1.94v.07c0,.14,0,.28.05.42l0,.24,0,.28c0,.12,0,.25,0,.38a.69.69,0,0,1,0,.13q.24,1.91.6,3.78h0c0,.08,0,.16,0,.25.26,1.31.55,2.61.87,3.88C99.77,235,102.35,239,102.06,243.51Z"/><path class="cls-8" d="M41.32,203.53a2.81,2.81,0,0,1-5.62-.22,2.11,2.11,0,0,1,0-.25,12.77,12.77,0,0,1,4.07-2.14A2.82,2.82,0,0,1,41.32,203.53Z"/><path class="cls-8" d="M51.05,205.08a2.81,2.81,0,1,1-2.7-2.92A2.81,2.81,0,0,1,51.05,205.08Z"/><path class="cls-8" d="M60.83,206.34a2.81,2.81,0,1,1-2.7-2.92A2.81,2.81,0,0,1,60.83,206.34Z"/><path class="cls-8" d="M70.66,207.29A2.81,2.81,0,1,1,68,204.37,2.81,2.81,0,0,1,70.66,207.29Z"/><path class="cls-8" d="M80.55,207.9A2.81,2.81,0,1,1,77.86,205,2.81,2.81,0,0,1,80.55,207.9Z"/><path class="cls-8" d="M90.5,208.17a2.81,2.81,0,1,1-2.69-2.92A2.81,2.81,0,0,1,90.5,208.17Z"/><path class="cls-8" d="M39.56,217.91a2.81,2.81,0,1,1-2.78-2.82A2.81,2.81,0,0,1,39.56,217.91Z"/><path class="cls-8" d="M49.18,219a2.81,2.81,0,1,1-2.79-2.83A2.8,2.8,0,0,1,49.18,219Z"/><path class="cls-8" d="M59,219.94a2.81,2.81,0,1,1-2.79-2.82A2.82,2.82,0,0,1,59,219.94Z"/><path class="cls-8" d="M69,220.6a2.81,2.81,0,1,1-2.79-2.83A2.81,2.81,0,0,1,69,220.6Z"/><path class="cls-8" d="M79.05,221a2.81,2.81,0,1,1-2.79-2.83A2.81,2.81,0,0,1,79.05,221Z"/><path class="cls-8" d="M89.2,221.05a2.81,2.81,0,1,1-2.79-2.83A2.82,2.82,0,0,1,89.2,221.05Z"/><path class="cls-8" d="M97,223.53a3.89,3.89,0,0,1-.49,0,2.81,2.81,0,0,1-.34-5.6c0,.34.08.67.12,1,0,.12,0,.25,0,.38a.59.59,0,0,1,0,.13q.24,1.91.6,3.78C97,223.36,97,223.44,97,223.53Z"/><path class="cls-8" d="M36.23,234.7c0-.12-.07-.23-.1-.34l-.3-1c-.38-1.32-.78-2.64-1.21-4l.33,0a2.8,2.8,0,0,1,1.28,5.33Z"/><path class="cls-8" d="M47.33,232.79a2.81,2.81,0,1,1-2.88-2.73A2.82,2.82,0,0,1,47.33,232.79Z"/><path class="cls-8" d="M57.18,233.35a2.81,2.81,0,1,1-2.87-2.74A2.8,2.8,0,0,1,57.18,233.35Z"/><path class="cls-8" d="M67.29,233.72A2.81,2.81,0,1,1,64.41,231,2.81,2.81,0,0,1,67.29,233.72Z"/><path class="cls-8" d="M77.56,233.86a2.81,2.81,0,1,1-2.87-2.73A2.8,2.8,0,0,1,77.56,233.86Z"/><path class="cls-8" d="M87.9,233.73A2.8,2.8,0,1,1,85,231,2.8,2.8,0,0,1,87.9,233.73Z"/><path class="cls-8" d="M98.23,233.29a2.81,2.81,0,1,1-2.88-2.73A2.81,2.81,0,0,1,98.23,233.29Z"/><path class="cls-8" d="M45.49,246.25a2.8,2.8,0,1,1-3-2.64A2.8,2.8,0,0,1,45.49,246.25Z"/><path class="cls-8" d="M55.38,246.45a2.8,2.8,0,1,1-3-2.64A2.8,2.8,0,0,1,55.38,246.45Z"/><path class="cls-8" d="M65.63,246.53a2.81,2.81,0,1,1-3-2.64A2.81,2.81,0,0,1,65.63,246.53Z"/><path class="cls-8" d="M76.09,246.44a2.8,2.8,0,1,1-3-2.64A2.81,2.81,0,0,1,76.09,246.44Z"/><path class="cls-8" d="M86.63,246.11a2.8,2.8,0,1,1-3-2.64A2.81,2.81,0,0,1,86.63,246.11Z"/><path class="cls-8" d="M97.11,245.51a2.8,2.8,0,1,1-3-2.65A2.81,2.81,0,0,1,97.11,245.51Z"/><path class="cls-8" d="M102.06,243.51c0,.38-.07.77-.14,1.17,0,.16-.06.32-.1.48a1.33,1.33,0,0,1,0-.28A2.74,2.74,0,0,1,102.06,243.51Z"/><path class="cls-8" d="M41.11,262.73H41c0-1.94-.12-3.77-.26-5.5a.45.45,0,0,0,0-.11,2.81,2.81,0,0,1,.38,5.61Z"/><path class="cls-8" d="M53.58,259.53a2.81,2.81,0,1,1-3-2.55A2.81,2.81,0,0,1,53.58,259.53Z"/><path class="cls-8" d="M64,259.32a2.81,2.81,0,1,1-3-2.55A2.82,2.82,0,0,1,64,259.32Z"/><path class="cls-8" d="M74.62,259a2.81,2.81,0,1,1-3.05-2.55A2.81,2.81,0,0,1,74.62,259Z"/><path class="cls-8" d="M85.36,258.47a2.81,2.81,0,1,1-3-2.55A2.81,2.81,0,0,1,85.36,258.47Z"/><path class="cls-8" d="M94.4,260.39v.08a2.59,2.59,0,0,1-1,.27A2.81,2.81,0,1,1,95.19,256l-.54.55-.49.44V257c0,.19,0,.38,0,.59C94.23,258.39,94.3,259.33,94.4,260.39Z"/><path class="cls-8" d="M76.24,201.17c.31,3.72-2,9.19-7.12,9.49-7,.42-14.44-10.52-15.48-12.8l.32-.06Z"/><path class="cls-8" d="M61.45,257.85a.5.5,0,0,0,.43.29.47.47,0,0,0,.26-.05,30,30,0,0,1,19-1.51,32.38,32.38,0,0,0,13.09,1c0-.21,0-.4,0-.59V257l.49-.44a31,31,0,0,1-13.28-.93,30.37,30.37,0,0,0-19.68,1.58A.52.52,0,0,0,61.45,257.85Z"/><polygon class="cls-18" points="86.28 375.74 82.22 392.08 94.11 392.87 101.75 375.74 86.28 375.74"/><path class="cls-13" d="M124.18,412.51,79.49,412a6.15,6.15,0,0,1-.56-2.49c-.24-3.78,1-9.8,1.68-13.6.07-.44.14-.86.19-1.23a12,12,0,0,0,.15-1.55c0-3.11,2.78-2.54,2.78-2.54,4.47,4.49,9.67-2.11,12.63.11,0,0,1.28.94,4.79,4.17s9.52,5.41,14.63,7.62c6.6,2.85,8.45,5.65,8.79,7.56A3.44,3.44,0,0,1,124.18,412.51Z"/><path class="cls-16" d="M124.18,412.51,79.49,412a6.15,6.15,0,0,1-.56-2.49l45.64.54A3.44,3.44,0,0,1,124.18,412.51Z"/><path class="cls-16" d="M84.05,412H82.72a9.85,9.85,0,0,0,2.49-7.13,12.63,12.63,0,0,0-4.6-9c.07-.44.14-.86.19-1.23a13.69,13.69,0,0,1,5.47,10.19A10.82,10.82,0,0,1,84.05,412Z"/><path class="cls-11" d="M100.36,397.49a.73.73,0,0,1-.16-1.45l2.8-.66a.73.73,0,1,1,.34,1.43l-2.8.66Z"/><path class="cls-11" d="M97.84,395.3a.73.73,0,0,1-.16-1.45l2.8-.66a.74.74,0,0,1,.89.54.75.75,0,0,1-.55.89l-2.8.66Z"/><path class="cls-11" d="M103.14,399.15a.75.75,0,0,1-.71-.57.74.74,0,0,1,.55-.89l2.8-.66a.73.73,0,0,1,.88.55.74.74,0,0,1-.55.89l-2.8.66Z"/><path class="cls-11" d="M105.91,400.74a.73.73,0,0,1-.16-1.45l2.8-.66a.73.73,0,0,1,.34,1.43l-2.8.66Z"/><path class="cls-11" d="M108.94,402.22a.75.75,0,0,1-.71-.57.74.74,0,0,1,.55-.89l2.8-.66a.74.74,0,0,1,.33,1.44l-2.8.66Z"/><path class="cls-11" d="M112.22,403.49a.74.74,0,0,1-.16-1.46l2.8-.66a.74.74,0,0,1,.34,1.44l-2.8.66Z"/><path class="cls-9" d="M102.88,282.56s38.71,13.3,36.57,30.59-39.79,68.7-39.79,68.7l-15.17-2.7L92,351c4.36-15.67,6.22-24.42,12-31.32l-31.8-4.87S79.51,283,102.88,282.56Z"/><path class="cls-12" d="M89.06,375.35a.76.76,0,0,1-.16,0,.58.58,0,0,1-.35-.75c.07-.21,7.38-20.52,11-35.22A48.1,48.1,0,0,1,113,316.63c-3.58-.34-9.49-1.58-9.78-1.64a.59.59,0,0,1,.24-1.15c.08,0,8,1.69,11,1.7a.58.58,0,0,1,.55.39.57.57,0,0,1-.18.65,46.41,46.41,0,0,0-14.12,23.06c-3.66,14.75-11,35.12-11.07,35.32A.58.58,0,0,1,89.06,375.35Z"/><path class="cls-12" d="M102.15,378.51h-.08l-16.15-3.37a.59.59,0,0,1-.45-.7.58.58,0,0,1,.69-.45l16.15,3.37a.59.59,0,0,1,.45.7A.58.58,0,0,1,102.15,378.51Z"/><polygon class="cls-18" points="164.59 358.98 174.73 371.44 184.97 364.23 175.56 348.65 164.59 358.98"/><path class="cls-13" d="M219.37,360.33l-34.69,28.18a6.29,6.29,0,0,1-2-1.56c-2.6-2.76-5.47-8.2-7.41-11.53-.22-.39-.44-.75-.63-1.07a15.22,15.22,0,0,0-.88-1.29c-2-2.41.51-3.73.51-3.73,6.31.59,6.09-7.8,9.78-8,0,0,1.59-.1,6.35.14s10.78-1.92,16.12-3.5c6.9-2,10.11-1.06,11.59.19A3.48,3.48,0,0,1,219.37,360.33Z"/><path class="cls-16" d="M219.37,360.33l-34.69,28.18a6.29,6.29,0,0,1-2-1.56l35.43-28.78A3.48,3.48,0,0,1,219.37,360.33Z"/><path class="cls-16" d="M188.22,385.63l-1,.84a9.78,9.78,0,0,0-2.65-7.07,12.63,12.63,0,0,0-9.29-4c-.22-.39-.44-.75-.63-1.07a13.73,13.73,0,0,1,10.72,4.34A10.8,10.8,0,0,1,188.22,385.63Z"/><path class="cls-11" d="M191.46,364a.74.74,0,0,1-1.06-1l1.73-2.29a.74.74,0,1,1,1.18.88l-1.73,2.3Z"/><path class="cls-11" d="M188.12,363.94a.74.74,0,0,1-1.06-1l1.73-2.3a.75.75,0,0,1,1-.14.73.73,0,0,1,.14,1l-1.73,2.3Z"/><path class="cls-11" d="M194.65,363.51a.74.74,0,0,1-.91,0,.74.74,0,0,1-.15-1l1.73-2.3a.75.75,0,0,1,1-.14.73.73,0,0,1,.14,1l-1.73,2.3Z"/><path class="cls-11" d="M197.8,363a.74.74,0,0,1-1.05-1l1.73-2.3a.74.74,0,1,1,1.17.89l-1.73,2.3A.74.74,0,0,1,197.8,363Z"/><path class="cls-11" d="M201.07,362.16a.74.74,0,0,1-1-1l1.73-2.29a.73.73,0,1,1,1.17.88l-1.73,2.3A.49.49,0,0,1,201.07,362.16Z"/><path class="cls-11" d="M204.41,361a.73.73,0,0,1-1-1l1.73-2.3a.73.73,0,1,1,1.17.88l-1.73,2.3A.5.5,0,0,1,204.41,361Z"/><path class="cls-9" d="M182.26,357.08,169,365.58s-10.43-9.66-23.31-21.08-24.89-24.86-29.92-35c0,0-38,16.4-58.6,12.3-8.57-1.7-12.43-7.58-14-13.85a28.35,28.35,0,0,1-.57-2.83,46.6,46.6,0,0,1,.59-15.56s48.31-8.89,73.27-8c1.74.06,3.37.16,4.86.32a27.77,27.77,0,0,1,5.94,1.2c3.17,1.11,7.12,4.45,11.42,9.14.16.16.31.33.47.5C157.52,313,182.26,357.08,182.26,357.08Z"/><path class="cls-12" d="M138.64,292.16c-13.6,2.4-19.78-5.75-22.22-10.66,1.74.06,3.37.16,4.86.32a27.77,27.77,0,0,1,5.94,1.2C130.39,284.13,134.34,287.47,138.64,292.16Z"/><path class="cls-12" d="M131.18,331a.66.66,0,0,1-.32-.12c-9.36-7.26-14.4-17.84-15.58-20.55-4.9,2.84-19.92,7.26-20.58,7.46a.59.59,0,0,1-.33-1.13c.17-.05,16.89-5,20.85-7.67a.59.59,0,0,1,.5-.08.63.63,0,0,1,.38.35c0,.12,5,12.56,15.48,20.69a.59.59,0,0,1-.4,1.05Z"/><path class="cls-12" d="M166.11,362.69a.56.56,0,0,1-.45-.26.58.58,0,0,1,.17-.81l13.52-8.89a.59.59,0,0,1,.64,1l-13.52,8.88A.54.54,0,0,1,166.11,362.69Z"/><path class="cls-12" d="M169.37,360.46a.54.54,0,0,1-.46.17.61.61,0,0,1-.37-.16c-.22-.23-22.33-22.13-33-31.56-9.63-8.52-15.45-21.75-16.63-24.6-4,1.56-28.59,10.94-51.49,12.19-10.36.58-16.87-2.45-20.5-5.09a21.13,21.13,0,0,1-3.79-3.5,28.35,28.35,0,0,1-.57-2.83,15.13,15.13,0,0,0,1.09,1.61,20.48,20.48,0,0,0,4,3.82c3.48,2.5,9.72,5.37,19.7,4.83C92,314,118.75,303.12,119,303a.53.53,0,0,1,.46,0,.56.56,0,0,1,.31.33c.06.15,6,15.33,16.54,24.68s32.82,31.38,33.05,31.6A.59.59,0,0,1,169.37,360.46Z"/><path class="cls-18" d="M47.85,218l-2.73,5.09-2.72,5.12q-2.7,5.11-5.35,10.26c-1.75,3.42-3.49,6.85-5.16,10.26-.83,1.71-1.66,3.42-2.44,5.1l-.58,1.26-.28.63-.28.62L28,257l-.26.6-.26.6-.23.58c-.16.4-.28.73-.42,1.07l0,.13,0,.1-.07.2-.06.18.09-.36c0-.13.06-.29.07-.44l0-.27c0-.09,0-.18,0-.28s0-.2,0-.31,0-.22,0-.33a6.37,6.37,0,0,0-.07-.74,5.66,5.66,0,0,0-.16-.82,6.5,6.5,0,0,0-.28-.85,7.49,7.49,0,0,0-.38-.81c-.07-.13-.15-.26-.23-.38s-.15-.24-.23-.35l-.25-.33-.25-.29a6.43,6.43,0,0,0-1.69-1.35,3.93,3.93,0,0,0-.86-.37l-.2-.06H22.2s0,0,.05,0a4.51,4.51,0,0,0,.59.06,20,20,0,0,0,2,0c1.54-.09,3.27-.29,5-.55s3.56-.57,5.37-.93c3.63-.7,7.31-1.54,11-2.45q2.76-.67,5.51-1.41l2.75-.74,1.36-.38,1.33-.38.11,0A8.05,8.05,0,0,1,62,260.69l-1.46.47-1.43.45-2.86.88q-2.86.87-5.74,1.68c-3.85,1.09-7.73,2.12-11.71,3-2,.45-4,.88-6.08,1.26s-4.21.72-6.55.93a37.29,37.29,0,0,1-3.8.16,22.26,22.26,0,0,1-2.31-.15c-.43-.05-.88-.11-1.39-.21l-.8-.18c-.29-.08-.57-.15-.9-.26a12.18,12.18,0,0,1-2.19-.95,7.59,7.59,0,0,1-.66-.39l-.35-.24-.35-.25-.37-.29-.36-.32-.38-.36-.18-.19-.19-.2-.36-.43a5.82,5.82,0,0,1-.36-.47l-.34-.5c-.11-.18-.21-.36-.31-.54a7.92,7.92,0,0,1-.54-1.14,10.55,10.55,0,0,1-.4-1.2,9.67,9.67,0,0,1-.23-1.17A10.89,10.89,0,0,1,9.3,259c0-.17,0-.34,0-.51s0-.35,0-.5,0-.31,0-.46,0-.32.05-.44c0-.27.09-.56.15-.81s.11-.47.17-.71l.15-.51.15-.5.08-.25.07-.22c.2-.57.4-1.16.59-1.66l.29-.79.29-.75.29-.75.3-.72.29-.73.3-.71.6-1.41c.79-1.87,1.6-3.69,2.42-5.51,1.64-3.63,3.31-7.2,5-10.75s3.39-7.09,5.11-10.61l2.6-5.28,2.62-5.28A9.58,9.58,0,1,1,48,217.68l-.12.23Z"/><path class="cls-22" d="M20.82,254a.4.4,0,0,1-.31-.19.38.38,0,0,1,.15-.51,23.63,23.63,0,0,1,10.07-2.58.37.37,0,0,1,.38.37.38.38,0,0,1-.37.38A23.46,23.46,0,0,0,21,254,.35.35,0,0,1,20.82,254Z"/><path class="cls-22" d="M29.36,251.39a.35.35,0,0,1-.27-.14,7.14,7.14,0,0,0-3.8-2.09.37.37,0,0,1-.3-.44.38.38,0,0,1,.43-.3,7.83,7.83,0,0,1,4.26,2.37.38.38,0,0,1-.06.53A.41.41,0,0,1,29.36,251.39Z"/><path class="cls-22" d="M83.36,172.83a2.8,2.8,0,0,1,2.2,2.73c.27,2.48-1.14,6.54-3.62,5.93S83.36,172.83,83.36,172.83Z"/><path class="cls-11" d="M84.46,182a2,2,0,1,1-2-2A2,2,0,0,1,84.46,182Z"/><line class="cls-18" x1="75.75" y1="191.69" x2="75.75" y2="191.69"/><path class="cls-18" d="M55,197.67a15.28,15.28,0,0,0,10.24,7.47c9.12,1.71,10.28-2.17,10.28-2.17a14,14,0,0,1-.48-3.48c0-.51,0-1,0-1.56a43.44,43.44,0,0,1,.47-4.86c.07-.42.13-.87.21-1.32v-.06C69.46,189.92,64.38,186.88,61,182l-.93-.6-.63-.42-.13.37.07,1.18C59.76,188.15,58.32,192.69,55,197.67Z"/><path class="cls-11" d="M69.89,214.71a4,4,0,0,0,.6,0,5.13,5.13,0,0,0,4.31-1.88c3-3.7,1.1-11.56,1-11.9a.5.5,0,0,0-.6-.36.49.49,0,0,0-.36.59c0,.08,1.82,7.73-.84,11.06a4.14,4.14,0,0,1-3.52,1.51c-6.47-.08-14.79-15.93-14.87-16.09a.5.5,0,1,0-.88.46C55.1,198.79,63,213.79,69.89,214.71Z"/><path class="cls-7" d="M65.22,187.11c1.21,3.09,4.1,8.58,9.84,10.82a43.44,43.44,0,0,1,.47-4.86c.07-.42.13-.87.21-1.32h-.39C71.89,191.84,68.2,189.9,65.22,187.11Z"/><path class="cls-18" d="M52.14,171.55c-.36,3.43,2.1,7.94,6.58,8.54h0l.1,0c0,.2.11.4.18.61l.09.27a0,0,0,0,0,0,0c2.17,6.12,10.12,10.43,14.6,11a10.33,10.33,0,0,0,3.07-.07c4.87-.53,6.44-6.87,6.22-11.87q-.06-1.1-.21-2.07l0-.13s2.32-6.71,3-9.67c1.34-5.74-1.37-12-14-14.52s-16.53,5.08-17.87,9.18c-.22.69-.52,4.87.1,5.62A3.44,3.44,0,0,0,52.14,171.55Z"/><path class="cls-11" d="M58.65,180a2,2,0,1,1-2-2A2,2,0,0,1,58.65,180Z"/><path class="cls-11" d="M73,180.17s-.9,4,2.32,5.09a3.51,3.51,0,0,0,4.49-2Z"/><path class="cls-22" d="M74.23,186.54a1.78,1.78,0,0,1-.83-.89.31.31,0,0,1,.57-.22,1.24,1.24,0,0,0,1.2.71.31.31,0,1,1,0,.62A2,2,0,0,1,74.23,186.54Z"/><path class="cls-7" d="M70.05,173a.4.4,0,0,1-.16-.13.47.47,0,0,1,.07-.66,2.88,2.88,0,0,1,3-.27,3.27,3.27,0,0,1,1.6,2.52.47.47,0,0,1-.94.07,2.31,2.31,0,0,0-1.08-1.74,1.93,1.93,0,0,0-2,.16A.46.46,0,0,1,70.05,173Z"/><path class="cls-7" d="M78.92,176.06a.49.49,0,0,1-.25-.56A2.26,2.26,0,0,1,80.4,174a2.64,2.64,0,0,1,2.36.9.46.46,0,0,1-.06.66.48.48,0,0,1-.67-.06,1.72,1.72,0,0,0-1.49-.57,1.29,1.29,0,0,0-1,.89.47.47,0,0,1-.58.32Z"/><path class="cls-22" d="M58.72,180.09h0l.1,0c0,.2.11.41.18.61l.09.27a0,0,0,0,0,0,0,4.05,4.05,0,0,0,1.8-.51,3.14,3.14,0,0,0,1-.89.46.46,0,1,0-.74-.56,2.57,2.57,0,0,1-1.21.85,3,3,0,0,1-.83.16A3.63,3.63,0,0,1,58.72,180.09Z"/><g class="cls-20"><path class="cls-22" d="M80.5,178.85c0,.51,1,1,2.51,1.26q-.06-1.1-.21-2.07C81.5,178.07,80.54,178.38,80.5,178.85Z"/></g><path class="cls-21" d="M74.72,168.61a1,1,0,0,0,.83-1.67,2.78,2.78,0,0,0-1.87-.5,6.88,6.88,0,0,0-5.26,3.14s3.43-1.28,5.25-1.15A5.16,5.16,0,0,1,74.72,168.61Z"/><path class="cls-21" d="M80.18,169.57a1,1,0,0,1-.32-1.84,2.75,2.75,0,0,1,1.93.06C85.15,169,85,171.52,85,171.52a12.61,12.61,0,0,0-3.79-1.82A5.74,5.74,0,0,0,80.18,169.57Z"/><g class="cls-20"><path class="cls-22" d="M72.57,178.08c0,.58-1.55.92-3.34.77s-3.19-.76-3.14-1.34,1.54-.93,3.33-.77S72.62,177.49,72.57,178.08Z"/></g><path class="cls-22" d="M59.42,177.46a.47.47,0,0,1-.34-.41c-.27-3.3-4-5.1-4-5.12a.45.45,0,0,1-.22-.62.46.46,0,0,1,.62-.22c.17.08,4.22,2,4.54,5.88a.46.46,0,0,1-.42.5A.49.49,0,0,1,59.42,177.46Z"/><path class="cls-22" d="M55.59,175.23a.48.48,0,0,1-.16-.08.46.46,0,0,1-.09-.65,3.17,3.17,0,0,1,2.94-1.09.46.46,0,1,1-.13.92,2.26,2.26,0,0,0-2.07.73A.46.46,0,0,1,55.59,175.23Z"/><path class="cls-21" d="M69.92,152.44c-12.7-1.51-16.77,8.17-17.36,11.8S54,168.52,54,168.52c1.89.29,3,1.65,3.75,3.31h2.11a3.16,3.16,0,0,0,3-4.05h0a17.38,17.38,0,0,0,4.3-1.77,5.9,5.9,0,0,0,3-5.46s8.4,1,12,3.8c4.29,3.4,3.21,7.23,3.21,7.23S86.63,173,87,166.3,79.44,153.58,69.92,152.44Z"/><path class="cls-21" d="M71.82,150.28s11.45-2.06,16.7,4.76,3.06,17.48-2.93,14.51C85.59,169.55,73.66,161.78,71.82,150.28Z"/><polygon class="cls-7" points="47.51 229.37 52.73 234.69 136.79 233.63 130.2 227.82 47.51 229.37"/><polygon class="cls-5" points="53.41 289.61 137.5 288.56 136.81 233.63 52.73 234.69 53.41 289.61"/><path class="cls-4" d="M80.45,257.44c0-4.14,2.71-6.49,6.25-6.47s6.2,2.41,6.17,6.55S90.16,264,86.62,264,80.42,261.61,80.45,257.44Zm20-6.05,5.65,0L90,274.7l-5.65,0Zm-12.29,6.1c0-2.24-.72-2.91-1.45-2.91s-1.48.66-1.49,2.89.72,2.91,1.45,2.92S88.11,259.73,88.13,257.49Zm9.38,11.08c0-4.14,2.71-6.49,6.25-6.47s6.19,2.41,6.17,6.55-2.72,6.49-6.26,6.47S97.48,272.74,97.51,268.57Zm7.68.05c0-2.24-.72-2.91-1.45-2.91s-1.48.65-1.49,2.89.71,2.91,1.45,2.92S105.17,270.86,105.19,268.62Z"/><polygon class="cls-4" points="53.41 289.62 48.2 283.65 47.51 229.37 52.72 234.28 53.41 289.62"/><rect class="cls-17" x="115.2" y="233.88" width="12.75" height="54.88" transform="translate(-3.28 1.55) rotate(-0.72)"/><rect class="cls-17" x="60.84" y="234.56" width="12.75" height="54.88" transform="translate(-3.29 0.87) rotate(-0.72)"/><path class="cls-18" d="M42.29,264.09a30.3,30.3,0,0,1,.7-9.95c.35-1.44.79-3.17,1.3-4.88a8.06,8.06,0,0,1,2.6-4,4.7,4.7,0,0,1,.81-.55c.09,3.37.26,4.52.23,6.46a9.72,9.72,0,0,0,3,1.2c1.87.42,8.31,2,8.36,3.47.1,3.43-8,1.58-8,1.58s8.64,1.87,8.36,4.26c-.23,1.94-8.1,2.1-8.1,2.1s7.58.27,6.59,3c-1,2.86-8,.85-8,.85s5,2.57,4.48,3.58c-.74,1.45-3.76,1.78-8.58.47C43.58,271,42.63,267.44,42.29,264.09Z"/><path class="cls-19" d="M42.33,266.09h0a.36.36,0,0,1-.38-.32c0-.32-.64-7.78.61-12.79a19.74,19.74,0,0,1,3.8-7.9.35.35,0,0,1,.52.47,19.09,19.09,0,0,0-3.64,7.6c-1.23,4.89-.6,12.48-.59,12.56A.36.36,0,0,1,42.33,266.09Z"/><path class="cls-18" d="M142.28,262.4a26.35,26.35,0,0,0-.75-8.75c-.31-1.25-.72-2.75-1.18-4.22a6.76,6.76,0,0,0-3.48-4c0,3,.08,4.13.14,5.83a7.94,7.94,0,0,1-2.45,1c-1.64.4-7.26,1.84-7.28,3.15,0,3,7,1.29,7,1.29s-7.55,1.74-7.27,3.83c.22,1.7,7.13,1.74,7.13,1.74s-6.64.33-5.75,2.68c1,2.5,7.05.66,7.05.66s-4.35,2.31-3.89,3.18c.67,1.27,3.32,1.52,7.53.31C141.23,268.43,142,265.34,142.28,262.4Z"/><path class="cls-11" d="M71,179.07a4.94,4.94,0,1,1,5.7-4A4.95,4.95,0,0,1,71,179.07Zm1.54-9a4.16,4.16,0,1,0,3.39,4.8A4.17,4.17,0,0,0,72.51,170.1Z"/><path class="cls-11" d="M82.51,181a4.94,4.94,0,1,1,5.69-4A4.95,4.95,0,0,1,82.51,181Zm1.53-9a4.16,4.16,0,1,0,3.4,4.8A4.16,4.16,0,0,0,84,172.08Z"/><path class="cls-22" d="M77.33,180.14a.39.39,0,0,0,.21,0l1.86-.84a.36.36,0,0,0,.23-.31.4.4,0,0,0-.16-.36,5.61,5.61,0,0,1-2.2-4.21.39.39,0,1,0-.77.08,6.49,6.49,0,0,0,2,4.35l-1.29.58a.4.4,0,0,0-.19.52A.4.4,0,0,0,77.33,180.14Z"/><path class="cls-11" d="M63,169a2.56,2.56,0,0,1-.18.64v.08a11.55,11.55,0,0,1,5.3,1.61l.39-.67A13,13,0,0,0,63,169Z"/><path class="cls-11" d="M76.51,175l-.36-.69a2.54,2.54,0,0,1,3.06.53l-.58.51A1.78,1.78,0,0,0,76.51,175Z"/></g></g></svg>